<svg id="svg" version="1.1" xmlns="http://www.w3.org/2000/svg" xmlns:xlink="http://www.w3.org/1999/xlink" width="400" height="424.7787610619469" viewBox="0, 0, 400,424.7787610619469"><g id="svgg"><path id="path0" d="M145.000 58.974 C 142.069 59.833,138.874 61.515,138.370 62.463 C 138.097 62.978,137.523 63.649,137.094 63.952 C 135.660 64.969,135.200 66.900,135.200 71.898 C 135.200 76.804,134.745 78.400,133.347 78.400 C 133.012 78.400,132.167 78.981,131.469 79.690 C 130.067 81.116,127.761 82.800,127.211 82.800 C 127.017 82.800,126.440 83.319,125.929 83.954 C 125.418 84.589,124.370 85.416,123.600 85.792 C 122.830 86.168,121.742 86.981,121.182 87.598 C 120.622 88.216,119.542 88.993,118.782 89.326 C 118.022 89.659,116.770 90.540,116.000 91.283 C 115.230 92.027,113.970 92.883,113.200 93.184 C 112.430 93.485,111.507 93.980,111.150 94.283 C 110.116 95.159,107.562 95.435,107.040 94.727 C 105.635 92.822,100.364 92.525,98.521 94.247 C 97.904 94.823,96.496 95.724,95.392 96.250 C 93.436 97.182,93.366 97.276,92.680 99.890 C 92.293 101.366,91.616 102.957,91.176 103.425 C 90.378 104.275,90.378 104.281,91.167 106.122 C 91.602 107.137,92.081 108.650,92.231 109.484 C 92.612 111.590,92.913 112.071,95.291 114.376 L 97.380 116.400 101.840 116.400 C 107.723 116.400,108.561 116.207,109.405 114.658 C 109.782 113.966,110.653 113.038,111.339 112.596 C 112.708 111.714,112.797 111.410,113.601 104.800 C 114.117 100.564,115.175 98.866,117.852 97.983 C 118.572 97.745,119.278 97.184,119.421 96.735 C 119.564 96.284,120.470 95.570,121.451 95.136 C 122.426 94.705,123.443 93.993,123.711 93.554 C 123.980 93.115,125.104 92.236,126.209 91.601 C 127.314 90.965,128.664 89.964,129.209 89.375 C 129.754 88.786,130.952 87.977,131.872 87.578 C 132.791 87.179,133.733 86.498,133.965 86.065 C 134.197 85.632,135.199 84.885,136.192 84.404 C 137.185 83.923,138.342 83.092,138.763 82.556 C 139.501 81.618,139.702 81.584,144.264 81.621 C 149.278 81.661,151.259 81.263,155.266 79.406 L 157.367 78.433 158.677 79.432 C 159.398 79.981,160.740 80.697,161.660 81.021 C 162.580 81.346,163.563 81.940,163.844 82.341 C 164.125 82.742,165.490 83.579,166.877 84.202 C 168.265 84.824,169.877 85.843,170.460 86.466 C 171.044 87.090,171.819 87.600,172.182 87.600 C 173.300 87.600,176.354 89.166,176.777 89.957 C 176.997 90.368,177.876 90.984,178.730 91.325 C 180.594 92.071,181.600 93.886,181.600 96.501 C 181.600 98.574,182.291 100.815,183.122 101.433 C 183.442 101.670,184.085 102.649,184.552 103.606 C 185.225 104.988,185.730 105.458,187.000 105.882 C 187.880 106.175,188.794 106.674,189.032 106.991 C 190.030 108.321,196.574 108.653,197.056 107.398 C 197.158 107.132,197.962 106.676,198.843 106.386 C 201.302 105.574,204.432 101.764,204.851 99.072 C 205.241 96.566,206.400 95.397,208.877 95.007 C 211.273 94.630,213.142 93.977,214.910 92.898 C 215.949 92.264,217.740 91.792,220.659 91.383 C 223.999 90.914,225.142 90.584,226.040 89.828 C 227.491 88.607,228.893 88.191,233.595 87.589 C 235.683 87.322,237.753 86.965,238.195 86.795 C 239.192 86.412,243.297 88.428,244.877 90.076 C 246.027 91.275,246.894 91.419,251.800 91.230 C 253.572 91.161,254.559 90.888,255.573 90.184 L 256.947 89.231 258.373 89.989 C 259.158 90.406,260.463 90.948,261.273 91.195 C 262.083 91.442,263.495 92.301,264.410 93.103 C 265.326 93.905,266.764 94.870,267.606 95.247 C 268.448 95.624,269.435 96.387,269.798 96.941 C 270.162 97.496,270.962 98.060,271.577 98.195 C 272.192 98.330,273.634 99.241,274.780 100.220 C 275.927 101.199,277.133 102.000,277.460 102.000 C 277.787 102.000,278.874 102.796,279.874 103.768 C 280.875 104.741,282.168 105.654,282.747 105.797 C 285.212 106.406,287.200 109.851,287.200 113.516 C 287.200 116.471,288.186 119.478,289.268 119.822 C 289.711 119.962,290.326 120.683,290.635 121.423 C 291.090 122.511,291.523 122.850,292.899 123.193 C 293.834 123.427,294.913 123.794,295.295 124.009 C 296.232 124.537,299.022 124.503,300.772 123.943 C 305.507 122.427,306.411 121.745,307.560 118.823 C 307.868 118.040,308.543 116.827,309.060 116.127 C 310.514 114.157,310.219 111.578,308.013 107.000 C 307.589 106.120,307.147 105.082,307.031 104.694 C 306.915 104.306,306.321 103.811,305.710 103.594 C 305.100 103.377,304.263 103.005,303.851 102.766 C 301.575 101.448,295.586 100.651,295.007 101.589 C 293.826 103.500,289.473 103.363,287.462 101.353 C 286.942 100.833,285.890 100.146,285.122 99.825 C 284.355 99.505,283.240 98.603,282.643 97.821 C 282.047 97.040,281.209 96.400,280.781 96.400 C 280.353 96.400,279.327 95.804,278.501 95.075 C 277.676 94.346,275.994 93.267,274.765 92.677 C 273.504 92.072,272.347 91.203,272.110 90.681 C 271.859 90.130,271.042 89.544,270.085 89.228 C 269.176 88.928,268.262 88.290,267.976 87.756 C 267.699 87.237,267.122 86.702,266.695 86.567 C 265.783 86.277,263.535 84.792,262.612 83.869 C 262.193 83.451,261.833 81.991,261.585 79.712 C 260.889 73.319,260.869 73.257,259.198 72.151 C 258.359 71.596,257.467 70.644,257.214 70.035 C 256.628 68.620,254.178 68.000,249.171 68.000 C 245.023 68.000,243.417 69.010,241.135 73.053 C 240.491 74.194,239.719 75.222,239.420 75.337 C 239.120 75.452,238.760 76.073,238.618 76.717 C 237.960 79.716,233.901 81.780,227.069 82.589 C 225.332 82.795,224.527 83.108,223.911 83.816 C 223.373 84.435,222.370 84.897,221.042 85.137 C 219.919 85.340,217.830 85.723,216.400 85.986 C 214.970 86.250,212.864 86.999,211.720 87.651 C 210.029 88.614,209.000 88.881,206.228 89.077 L 202.816 89.318 201.508 87.902 C 199.178 85.381,192.705 84.333,188.600 85.812 C 185.751 86.838,181.115 86.013,179.413 84.176 C 178.938 83.664,177.511 82.856,176.241 82.381 C 174.971 81.906,173.462 80.990,172.888 80.345 C 172.272 79.654,171.135 78.994,170.118 78.738 C 169.170 78.499,167.656 77.656,166.753 76.865 C 165.851 76.074,164.480 75.209,163.708 74.944 C 161.452 74.169,159.327 71.703,158.393 68.777 C 157.943 67.369,157.122 65.745,156.569 65.167 C 156.015 64.589,155.426 63.609,155.260 62.989 C 155.095 62.369,154.698 61.735,154.379 61.580 C 154.061 61.426,153.032 60.925,152.094 60.467 C 151.156 60.009,149.759 59.516,148.990 59.372 C 148.220 59.227,147.493 58.950,147.372 58.755 C 147.121 58.349,147.137 58.347,145.000 58.974 M134.465 123.387 C 133.511 123.871,132.569 124.521,132.371 124.833 C 131.744 125.823,131.897 235.816,132.526 236.339 C 134.455 237.939,155.927 238.042,159.300 236.467 L 161.200 235.580 161.200 180.755 L 161.200 125.930 159.300 124.181 L 157.400 122.432 146.800 122.470 C 136.718 122.507,136.115 122.551,134.465 123.387 M236.364 122.680 C 233.652 123.100,233.812 119.627,233.692 180.623 L 233.584 235.445 234.625 236.423 L 235.666 237.400 247.865 237.400 C 259.480 237.400,260.092 237.363,260.632 236.624 C 261.307 235.700,261.501 126.445,260.831 124.682 C 260.113 122.794,257.603 122.393,246.925 122.460 C 241.686 122.493,236.934 122.592,236.364 122.680 M184.022 147.808 C 183.044 148.302,182.111 149.043,181.950 149.453 C 181.349 150.983,181.545 235.857,182.151 236.360 C 184.162 238.029,206.412 238.080,208.179 236.420 L 209.217 235.444 209.109 192.822 L 209.000 150.200 208.000 148.503 L 207.000 146.807 196.400 146.858 C 186.258 146.906,185.723 146.947,184.022 147.808 M89.576 163.939 L 88.600 164.729 88.600 200.153 L 88.600 235.577 89.511 236.489 C 90.420 237.397,90.458 237.400,102.647 237.400 L 114.871 237.400 115.646 236.443 C 116.637 235.219,116.670 164.910,115.681 163.920 C 114.691 162.929,90.801 162.947,89.576 163.939 M286.535 163.491 C 285.475 163.588,284.750 163.889,284.541 164.321 C 283.998 165.441,283.873 234.727,284.410 236.025 C 284.862 237.115,284.902 237.125,289.842 237.410 C 298.208 237.893,309.284 237.499,310.543 236.674 L 311.600 235.982 311.600 200.338 L 311.600 164.694 310.739 163.947 C 309.910 163.228,292.943 162.908,286.535 163.491 " stroke="none" fill="#fa0c1b" fill-rule="evenodd"></path><path id="path1" d="M0.000 212.200 L 0.000 424.400 200.000 424.400 L 400.000 424.400 400.000 212.200 L 400.000 0.000 200.000 0.000 L 0.000 0.000 0.000 212.200 M149.378 56.259 C 150.738 56.445,151.654 56.882,152.642 57.814 C 153.398 58.527,154.546 59.329,155.194 59.597 C 155.841 59.866,156.732 60.696,157.172 61.443 C 157.613 62.189,158.140 62.800,158.343 62.800 C 158.910 62.800,160.000 65.842,160.000 67.422 C 160.000 68.424,160.290 69.084,161.007 69.714 C 161.561 70.201,162.508 71.068,163.111 71.639 C 163.714 72.210,165.375 73.225,166.803 73.893 C 168.232 74.562,169.616 75.473,169.881 75.918 C 170.145 76.364,170.907 76.848,171.574 76.994 C 172.241 77.141,173.594 77.928,174.582 78.744 C 175.569 79.560,177.189 80.445,178.182 80.711 C 179.196 80.982,180.483 81.712,181.119 82.378 C 183.254 84.613,185.458 84.811,188.881 83.076 C 190.754 82.126,192.353 81.597,193.345 81.598 C 195.471 81.601,202.573 84.983,203.160 86.273 C 203.643 87.332,204.464 87.278,207.400 85.995 C 209.547 85.056,210.192 84.877,213.000 84.437 C 216.679 83.861,218.475 83.325,220.476 82.207 C 221.719 81.512,223.448 81.036,225.854 80.726 C 228.505 80.384,229.866 79.982,231.244 79.134 C 232.259 78.510,233.303 78.000,233.564 78.000 C 234.930 78.000,236.390 76.723,236.811 75.161 C 237.230 73.603,239.558 70.222,241.783 67.938 C 245.447 64.177,255.714 65.120,260.052 69.615 C 262.770 72.431,262.854 72.617,263.416 77.000 C 263.556 78.100,264.008 79.477,264.418 80.060 C 264.829 80.643,265.288 81.611,265.438 82.211 C 265.601 82.860,266.215 83.565,266.952 83.951 C 267.634 84.308,268.755 85.173,269.443 85.873 C 270.132 86.573,271.334 87.413,272.116 87.739 C 272.898 88.066,273.831 88.781,274.190 89.329 C 274.549 89.876,275.828 90.724,277.032 91.213 C 278.237 91.702,279.590 92.574,280.039 93.151 C 280.488 93.728,281.608 94.561,282.528 95.002 C 283.448 95.443,284.378 96.208,284.595 96.702 C 284.812 97.196,285.226 97.600,285.515 97.600 C 285.803 97.600,286.616 97.911,287.320 98.291 C 288.779 99.078,292.277 99.990,292.600 99.667 C 294.453 97.814,302.917 98.126,304.624 100.110 C 305.090 100.651,305.988 101.343,306.620 101.647 C 307.253 101.951,308.167 102.830,308.653 103.600 C 309.138 104.370,310.045 105.497,310.668 106.104 C 312.544 107.933,312.700 117.028,310.899 119.505 C 310.514 120.034,309.746 121.306,309.191 122.333 C 308.456 123.692,307.721 124.415,306.491 124.990 C 305.561 125.424,304.800 125.975,304.800 126.214 C 304.800 129.174,294.003 129.901,292.643 127.033 C 292.227 126.157,291.620 125.594,290.902 125.420 C 289.166 124.998,286.124 121.384,285.573 119.089 C 285.317 118.018,284.678 116.714,284.153 116.190 C 283.445 115.481,283.200 114.795,283.200 113.518 C 283.199 110.724,281.913 107.856,280.533 107.574 C 279.154 107.292,277.297 106.172,276.200 104.960 C 275.760 104.474,274.708 103.859,273.861 103.594 C 272.721 103.237,272.182 102.775,271.778 101.810 C 271.335 100.749,270.950 100.462,269.700 100.262 C 268.724 100.106,267.736 99.568,266.983 98.781 C 265.833 97.579,264.378 96.746,262.466 96.194 C 261.928 96.039,261.360 95.432,261.127 94.762 L 260.722 93.600 251.941 93.600 C 242.208 93.600,241.096 93.367,240.330 91.172 C 239.672 89.284,233.392 88.977,232.135 90.771 C 231.303 91.960,228.591 92.801,224.258 93.213 C 222.026 93.426,220.139 93.783,220.064 94.007 C 219.613 95.362,217.111 96.386,214.200 96.407 C 212.042 96.423,209.448 97.055,209.263 97.610 C 209.181 97.858,208.592 98.594,207.956 99.245 C 207.137 100.082,206.800 100.827,206.800 101.795 C 206.800 106.827,200.370 111.600,193.591 111.600 C 188.649 111.600,187.321 111.004,183.420 107.032 C 179.798 103.344,179.849 103.456,179.386 98.200 C 179.011 93.946,178.917 93.724,177.389 93.476 C 175.354 93.145,173.377 92.078,172.799 90.998 C 172.413 90.277,171.731 89.918,170.107 89.581 C 168.526 89.253,167.585 88.769,166.666 87.814 C 165.970 87.091,164.680 86.276,163.800 86.002 C 162.920 85.729,161.625 84.961,160.923 84.296 C 158.769 82.258,153.864 82.208,153.359 84.220 C 152.911 86.007,151.422 86.400,145.092 86.400 L 139.344 86.400 137.208 87.994 C 136.033 88.871,134.516 89.694,133.836 89.825 C 132.969 89.991,132.421 90.434,132.000 91.310 C 131.568 92.208,130.928 92.712,129.718 93.107 C 128.793 93.408,127.935 93.976,127.810 94.368 C 127.552 95.182,124.076 97.200,122.934 97.200 C 122.463 97.200,122.008 97.644,121.734 98.370 C 121.403 99.245,120.877 99.665,119.646 100.033 C 118.004 100.525,118.000 100.532,117.971 102.563 C 117.912 106.667,117.420 108.644,116.077 110.174 C 115.375 110.973,114.800 111.956,114.800 112.358 C 114.800 113.635,111.139 117.919,109.800 118.208 C 109.140 118.351,108.150 118.997,107.600 119.642 C 105.522 122.082,100.040 122.042,97.708 119.571 C 97.100 118.927,96.278 118.400,95.881 118.400 C 94.375 118.400,92.833 117.154,91.558 114.907 C 90.838 113.638,89.913 112.137,89.502 111.571 C 87.628 108.991,87.805 101.474,89.783 99.616 C 90.305 99.125,90.851 98.246,90.996 97.662 C 91.282 96.508,92.689 94.800,93.353 94.800 C 93.580 94.800,94.425 94.156,95.231 93.370 C 97.323 91.327,102.165 90.561,106.554 91.580 C 109.331 92.224,112.225 91.469,114.075 89.619 C 114.963 88.731,116.407 87.790,117.288 87.526 C 118.271 87.232,119.048 86.694,119.305 86.130 C 119.535 85.625,120.520 84.826,121.493 84.355 C 122.467 83.883,123.453 83.083,123.684 82.576 C 123.915 82.069,124.655 81.426,125.329 81.147 C 126.002 80.868,127.356 79.871,128.337 78.931 C 129.317 77.991,130.713 77.027,131.439 76.787 C 132.936 76.293,133.278 75.057,133.147 70.600 C 132.875 61.335,140.064 54.982,149.378 56.259 M159.622 120.703 C 161.449 121.950,163.178 124.073,163.406 125.350 C 163.529 126.038,163.578 151.535,163.515 182.011 L 163.400 237.423 161.800 239.064 C 158.818 242.123,158.685 242.151,147.200 242.177 C 135.063 242.204,133.086 241.814,131.241 239.029 L 130.200 237.458 130.200 180.829 L 130.200 124.200 131.160 122.655 C 132.746 120.105,133.167 120.033,146.600 120.018 C 157.367 120.007,158.705 120.077,159.622 120.703 M260.289 120.421 C 263.180 121.429,263.000 117.404,263.000 181.187 C 263.000 237.480,262.990 238.217,262.200 239.560 C 260.802 241.938,259.643 242.139,247.200 242.170 C 235.188 242.199,234.127 242.012,232.948 239.645 C 232.698 239.145,231.928 238.151,231.236 237.437 L 229.978 236.140 230.089 180.739 L 230.200 125.339 231.400 123.844 C 232.060 123.021,233.081 121.820,233.669 121.174 L 234.738 120.000 246.910 120.000 C 254.402 120.000,259.545 120.162,260.289 120.421 M209.054 145.447 C 210.946 146.673,211.851 148.205,212.386 151.085 C 212.673 152.626,213.080 230.706,212.830 236.031 C 212.763 237.459,210.285 240.450,208.447 241.323 C 206.689 242.158,206.090 242.200,196.000 242.193 C 183.511 242.185,182.252 241.878,180.486 238.400 L 179.572 236.600 179.723 192.600 C 179.806 168.400,180.015 148.094,180.188 147.476 C 180.938 144.794,182.538 144.491,196.220 144.441 L 207.440 144.400 209.054 145.447 M116.744 162.300 C 119.044 164.226,119.257 167.474,119.476 203.933 C 119.639 231.093,119.585 235.356,119.077 235.933 C 118.754 236.300,118.106 237.453,117.636 238.496 C 116.083 241.950,112.262 242.693,98.364 242.243 C 90.424 241.986,88.711 241.592,87.993 239.858 C 87.798 239.386,86.993 238.298,86.205 237.440 L 84.771 235.879 84.886 201.040 C 85.013 162.111,84.790 164.992,87.883 162.466 L 89.400 161.227 102.415 161.213 L 115.430 161.200 116.744 162.300 M312.591 162.577 C 315.523 164.453,315.385 162.494,315.393 202.200 L 315.400 236.600 314.200 238.467 C 311.947 241.973,310.941 242.206,298.232 242.165 C 284.116 242.119,283.338 241.846,282.352 236.600 C 281.544 232.297,282.128 164.675,282.985 163.367 C 284.299 161.362,285.218 161.233,298.319 161.216 L 310.438 161.200 312.591 162.577 M162.800 313.053 C 163.790 313.522,165.590 314.190,166.800 314.537 C 170.067 315.474,173.092 318.990,173.856 322.738 C 174.154 324.202,174.571 325.796,174.781 326.279 C 175.558 328.064,173.645 335.724,172.121 336.929 C 171.615 337.330,171.200 337.915,171.200 338.229 C 171.200 338.543,171.034 338.800,170.831 338.800 C 169.214 338.800,169.550 341.776,171.347 343.364 C 172.481 344.366,173.414 345.629,173.755 346.625 C 174.061 347.518,174.722 349.138,175.224 350.225 C 176.569 353.137,176.533 356.815,175.134 359.200 C 174.553 360.190,173.955 361.593,173.803 362.318 C 173.474 363.897,169.658 367.802,168.065 368.191 C 167.479 368.334,166.370 368.880,165.600 369.405 C 163.262 370.998,161.321 371.180,146.529 371.190 C 134.100 371.199,132.382 371.125,131.811 370.554 C 130.895 369.638,131.046 313.748,131.968 312.638 C 132.930 311.480,160.255 311.847,162.800 313.053 M197.357 313.000 C 197.601 313.440,198.568 314.770,199.507 315.955 C 200.446 317.140,201.508 318.727,201.866 319.483 C 202.225 320.238,202.996 321.339,203.581 321.928 C 204.165 322.518,204.952 323.776,205.328 324.725 C 207.403 329.949,210.910 330.589,213.138 326.149 C 213.593 325.241,214.224 324.400,214.539 324.279 C 214.854 324.158,215.440 323.191,215.841 322.130 C 216.242 321.068,217.089 319.660,217.724 319.000 C 218.358 318.340,219.210 317.076,219.617 316.191 C 221.959 311.097,233.570 309.879,234.759 314.602 C 235.563 317.797,235.360 369.769,234.540 370.451 C 233.155 371.603,223.809 371.445,222.613 370.250 L 221.600 369.236 221.600 355.213 L 221.600 341.191 219.900 341.429 C 217.377 341.782,217.423 341.748,216.197 344.171 C 214.885 346.764,214.804 346.839,212.387 347.731 C 208.086 349.317,204.403 347.267,201.846 341.861 C 200.681 339.397,200.367 339.084,199.421 339.447 C 197.730 340.096,197.600 341.271,197.600 355.931 C 197.600 368.426,197.530 369.960,196.940 370.451 C 195.887 371.327,185.864 371.465,184.578 370.622 L 183.600 369.982 183.610 343.291 C 183.620 316.252,183.753 313.514,185.107 312.490 C 186.335 311.560,196.801 311.996,197.357 313.000 M257.491 313.082 C 258.564 314.719,258.811 369.283,257.751 370.454 C 256.802 371.503,246.044 371.587,245.011 370.554 C 244.111 369.654,244.244 313.751,245.149 312.661 C 245.611 312.105,246.574 312.000,251.240 312.000 L 256.782 312.000 257.491 313.082 M146.181 324.647 C 145.553 325.574,145.373 326.650,145.264 330.136 C 145.061 336.570,145.683 337.007,153.600 335.990 C 157.633 335.472,158.376 335.084,159.928 332.682 C 163.059 327.834,159.400 324.450,150.266 323.748 L 146.961 323.494 146.181 324.647 M146.162 348.042 C 145.053 349.266,145.042 356.472,146.146 358.100 C 147.459 360.037,156.468 359.549,159.683 357.367 C 162.842 355.224,163.034 352.693,160.258 349.796 C 157.616 347.039,148.138 345.859,146.162 348.042 " stroke="none" fill="#fafafa" fill-rule="evenodd"></path><path id="path2" d="M131.968 312.638 C 131.046 313.748,130.895 369.638,131.811 370.554 C 132.382 371.125,134.100 371.199,146.529 371.190 C 161.321 371.180,163.262 370.998,165.600 369.405 C 166.370 368.880,167.479 368.334,168.065 368.191 C 169.658 367.802,173.474 363.897,173.803 362.318 C 173.955 361.593,174.553 360.190,175.134 359.200 C 176.533 356.815,176.569 353.137,175.224 350.225 C 174.722 349.138,174.061 347.518,173.755 346.625 C 173.414 345.629,172.481 344.366,171.347 343.364 C 169.550 341.776,169.214 338.800,170.831 338.800 C 171.034 338.800,171.200 338.543,171.200 338.229 C 171.200 337.915,171.615 337.330,172.121 336.929 C 173.645 335.724,175.558 328.064,174.781 326.279 C 174.571 325.796,174.154 324.202,173.856 322.738 C 173.092 318.990,170.067 315.474,166.800 314.537 C 165.590 314.190,163.790 313.522,162.800 313.053 C 160.255 311.847,132.930 311.480,131.968 312.638 M185.107 312.490 C 183.753 313.514,183.620 316.252,183.610 343.291 L 183.600 369.982 184.578 370.622 C 185.864 371.465,195.887 371.327,196.940 370.451 C 197.530 369.960,197.600 368.426,197.600 355.931 C 197.600 341.271,197.730 340.096,199.421 339.447 C 200.367 339.084,200.681 339.397,201.846 341.861 C 204.403 347.267,208.086 349.317,212.387 347.731 C 214.804 346.839,214.885 346.764,216.197 344.171 C 217.423 341.748,217.377 341.782,219.900 341.429 L 221.600 341.191 221.600 355.213 L 221.600 369.236 222.613 370.250 C 223.809 371.445,233.155 371.603,234.540 370.451 C 235.360 369.769,235.563 317.797,234.759 314.602 C 233.570 309.879,221.959 311.097,219.617 316.191 C 219.210 317.076,218.358 318.340,217.724 319.000 C 217.089 319.660,216.242 321.068,215.841 322.130 C 215.440 323.191,214.854 324.158,214.539 324.279 C 214.224 324.400,213.593 325.241,213.138 326.149 C 210.910 330.589,207.403 329.949,205.328 324.725 C 204.952 323.776,204.165 322.518,203.581 321.928 C 202.996 321.339,202.225 320.238,201.866 319.483 C 201.508 318.727,200.446 317.140,199.507 315.955 C 198.568 314.770,197.601 313.440,197.357 313.000 C 196.801 311.996,186.335 311.560,185.107 312.490 M245.149 312.661 C 244.244 313.751,244.111 369.654,245.011 370.554 C 246.044 371.587,256.802 371.503,257.751 370.454 C 258.811 369.283,258.564 314.719,257.491 313.082 L 256.782 312.000 251.240 312.000 C 246.574 312.000,245.611 312.105,245.149 312.661 M155.861 324.599 C 163.889 326.690,162.263 334.878,153.600 335.990 C 145.683 337.007,145.061 336.570,145.264 330.136 C 145.373 326.650,145.553 325.574,146.181 324.647 L 146.961 323.494 150.266 323.748 C 152.083 323.888,154.601 324.271,155.861 324.599 M157.160 347.589 C 159.561 348.277,162.001 351.265,161.994 353.507 C 161.987 355.735,161.917 355.851,159.683 357.367 C 156.468 359.549,147.459 360.037,146.146 358.100 C 145.042 356.472,145.053 349.266,146.162 348.042 C 147.017 347.097,154.387 346.793,157.160 347.589 " stroke="none" fill="#26b4ec" fill-rule="evenodd"></path><path id="path3" d="M142.541 58.341 C 142.068 58.789,141.078 59.412,140.341 59.725 C 136.140 61.510,134.371 65.134,134.400 71.899 L 134.419 76.398 132.230 77.798 C 131.026 78.568,129.896 79.440,129.720 79.735 C 129.544 80.030,128.410 80.906,127.200 81.681 C 125.990 82.457,124.564 83.566,124.030 84.146 C 123.497 84.726,122.856 85.200,122.605 85.200 C 122.355 85.200,121.634 85.739,121.003 86.397 C 120.372 87.056,119.123 87.972,118.228 88.433 C 117.333 88.894,116.150 89.677,115.600 90.171 C 112.406 93.046,109.412 93.984,106.445 93.041 C 102.379 91.749,97.606 92.293,96.505 94.175 C 96.337 94.461,95.448 95.076,94.529 95.541 C 93.585 96.019,92.739 96.781,92.584 97.293 C 92.433 97.792,91.589 99.669,90.707 101.463 L 89.106 104.727 90.222 108.263 C 92.887 116.708,99.076 120.185,107.343 117.882 C 111.431 116.743,115.956 108.605,115.992 102.327 C 115.999 100.960,117.475 99.200,118.615 99.200 C 118.775 99.200,119.480 98.591,120.181 97.847 C 120.883 97.103,122.074 96.183,122.829 95.803 C 123.583 95.422,124.560 94.767,125.000 94.346 C 126.039 93.352,128.728 91.600,129.214 91.600 C 129.423 91.600,129.820 91.225,130.097 90.767 C 130.373 90.308,131.270 89.587,132.089 89.164 C 132.908 88.741,134.238 87.815,135.045 87.107 C 137.409 85.031,138.849 84.640,144.200 84.619 C 148.318 84.603,149.171 84.486,150.200 83.798 C 155.144 80.495,159.586 80.422,162.996 83.587 C 163.438 83.997,164.790 84.775,166.000 85.314 C 167.210 85.854,168.740 86.769,169.400 87.348 C 170.060 87.927,171.434 88.678,172.453 89.017 C 173.472 89.356,174.613 89.972,174.987 90.386 C 175.362 90.800,176.643 91.600,177.834 92.164 C 179.025 92.728,180.003 93.327,180.007 93.495 C 180.115 98.249,180.882 101.388,182.401 103.297 C 183.281 104.401,184.000 105.456,184.000 105.642 C 184.000 105.828,184.495 106.241,185.100 106.561 C 185.705 106.881,186.830 107.733,187.600 108.454 C 192.508 113.050,204.115 108.177,205.621 100.888 C 206.438 96.937,207.571 96.057,212.692 95.397 C 213.843 95.248,215.211 94.792,215.733 94.381 C 216.792 93.548,221.975 92.000,223.705 92.000 C 224.968 92.000,227.639 90.984,228.027 90.356 C 229.420 88.102,242.800 88.355,242.800 90.635 C 242.800 92.640,247.365 93.123,257.600 92.201 C 260.176 91.969,260.220 91.982,262.362 93.624 C 263.551 94.536,265.261 95.602,266.162 95.993 C 267.063 96.384,268.250 97.191,268.800 97.787 C 269.350 98.382,270.359 99.104,271.043 99.391 C 271.726 99.677,272.716 100.367,273.243 100.925 C 273.769 101.482,275.068 102.395,276.128 102.953 C 277.189 103.510,278.680 104.514,279.442 105.183 C 280.204 105.852,281.047 106.406,281.314 106.414 C 283.046 106.466,286.116 111.133,285.968 113.489 C 285.688 117.933,288.942 123.375,292.832 124.967 C 293.619 125.290,294.489 125.825,294.765 126.157 C 295.838 127.450,301.200 127.279,301.200 125.951 C 301.200 125.758,301.391 125.600,301.625 125.600 C 304.408 125.600,307.052 123.199,309.334 118.600 L 311.120 115.000 310.857 111.737 C 310.630 108.930,310.424 108.258,309.386 106.937 C 308.722 106.092,307.965 104.911,307.704 104.314 C 307.416 103.653,306.457 102.837,305.253 102.227 C 304.165 101.675,303.204 101.013,303.118 100.755 C 302.866 99.997,295.108 99.750,294.378 100.476 C 292.720 102.127,290.427 102.009,287.658 100.129 C 286.905 99.618,286.107 99.200,285.886 99.200 C 285.664 99.200,284.617 98.390,283.559 97.400 C 282.500 96.410,281.388 95.600,281.087 95.600 C 280.786 95.600,280.103 95.132,279.570 94.560 C 279.036 93.987,277.385 92.905,275.900 92.154 C 274.415 91.404,273.200 90.614,273.200 90.400 C 273.200 90.186,272.435 89.532,271.500 88.947 C 270.565 88.363,269.155 87.326,268.366 86.642 C 267.577 85.959,266.378 85.102,265.700 84.738 C 263.834 83.736,263.280 82.558,262.268 77.452 L 261.341 72.770 258.989 70.422 C 253.548 64.991,243.853 65.705,240.540 71.780 C 240.186 72.430,239.640 73.217,239.327 73.530 C 239.013 73.844,238.395 74.870,237.953 75.812 C 236.575 78.743,233.499 80.538,228.327 81.428 C 226.401 81.760,223.983 82.513,222.585 83.217 C 221.106 83.962,218.854 84.646,216.772 84.983 C 214.903 85.286,212.299 86.018,210.987 86.610 C 206.956 88.427,203.523 88.466,201.674 86.716 C 200.063 85.190,194.467 83.311,192.719 83.708 C 192.213 83.823,190.460 84.285,188.822 84.733 C 185.216 85.722,180.400 85.088,180.400 83.625 C 180.400 83.128,178.080 81.850,176.144 81.281 C 175.219 81.009,174.210 80.370,173.858 79.833 C 173.512 79.304,172.547 78.648,171.714 78.375 C 170.437 77.956,167.907 76.387,167.200 75.575 C 167.090 75.448,166.218 75.037,165.262 74.660 C 162.609 73.616,159.379 70.205,159.054 68.106 C 158.738 66.059,155.142 60.557,153.868 60.170 C 153.391 60.026,152.379 59.442,151.621 58.873 C 149.674 57.413,143.878 57.073,142.541 58.341 M147.372 58.755 C 147.493 58.950,148.220 59.227,148.990 59.372 C 149.759 59.516,151.156 60.009,152.094 60.467 C 153.032 60.925,154.061 61.426,154.379 61.580 C 154.698 61.735,155.095 62.369,155.260 62.989 C 155.426 63.609,156.015 64.589,156.569 65.167 C 157.122 65.745,157.943 67.369,158.393 68.777 C 159.327 71.703,161.452 74.169,163.708 74.944 C 164.480 75.209,165.851 76.074,166.753 76.865 C 167.656 77.656,169.170 78.499,170.118 78.738 C 171.135 78.994,172.272 79.654,172.888 80.345 C 173.462 80.990,174.971 81.906,176.241 82.381 C 177.511 82.856,178.938 83.664,179.413 84.176 C 181.115 86.013,185.751 86.838,188.600 85.812 C 192.705 84.333,199.178 85.381,201.508 87.902 L 202.816 89.318 206.228 89.077 C 209.000 88.881,210.029 88.614,211.720 87.651 C 212.864 86.999,214.970 86.250,216.400 85.986 C 217.830 85.723,219.919 85.340,221.042 85.137 C 222.370 84.897,223.373 84.435,223.911 83.816 C 224.527 83.108,225.332 82.795,227.069 82.589 C 233.901 81.780,237.960 79.716,238.618 76.717 C 238.760 76.073,239.120 75.452,239.420 75.337 C 239.719 75.222,240.491 74.194,241.135 73.053 C 243.417 69.010,245.023 68.000,249.171 68.000 C 254.178 68.000,256.628 68.620,257.214 70.035 C 257.467 70.644,258.359 71.596,259.198 72.151 C 260.869 73.257,260.889 73.319,261.585 79.712 C 261.833 81.991,262.193 83.451,262.612 83.869 C 263.535 84.792,265.783 86.277,266.695 86.567 C 267.122 86.702,267.699 87.237,267.976 87.756 C 268.262 88.290,269.176 88.928,270.085 89.228 C 271.042 89.544,271.859 90.130,272.110 90.681 C 272.347 91.203,273.504 92.072,274.765 92.677 C 275.994 93.267,277.676 94.346,278.501 95.075 C 279.327 95.804,280.353 96.400,280.781 96.400 C 281.209 96.400,282.047 97.040,282.643 97.821 C 283.240 98.603,284.355 99.505,285.122 99.825 C 285.890 100.146,286.942 100.833,287.462 101.353 C 289.473 103.363,293.826 103.500,295.007 101.589 C 295.586 100.651,301.575 101.448,303.851 102.766 C 304.263 103.005,305.100 103.377,305.710 103.594 C 306.321 103.811,306.915 104.306,307.031 104.694 C 307.147 105.082,307.589 106.120,308.013 107.000 C 310.219 111.578,310.514 114.157,309.060 116.127 C 308.543 116.827,307.868 118.040,307.560 118.823 C 306.411 121.745,305.507 122.427,300.772 123.943 C 299.022 124.503,296.232 124.537,295.295 124.009 C 294.913 123.794,293.834 123.427,292.899 123.193 C 291.523 122.850,291.090 122.511,290.635 121.423 C 290.326 120.683,289.711 119.962,289.268 119.822 C 288.186 119.478,287.200 116.471,287.200 113.516 C 287.200 109.851,285.212 106.406,282.747 105.797 C 282.168 105.654,280.875 104.741,279.874 103.768 C 278.874 102.796,277.787 102.000,277.460 102.000 C 277.133 102.000,275.927 101.199,274.780 100.220 C 273.634 99.241,272.192 98.330,271.577 98.195 C 270.962 98.060,270.162 97.496,269.798 96.941 C 269.435 96.387,268.448 95.624,267.606 95.247 C 266.764 94.870,265.326 93.905,264.410 93.103 C 263.495 92.301,262.083 91.442,261.273 91.195 C 260.463 90.948,259.158 90.406,258.373 89.989 L 256.947 89.231 255.573 90.184 C 254.559 90.888,253.572 91.161,251.800 91.230 C 246.894 91.419,246.027 91.275,244.877 90.076 C 243.297 88.428,239.192 86.412,238.195 86.795 C 237.753 86.965,235.683 87.322,233.595 87.589 C 228.893 88.191,227.491 88.607,226.040 89.828 C 225.142 90.584,223.999 90.914,220.659 91.383 C 217.740 91.792,215.949 92.264,214.910 92.898 C 213.142 93.977,211.273 94.630,208.877 95.007 C 206.400 95.397,205.241 96.566,204.851 99.072 C 204.432 101.764,201.302 105.574,198.843 106.386 C 197.962 106.676,197.158 107.132,197.056 107.398 C 196.574 108.653,190.030 108.321,189.032 106.991 C 188.794 106.674,187.880 106.175,187.000 105.882 C 185.730 105.458,185.225 104.988,184.552 103.606 C 184.085 102.649,183.442 101.670,183.122 101.433 C 182.291 100.815,181.600 98.574,181.600 96.501 C 181.600 93.886,180.594 92.071,178.730 91.325 C 177.876 90.984,176.997 90.368,176.777 89.957 C 176.354 89.166,173.300 87.600,172.182 87.600 C 171.819 87.600,171.044 87.090,170.460 86.466 C 169.877 85.843,168.265 84.824,166.877 84.202 C 165.490 83.579,164.125 82.742,163.844 82.341 C 163.563 81.940,162.580 81.346,161.660 81.021 C 160.740 80.697,159.398 79.981,158.677 79.432 L 157.367 78.433 155.266 79.406 C 151.259 81.263,149.278 81.661,144.264 81.621 C 139.702 81.584,139.501 81.618,138.763 82.556 C 138.342 83.092,137.185 83.923,136.192 84.404 C 135.199 84.885,134.197 85.632,133.965 86.065 C 133.733 86.498,132.791 87.179,131.872 87.578 C 130.952 87.977,129.754 88.786,129.209 89.375 C 128.664 89.964,127.314 90.965,126.209 91.601 C 125.104 92.236,123.980 93.115,123.711 93.554 C 123.443 93.993,122.426 94.705,121.451 95.136 C 120.470 95.570,119.564 96.284,119.421 96.735 C 119.278 97.184,118.572 97.745,117.852 97.983 C 115.175 98.866,114.117 100.564,113.601 104.800 C 112.797 111.410,112.708 111.714,111.339 112.596 C 110.653 113.038,109.782 113.966,109.405 114.658 C 108.561 116.207,107.723 116.400,101.840 116.400 L 97.380 116.400 95.291 114.376 C 92.913 112.071,92.612 111.590,92.231 109.484 C 92.081 108.650,91.602 107.137,91.167 106.122 C 90.378 104.281,90.378 104.275,91.176 103.425 C 91.616 102.957,92.293 101.366,92.680 99.890 C 93.366 97.276,93.436 97.182,95.392 96.250 C 96.496 95.724,97.904 94.823,98.521 94.247 C 100.364 92.525,105.635 92.822,107.040 94.727 C 107.562 95.435,110.116 95.159,111.150 94.283 C 111.507 93.980,112.430 93.485,113.200 93.184 C 113.970 92.883,115.230 92.027,116.000 91.283 C 116.770 90.540,118.022 89.659,118.782 89.326 C 119.542 88.993,120.622 88.216,121.182 87.598 C 121.742 86.981,122.830 86.168,123.600 85.792 C 124.370 85.416,125.418 84.589,125.929 83.954 C 126.440 83.319,127.017 82.800,127.211 82.800 C 127.761 82.800,130.067 81.116,131.469 79.690 C 132.167 78.981,133.012 78.400,133.347 78.400 C 134.745 78.400,135.200 76.804,135.200 71.898 C 135.200 66.900,135.660 64.969,137.094 63.952 C 137.523 63.649,138.097 62.978,138.370 62.463 C 138.874 61.515,142.069 59.833,145.000 58.974 C 147.137 58.347,147.121 58.349,147.372 58.755 M135.200 121.494 C 133.853 122.012,132.031 123.726,131.554 124.924 C 131.155 125.926,131.013 137.872,130.892 180.625 L 130.738 235.050 131.608 236.523 C 132.153 237.447,133.245 238.407,134.539 239.098 L 136.600 240.200 147.029 240.200 C 156.480 240.200,157.524 240.134,158.167 239.491 C 158.557 239.101,159.354 238.533,159.938 238.230 C 160.522 237.926,161.420 237.107,161.934 236.410 L 162.867 235.141 162.642 183.871 C 162.518 155.672,162.278 130.857,162.108 128.726 L 161.800 124.852 159.893 123.026 L 157.986 121.200 146.893 121.232 C 140.792 121.249,135.530 121.367,135.200 121.494 M234.370 122.674 C 233.860 123.513,233.267 124.319,233.054 124.465 C 232.071 125.136,231.912 132.039,231.731 182.079 L 231.539 235.158 233.469 237.533 L 235.400 239.909 238.200 240.192 C 239.740 240.347,244.780 240.402,249.400 240.313 C 259.031 240.129,260.427 239.790,261.427 237.396 C 262.189 235.573,262.296 126.881,261.539 124.353 C 260.637 121.343,260.968 121.415,247.407 121.274 L 235.297 121.148 234.370 122.674 M159.300 124.181 L 161.200 125.930 161.200 180.755 L 161.200 235.580 159.300 236.467 C 155.927 238.042,134.455 237.939,132.526 236.339 C 131.897 235.816,131.744 125.823,132.371 124.833 C 133.637 122.833,135.605 122.511,146.800 122.470 L 157.400 122.432 159.300 124.181 M258.456 123.056 C 259.875 123.520,260.571 123.997,260.831 124.682 C 261.501 126.445,261.307 235.700,260.632 236.624 C 260.092 237.363,259.480 237.400,247.865 237.400 L 235.666 237.400 234.625 236.423 L 233.584 235.445 233.692 180.623 C 233.812 119.627,233.652 123.100,236.364 122.680 C 239.793 122.149,256.555 122.435,258.456 123.056 M183.363 146.431 C 180.569 147.242,180.696 145.194,180.498 192.655 C 180.294 241.257,179.987 237.101,183.930 239.068 L 186.200 240.200 196.694 240.200 L 207.189 240.200 209.194 238.007 L 211.200 235.813 211.185 199.407 C 211.165 151.706,210.892 147.442,207.786 146.250 C 206.777 145.863,184.758 146.026,183.363 146.431 M208.000 148.503 L 209.000 150.200 209.109 192.822 L 209.217 235.444 208.179 236.420 C 206.412 238.080,184.162 238.029,182.151 236.360 C 181.545 235.857,181.349 150.983,181.950 149.453 C 182.793 147.307,184.991 146.912,196.400 146.858 L 207.000 146.807 208.000 148.503 M89.029 163.300 C 86.770 165.303,86.717 166.069,86.503 200.100 C 86.269 237.346,86.081 234.889,89.469 238.753 L 90.738 240.200 101.669 240.200 C 114.051 240.200,114.754 240.061,116.623 237.238 L 117.651 235.684 117.525 200.342 C 117.390 162.168,117.488 163.824,115.303 162.828 C 113.189 161.865,90.182 162.278,89.029 163.300 M286.092 162.690 C 283.242 163.043,283.400 160.806,283.400 200.782 C 283.400 241.471,283.152 238.518,286.659 239.601 C 288.175 240.069,290.904 240.200,299.125 240.200 L 309.651 240.200 311.656 238.097 L 313.662 235.995 313.484 201.497 C 313.294 164.661,313.297 164.701,311.226 163.306 C 309.935 162.436,291.745 161.990,286.092 162.690 M115.681 163.920 C 116.670 164.910,116.637 235.219,115.646 236.443 L 114.871 237.400 102.647 237.400 C 90.458 237.400,90.420 237.397,89.511 236.489 L 88.600 235.577 88.600 200.153 L 88.600 164.729 89.576 163.939 C 90.801 162.947,114.691 162.929,115.681 163.920 M310.739 163.947 L 311.600 164.694 311.600 200.338 L 311.600 235.982 310.543 236.674 C 309.284 237.499,298.208 237.893,289.842 237.410 C 284.902 237.125,284.862 237.115,284.410 236.025 C 283.873 234.727,283.998 165.441,284.541 164.321 C 284.973 163.429,286.010 163.354,299.039 163.270 C 309.104 163.205,309.939 163.253,310.739 163.947 " stroke="none" fill="#ef707c" fill-rule="evenodd"></path><path id="path4" d="M143.255 56.288 C 141.954 56.535,137.276 59.785,135.726 61.519 C 134.164 63.265,133.047 67.200,133.147 70.600 C 133.278 75.057,132.936 76.293,131.439 76.787 C 130.713 77.027,129.317 77.991,128.337 78.931 C 127.356 79.871,126.002 80.868,125.329 81.147 C 124.655 81.426,123.915 82.069,123.684 82.576 C 123.453 83.083,122.467 83.883,121.493 84.355 C 120.520 84.826,119.535 85.625,119.305 86.130 C 119.048 86.694,118.271 87.232,117.288 87.526 C 116.407 87.790,114.963 88.731,114.075 89.619 C 112.225 91.469,109.331 92.224,106.554 91.580 C 102.165 90.561,97.323 91.327,95.231 93.370 C 94.425 94.156,93.580 94.800,93.353 94.800 C 92.689 94.800,91.282 96.508,90.996 97.662 C 90.851 98.246,90.305 99.125,89.783 99.616 C 87.805 101.474,87.628 108.991,89.502 111.571 C 89.913 112.137,90.838 113.638,91.558 114.907 C 92.833 117.154,94.375 118.400,95.881 118.400 C 96.278 118.400,97.100 118.927,97.708 119.571 C 100.040 122.042,105.522 122.082,107.600 119.642 C 108.150 118.997,109.140 118.351,109.800 118.208 C 111.139 117.919,114.800 113.635,114.800 112.358 C 114.800 111.956,115.375 110.973,116.077 110.174 C 117.420 108.644,117.912 106.667,117.971 102.563 C 118.000 100.532,118.004 100.525,119.646 100.033 C 120.877 99.665,121.403 99.245,121.734 98.370 C 122.008 97.644,122.463 97.200,122.934 97.200 C 124.076 97.200,127.552 95.182,127.810 94.368 C 127.935 93.976,128.793 93.408,129.718 93.107 C 130.928 92.712,131.568 92.208,132.000 91.310 C 132.421 90.434,132.969 89.991,133.836 89.825 C 134.516 89.694,136.033 88.871,137.208 87.994 L 139.344 86.400 145.092 86.400 C 151.422 86.400,152.911 86.007,153.359 84.220 C 153.864 82.208,158.769 82.258,160.923 84.296 C 161.625 84.961,162.920 85.729,163.800 86.002 C 164.680 86.276,165.970 87.091,166.666 87.814 C 167.585 88.769,168.526 89.253,170.107 89.581 C 171.731 89.918,172.413 90.277,172.799 90.998 C 173.377 92.078,175.354 93.145,177.389 93.476 C 178.917 93.724,179.011 93.946,179.386 98.200 C 179.849 103.456,179.798 103.344,183.420 107.032 C 187.321 111.004,188.649 111.600,193.591 111.600 C 200.370 111.600,206.800 106.827,206.800 101.795 C 206.800 100.827,207.137 100.082,207.956 99.245 C 208.592 98.594,209.181 97.858,209.263 97.610 C 209.448 97.055,212.042 96.423,214.200 96.407 C 217.111 96.386,219.613 95.362,220.064 94.007 C 220.139 93.783,222.026 93.426,224.258 93.213 C 228.591 92.801,231.303 91.960,232.135 90.771 C 233.392 88.977,239.672 89.284,240.330 91.172 C 241.096 93.367,242.208 93.600,251.941 93.600 L 260.722 93.600 261.127 94.762 C 261.360 95.432,261.928 96.039,262.466 96.194 C 264.378 96.746,265.833 97.579,266.983 98.781 C 267.736 99.568,268.724 100.106,269.700 100.262 C 270.950 100.462,271.335 100.749,271.778 101.810 C 272.182 102.775,272.721 103.237,273.861 103.594 C 274.708 103.859,275.760 104.474,276.200 104.960 C 277.297 106.172,279.154 107.292,280.533 107.574 C 281.913 107.856,283.199 110.724,283.200 113.518 C 283.200 114.795,283.445 115.481,284.153 116.190 C 284.678 116.714,285.317 118.018,285.573 119.089 C 286.124 121.384,289.166 124.998,290.902 125.420 C 291.620 125.594,292.227 126.157,292.643 127.033 C 294.003 129.901,304.800 129.174,304.800 126.214 C 304.800 125.975,305.561 125.424,306.491 124.990 C 307.721 124.415,308.456 123.692,309.191 122.333 C 309.746 121.306,310.514 120.034,310.899 119.505 C 312.700 117.028,312.544 107.933,310.668 106.104 C 310.045 105.497,309.138 104.370,308.653 103.600 C 308.167 102.830,307.253 101.951,306.620 101.647 C 305.988 101.343,305.090 100.651,304.624 100.110 C 302.917 98.126,294.453 97.814,292.600 99.667 C 292.277 99.990,288.779 99.078,287.320 98.291 C 286.616 97.911,285.803 97.600,285.515 97.600 C 285.226 97.600,284.812 97.196,284.595 96.702 C 284.378 96.208,283.448 95.443,282.528 95.002 C 281.608 94.561,280.488 93.728,280.039 93.151 C 279.590 92.574,278.237 91.702,277.032 91.213 C 275.828 90.724,274.549 89.876,274.190 89.329 C 273.831 88.781,272.898 88.066,272.116 87.739 C 271.334 87.413,270.132 86.573,269.443 85.873 C 268.755 85.173,267.634 84.308,266.952 83.951 C 266.215 83.565,265.601 82.860,265.438 82.211 C 265.288 81.611,264.829 80.643,264.418 80.060 C 264.008 79.477,263.556 78.100,263.416 77.000 C 262.854 72.617,262.770 72.431,260.052 69.615 C 255.714 65.120,245.447 64.177,241.783 67.938 C 239.558 70.222,237.230 73.603,236.811 75.161 C 236.390 76.723,234.930 78.000,233.564 78.000 C 233.303 78.000,232.259 78.510,231.244 79.134 C 229.866 79.982,228.505 80.384,225.854 80.726 C 223.448 81.036,221.719 81.512,220.476 82.207 C 218.475 83.325,216.679 83.861,213.000 84.437 C 210.192 84.877,209.547 85.056,207.400 85.995 C 204.464 87.278,203.643 87.332,203.160 86.273 C 202.573 84.983,195.471 81.601,193.345 81.598 C 192.353 81.597,190.754 82.126,188.881 83.076 C 185.458 84.811,183.254 84.613,181.119 82.378 C 180.483 81.712,179.196 80.982,178.182 80.711 C 177.189 80.445,175.569 79.560,174.582 78.744 C 173.594 77.928,172.241 77.141,171.574 76.994 C 170.907 76.848,170.145 76.364,169.881 75.918 C 169.616 75.473,168.232 74.562,166.803 73.893 C 165.375 73.225,163.714 72.210,163.111 71.639 C 162.508 71.068,161.561 70.201,161.007 69.714 C 160.290 69.084,160.000 68.424,160.000 67.422 C 160.000 65.842,158.910 62.800,158.343 62.800 C 158.140 62.800,157.613 62.189,157.172 61.443 C 156.732 60.696,155.841 59.866,155.194 59.597 C 154.546 59.329,153.398 58.527,152.642 57.814 C 150.923 56.192,147.066 55.565,143.255 56.288 M151.621 58.873 C 152.379 59.442,153.391 60.026,153.868 60.170 C 155.142 60.557,158.738 66.059,159.054 68.106 C 159.379 70.205,162.609 73.616,165.262 74.660 C 166.218 75.037,167.090 75.448,167.200 75.575 C 167.907 76.387,170.437 77.956,171.714 78.375 C 172.547 78.648,173.512 79.304,173.858 79.833 C 174.210 80.370,175.219 81.009,176.144 81.281 C 178.080 81.850,180.400 83.128,180.400 83.625 C 180.400 85.088,185.216 85.722,188.822 84.733 C 190.460 84.285,192.213 83.823,192.719 83.708 C 194.467 83.311,200.063 85.190,201.674 86.716 C 203.523 88.466,206.956 88.427,210.987 86.610 C 212.299 86.018,214.903 85.286,216.772 84.983 C 218.854 84.646,221.106 83.962,222.585 83.217 C 223.983 82.513,226.401 81.760,228.327 81.428 C 233.499 80.538,236.575 78.743,237.953 75.812 C 238.395 74.870,239.013 73.844,239.327 73.530 C 239.640 73.217,240.186 72.430,240.540 71.780 C 243.853 65.705,253.548 64.991,258.989 70.422 L 261.341 72.770 262.268 77.452 C 263.280 82.558,263.834 83.736,265.700 84.738 C 266.378 85.102,267.577 85.959,268.366 86.642 C 269.155 87.326,270.565 88.363,271.500 88.947 C 272.435 89.532,273.200 90.186,273.200 90.400 C 273.200 90.614,274.415 91.404,275.900 92.154 C 277.385 92.905,279.036 93.987,279.570 94.560 C 280.103 95.132,280.786 95.600,281.087 95.600 C 281.388 95.600,282.500 96.410,283.559 97.400 C 284.617 98.390,285.664 99.200,285.886 99.200 C 286.107 99.200,286.905 99.618,287.658 100.129 C 290.427 102.009,292.720 102.127,294.378 100.476 C 295.108 99.750,302.866 99.997,303.118 100.755 C 303.204 101.013,304.165 101.675,305.253 102.227 C 306.457 102.837,307.416 103.653,307.704 104.314 C 307.965 104.911,308.722 106.092,309.386 106.937 C 310.424 108.258,310.630 108.930,310.857 111.737 L 311.120 115.000 309.334 118.600 C 307.052 123.199,304.408 125.600,301.625 125.600 C 301.391 125.600,301.200 125.758,301.200 125.951 C 301.200 127.279,295.838 127.450,294.765 126.157 C 294.489 125.825,293.619 125.290,292.832 124.967 C 288.942 123.375,285.688 117.933,285.968 113.489 C 286.116 111.133,283.046 106.466,281.314 106.414 C 281.047 106.406,280.204 105.852,279.442 105.183 C 278.680 104.514,277.189 103.510,276.128 102.953 C 275.068 102.395,273.769 101.482,273.243 100.925 C 272.716 100.367,271.726 99.677,271.043 99.391 C 270.359 99.104,269.350 98.382,268.800 97.787 C 268.250 97.191,267.063 96.384,266.162 95.993 C 265.261 95.602,263.551 94.536,262.362 93.624 C 260.220 91.982,260.176 91.969,257.600 92.201 C 247.365 93.123,242.800 92.640,242.800 90.635 C 242.800 88.355,229.420 88.102,228.027 90.356 C 227.639 90.984,224.968 92.000,223.705 92.000 C 221.975 92.000,216.792 93.548,215.733 94.381 C 215.211 94.792,213.843 95.248,212.692 95.397 C 207.571 96.057,206.438 96.937,205.621 100.888 C 204.115 108.177,192.508 113.050,187.600 108.454 C 186.830 107.733,185.705 106.881,185.100 106.561 C 184.495 106.241,184.000 105.828,184.000 105.642 C 184.000 105.456,183.281 104.401,182.401 103.297 C 180.882 101.388,180.115 98.249,180.007 93.495 C 180.003 93.327,179.025 92.728,177.834 92.164 C 176.643 91.600,175.362 90.800,174.987 90.386 C 174.613 89.972,173.472 89.356,172.453 89.017 C 171.434 88.678,170.060 87.927,169.400 87.348 C 168.740 86.769,167.210 85.854,166.000 85.314 C 164.790 84.775,163.438 83.997,162.996 83.587 C 159.586 80.422,155.144 80.495,150.200 83.798 C 149.171 84.486,148.318 84.603,144.200 84.619 C 138.849 84.640,137.409 85.031,135.045 87.107 C 134.238 87.815,132.908 88.741,132.089 89.164 C 131.270 89.587,130.373 90.308,130.097 90.767 C 129.820 91.225,129.423 91.600,129.214 91.600 C 128.728 91.600,126.039 93.352,125.000 94.346 C 124.560 94.767,123.583 95.422,122.829 95.803 C 122.074 96.183,120.883 97.103,120.181 97.847 C 119.480 98.591,118.775 99.200,118.615 99.200 C 117.475 99.200,115.999 100.960,115.992 102.327 C 115.956 108.605,111.431 116.743,107.343 117.882 C 99.076 120.185,92.887 116.708,90.222 108.263 L 89.106 104.727 90.707 101.463 C 91.589 99.669,92.433 97.792,92.584 97.293 C 92.739 96.781,93.585 96.019,94.529 95.541 C 95.448 95.076,96.337 94.461,96.505 94.175 C 97.606 92.293,102.379 91.749,106.445 93.041 C 109.412 93.984,112.406 93.046,115.600 90.171 C 116.150 89.677,117.333 88.894,118.228 88.433 C 119.123 87.972,120.372 87.056,121.003 86.397 C 121.634 85.739,122.355 85.200,122.605 85.200 C 122.856 85.200,123.497 84.726,124.030 84.146 C 124.564 83.566,125.990 82.457,127.200 81.681 C 128.410 80.906,129.544 80.030,129.720 79.735 C 129.896 79.440,131.026 78.568,132.230 77.798 L 134.419 76.398 134.400 71.899 C 134.371 65.134,136.140 61.510,140.341 59.725 C 141.078 59.412,142.068 58.789,142.541 58.341 C 143.878 57.073,149.674 57.413,151.621 58.873 M133.360 120.571 C 132.678 120.868,131.688 121.806,131.160 122.655 L 130.200 124.200 130.200 180.829 L 130.200 237.458 131.241 239.029 C 133.086 241.814,135.063 242.204,147.200 242.177 C 158.685 242.151,158.818 242.123,161.800 239.064 L 163.400 237.423 163.515 182.011 C 163.578 151.535,163.529 126.038,163.406 125.350 C 163.178 124.073,161.449 121.950,159.622 120.703 C 158.263 119.776,135.450 119.661,133.360 120.571 M233.669 121.174 C 233.081 121.820,232.060 123.021,231.400 123.844 L 230.200 125.339 230.089 180.739 L 229.978 236.140 231.236 237.437 C 231.928 238.151,232.698 239.145,232.948 239.645 C 234.127 242.012,235.188 242.199,247.200 242.170 C 259.643 242.139,260.802 241.938,262.200 239.560 C 263.417 237.491,263.464 125.202,262.249 122.508 C 261.149 120.069,260.725 120.000,246.910 120.000 L 234.738 120.000 233.669 121.174 M159.893 123.026 L 161.800 124.852 162.108 128.726 C 162.278 130.857,162.518 155.672,162.642 183.871 L 162.867 235.141 161.934 236.410 C 161.420 237.107,160.522 237.926,159.938 238.230 C 159.354 238.533,158.557 239.101,158.167 239.491 C 157.524 240.134,156.480 240.200,147.029 240.200 L 136.600 240.200 134.539 239.098 C 133.245 238.407,132.153 237.447,131.608 236.523 L 130.738 235.050 130.892 180.625 C 131.059 121.522,130.934 124.503,133.331 122.686 C 135.238 121.241,135.009 121.265,146.893 121.232 L 157.986 121.200 159.893 123.026 M260.297 122.106 C 262.005 123.654,262.000 123.470,262.000 180.959 C 262.000 242.146,262.182 238.164,259.327 239.459 C 257.610 240.239,243.512 240.727,238.200 240.192 L 235.400 239.909 233.469 237.533 L 231.539 235.158 231.731 182.079 C 231.912 132.039,232.071 125.136,233.054 124.465 C 233.267 124.319,233.860 123.513,234.370 122.674 L 235.297 121.148 247.407 121.274 C 258.314 121.387,259.595 121.470,260.297 122.106 M183.710 144.788 C 179.603 145.764,179.895 142.255,179.723 192.600 L 179.572 236.600 180.486 238.400 C 182.252 241.878,183.511 242.185,196.000 242.193 C 206.090 242.200,206.689 242.158,208.447 241.323 C 210.285 240.450,212.763 237.459,212.830 236.031 C 213.080 230.706,212.673 152.626,212.386 151.085 C 211.851 148.205,210.946 146.673,209.054 145.447 L 207.440 144.400 196.220 144.441 C 190.049 144.463,184.420 144.620,183.710 144.788 M207.786 146.250 C 210.892 147.442,211.165 151.706,211.185 199.407 L 211.200 235.813 209.194 238.007 L 207.189 240.200 196.694 240.200 L 186.200 240.200 183.930 239.068 C 179.987 237.101,180.294 241.257,180.498 192.655 C 180.696 145.194,180.569 147.242,183.363 146.431 C 184.758 146.026,206.777 145.863,207.786 146.250 M87.883 162.466 C 84.790 164.992,85.013 162.111,84.886 201.040 L 84.771 235.879 86.205 237.440 C 86.993 238.298,87.798 239.386,87.993 239.858 C 88.711 241.592,90.424 241.986,98.364 242.243 C 112.262 242.693,116.083 241.950,117.636 238.496 C 118.106 237.453,118.754 236.300,119.077 235.933 C 119.585 235.356,119.639 231.093,119.476 203.933 C 119.257 167.474,119.044 164.226,116.744 162.300 L 115.430 161.200 102.415 161.213 L 89.400 161.227 87.883 162.466 M284.930 161.784 C 282.152 162.992,282.331 160.614,282.105 199.299 C 281.893 235.517,281.976 237.884,283.519 239.966 C 284.948 241.893,286.509 242.127,298.232 242.165 C 310.941 242.206,311.947 241.973,314.200 238.467 L 315.400 236.600 315.393 202.200 C 315.385 162.494,315.523 164.453,312.591 162.577 L 310.438 161.200 298.319 161.216 C 288.919 161.228,285.915 161.355,284.930 161.784 M115.303 162.828 C 117.488 163.824,117.390 162.168,117.525 200.342 L 117.651 235.684 116.623 237.238 C 114.754 240.061,114.051 240.200,101.669 240.200 L 90.738 240.200 89.469 238.753 C 86.081 234.889,86.269 237.346,86.503 200.100 C 86.717 166.069,86.770 165.303,89.029 163.300 C 90.182 162.278,113.189 161.865,115.303 162.828 M311.226 163.306 C 313.297 164.701,313.294 164.661,313.484 201.497 L 313.662 235.995 311.656 238.097 L 309.651 240.200 299.125 240.200 C 287.120 240.200,285.209 239.896,284.059 237.801 C 283.021 235.909,283.053 165.494,284.092 163.908 C 284.982 162.550,285.070 162.541,298.641 162.464 C 309.708 162.401,309.902 162.414,311.226 163.306 " stroke="none" fill="#fc7c8c" fill-rule="evenodd"></path></g></svg>