<svg id="svg" version="1.1" xmlns="http://www.w3.org/2000/svg" xmlns:xlink="http://www.w3.org/1999/xlink" width="400" height="296.8553459119497" viewBox="0, 0, 400,296.8553459119497"><g id="svgg"><path id="path0" d="M184.519 28.519 C 183.844 28.653,182.964 29.090,182.563 29.490 C 182.163 29.891,181.052 30.447,180.096 30.725 C 178.894 31.074,178.071 31.542,177.432 32.240 C 176.923 32.796,176.080 33.399,175.558 33.581 C 174.962 33.788,174.610 34.111,174.610 34.450 C 174.610 34.979,173.045 36.526,172.509 36.526 C 172.358 36.526,172.235 36.709,172.235 36.933 C 172.235 37.714,170.957 40.223,170.294 40.744 C 169.303 41.524,168.948 44.005,168.702 51.868 C 168.406 61.372,169.403 60.643,156.347 60.901 C 147.331 61.078,144.321 61.367,144.321 62.054 C 144.321 62.376,141.278 63.846,140.610 63.846 C 140.346 63.846,139.770 64.221,139.330 64.680 C 138.890 65.139,138.156 65.748,137.700 66.032 C 137.243 66.317,136.736 66.843,136.572 67.202 C 136.408 67.561,135.846 68.135,135.323 68.477 C 134.645 68.921,134.270 69.479,134.019 70.419 C 133.825 71.144,133.326 72.105,132.911 72.553 C 130.912 74.710,130.896 75.194,131.033 128.137 C 131.160 177.131,131.110 175.657,132.746 178.034 C 133.213 178.714,133.684 179.619,133.791 180.045 C 134.324 182.170,141.443 188.789,143.265 188.854 C 143.420 188.860,144.023 189.194,144.605 189.598 C 147.049 191.292,144.976 191.240,210.245 191.239 C 275.318 191.239,272.756 191.302,275.693 189.629 C 276.363 189.247,277.246 188.855,277.654 188.757 C 278.062 188.659,279.065 188.049,279.881 187.401 C 280.698 186.752,281.806 185.996,282.344 185.721 C 282.882 185.446,283.535 184.804,283.795 184.296 C 284.055 183.787,284.710 182.877,285.251 182.274 C 285.792 181.670,286.378 180.642,286.554 179.988 C 286.730 179.334,287.184 178.555,287.563 178.257 C 289.499 176.734,289.587 174.170,289.443 123.385 C 289.307 75.344,289.213 72.457,287.795 72.457 C 287.470 72.457,286.266 70.254,286.266 69.660 C 286.266 69.391,285.799 68.896,285.229 68.559 C 284.659 68.223,284.023 67.594,283.816 67.161 C 283.609 66.729,283.079 66.202,282.639 65.991 C 282.198 65.780,281.556 65.211,281.210 64.727 C 280.865 64.242,280.363 63.846,280.094 63.846 C 279.209 63.846,276.926 62.871,276.151 62.161 C 275.124 61.222,271.624 60.894,262.509 60.882 C 251.439 60.867,252.036 61.341,251.778 52.367 C 251.551 44.472,251.163 41.595,250.191 40.614 C 249.421 39.837,248.255 37.653,248.255 36.987 C 248.255 36.738,247.811 36.348,247.267 36.121 C 246.658 35.866,246.135 35.360,245.903 34.800 C 245.677 34.254,245.191 33.774,244.686 33.598 C 244.018 33.366,243.310 32.616,242.756 31.555 C 242.736 31.516,241.793 31.150,240.662 30.743 C 239.530 30.335,238.402 29.756,238.154 29.456 C 237.169 28.263,235.944 28.209,210.336 28.243 C 196.812 28.261,185.194 28.385,184.519 28.519 M232.071 39.492 C 235.103 40.004,235.728 40.295,237.529 42.033 C 238.507 42.977,239.391 44.095,239.494 44.518 C 239.597 44.940,240.100 45.812,240.611 46.454 C 242.274 48.543,242.507 58.550,240.927 60.035 L 240.190 60.728 211.929 60.819 C 181.286 60.919,180.351 60.891,179.126 59.837 L 178.322 59.145 178.376 54.393 C 178.431 49.564,178.815 47.423,179.825 46.306 C 180.056 46.050,180.401 45.382,180.591 44.821 C 181.407 42.412,185.074 39.878,188.419 39.412 C 190.147 39.170,230.607 39.245,232.071 39.492 M221.965 85.260 C 223.550 86.195,223.532 86.075,223.770 97.105 C 223.962 106.036,224.060 107.512,224.531 108.612 L 225.072 109.874 235.572 109.874 L 246.073 109.874 246.793 110.640 L 247.513 111.406 247.595 125.948 L 247.678 140.490 246.802 141.366 L 245.925 142.242 235.541 142.242 L 225.157 142.242 224.633 143.504 C 224.177 144.602,224.092 146.081,223.979 154.863 C 223.801 168.681,225.115 167.483,210.140 167.483 L 199.617 167.483 198.695 166.622 L 197.773 165.760 197.736 157.193 C 197.686 145.519,197.621 144.948,196.189 143.440 L 195.050 142.242 184.816 142.242 L 174.582 142.242 173.854 141.456 L 173.125 140.671 173.127 126.237 C 173.128 112.372,173.151 111.766,173.716 110.839 L 174.305 109.874 184.735 109.874 L 195.166 109.874 196.469 108.552 L 197.773 107.229 197.773 97.099 C 197.773 86.801,197.818 86.334,198.928 85.170 C 199.754 84.302,220.480 84.384,221.965 85.260 " stroke="none" fill="#fb0616" fill-rule="evenodd"></path><path id="path1" d="M0.000 148.478 L 0.000 296.956 200.000 296.956 L 400.000 296.956 400.000 148.478 L 400.000 0.000 200.000 0.000 L 0.000 0.000 0.000 148.478 M232.990 26.427 C 233.152 26.589,234.415 26.864,235.796 27.036 C 238.793 27.411,240.728 28.057,241.137 28.820 C 241.301 29.127,241.983 29.542,242.653 29.743 C 243.472 29.988,244.079 30.427,244.504 31.081 C 244.852 31.617,245.477 32.197,245.892 32.371 C 246.307 32.544,246.890 33.137,247.187 33.689 C 247.484 34.240,247.978 34.757,248.286 34.838 C 248.593 34.918,249.079 35.422,249.366 35.956 C 249.654 36.491,250.321 37.375,250.850 37.921 C 251.378 38.466,251.873 39.211,251.949 39.575 C 252.026 39.939,252.233 40.969,252.410 41.864 C 252.587 42.758,252.976 43.760,253.274 44.091 C 254.263 45.189,254.491 46.590,254.491 51.556 C 254.491 59.213,253.846 58.724,264.439 59.090 C 273.603 59.406,277.001 59.908,278.423 61.156 C 278.976 61.642,279.955 62.181,280.598 62.354 C 281.242 62.527,282.078 63.034,282.458 63.480 C 282.837 63.926,283.521 64.532,283.978 64.826 C 284.434 65.121,284.962 65.699,285.149 66.111 C 285.337 66.523,285.863 67.053,286.319 67.288 C 286.799 67.536,287.227 68.059,287.336 68.528 C 287.440 68.974,287.982 69.740,288.542 70.230 C 289.434 71.012,289.619 71.431,290.045 73.645 C 290.313 75.033,290.634 76.240,290.759 76.326 C 292.250 77.351,292.191 75.349,292.198 125.336 C 292.205 174.285,292.222 173.660,290.897 174.985 C 290.676 175.206,290.397 176.248,290.279 177.300 C 290.146 178.475,289.684 180.015,289.081 181.292 C 288.541 182.435,287.698 184.267,287.206 185.363 C 286.384 187.199,283.120 192.129,282.725 192.132 C 282.631 192.133,282.151 192.500,281.658 192.949 C 278.713 195.628,275.008 197.402,270.527 198.277 C 267.643 198.841,168.545 199.185,156.496 198.674 C 146.676 198.257,140.030 195.710,136.842 191.144 C 136.479 190.625,136.109 190.134,136.017 190.052 C 135.602 189.679,134.263 187.317,133.239 185.152 C 132.622 183.846,131.924 182.442,131.690 182.034 C 130.524 180.007,130.093 178.727,129.897 176.705 C 129.778 175.490,129.445 174.087,129.155 173.587 C 127.969 171.544,127.950 170.727,128.061 124.722 C 128.174 78.281,128.141 79.409,129.450 76.502 C 129.753 75.829,130.098 74.677,130.217 73.942 C 130.478 72.331,131.097 71.051,132.040 70.170 C 132.425 69.810,132.739 69.254,132.739 68.934 C 132.739 68.614,133.174 67.987,133.704 67.541 C 134.235 67.094,134.887 66.370,135.154 65.932 C 135.421 65.493,136.022 64.975,136.490 64.781 C 136.959 64.586,137.552 64.062,137.808 63.617 C 138.125 63.065,138.709 62.680,139.635 62.411 C 140.384 62.193,141.296 61.696,141.663 61.306 C 142.993 59.890,146.204 59.409,156.347 59.106 C 166.294 58.810,165.523 59.397,165.828 51.876 C 166.032 46.862,166.380 44.893,167.148 44.419 C 167.295 44.328,167.504 43.750,167.613 43.136 C 167.978 41.059,168.668 39.351,169.562 38.307 C 170.051 37.736,170.452 37.095,170.452 36.883 C 170.453 36.512,172.064 34.631,173.825 32.946 C 174.291 32.499,174.932 31.886,175.249 31.583 C 175.566 31.280,176.021 30.819,176.261 30.558 C 176.500 30.298,177.262 29.915,177.954 29.708 C 178.646 29.500,179.644 28.952,180.171 28.488 C 180.699 28.025,181.568 27.577,182.102 27.493 C 182.636 27.409,184.042 27.190,185.226 27.006 C 186.411 26.823,187.379 26.551,187.379 26.402 C 187.379 26.019,232.607 26.044,232.990 26.427 M191.222 46.915 C 185.574 47.243,182.202 49.326,181.601 52.858 C 180.471 59.502,178.382 59.050,210.245 59.055 C 240.886 59.060,239.327 59.299,238.937 54.654 C 238.506 49.517,236.646 47.853,230.438 47.046 C 227.099 46.613,198.085 46.515,191.222 46.915 M203.457 92.071 C 202.153 92.306,200.875 92.810,199.852 93.492 C 199.770 93.546,199.637 97.244,199.555 101.711 C 199.390 110.721,199.286 111.178,197.284 111.753 C 196.585 111.953,196.304 112.300,195.887 113.474 C 195.003 115.964,191.605 117.197,186.445 116.902 C 181.353 116.611,175.565 117.443,174.850 118.569 C 174.650 118.883,174.488 140.097,174.684 140.203 C 174.725 140.225,179.837 140.331,186.043 140.439 C 194.059 140.577,197.518 140.739,197.985 140.997 C 199.093 141.609,199.266 143.153,199.489 154.415 L 199.703 165.251 200.594 165.441 C 201.755 165.689,218.735 165.689,219.896 165.441 L 220.787 165.251 220.986 156.196 C 221.096 151.216,221.311 146.057,221.465 144.730 C 221.958 140.471,221.409 140.650,234.595 140.462 C 240.393 140.379,245.304 140.204,245.509 140.072 C 245.908 139.813,246.066 122.602,245.694 119.884 C 245.383 117.616,244.100 117.235,235.932 116.983 C 227.236 116.715,225.454 116.181,224.338 113.510 C 224.113 112.972,223.255 111.875,222.432 111.073 L 220.935 109.615 220.914 103.880 C 220.876 93.589,220.745 93.056,218.074 92.377 C 216.386 91.948,205.414 91.718,203.457 92.071 M229.102 213.237 C 232.376 213.607,233.617 213.981,234.012 214.718 C 234.178 215.029,235.045 215.629,235.939 216.052 C 236.833 216.475,237.565 216.982,237.565 217.179 C 237.565 217.376,237.967 217.889,238.458 218.321 C 238.950 218.752,239.434 219.515,239.534 220.016 C 239.634 220.517,240.028 221.239,240.409 221.620 C 241.659 222.870,242.251 226.816,241.422 228.366 C 240.437 230.206,231.499 230.004,230.559 228.120 C 230.375 227.749,229.938 227.142,229.588 226.770 C 229.239 226.398,228.953 225.923,228.953 225.715 C 228.953 225.188,227.775 224.267,226.821 224.049 C 226.383 223.949,225.865 223.675,225.671 223.440 C 225.254 222.939,222.849 222.858,222.553 223.336 C 222.444 223.512,221.752 223.916,221.015 224.231 C 218.821 225.172,220.150 227.920,223.163 228.672 C 224.689 229.053,226.281 229.767,226.281 230.071 C 226.281 230.326,227.786 230.772,230.494 231.319 C 231.423 231.507,232.492 231.902,232.870 232.197 C 233.247 232.492,234.303 233.074,235.215 233.490 C 237.002 234.305,239.644 236.612,239.644 237.358 C 239.644 237.610,240.044 238.216,240.532 238.705 C 242.139 240.311,242.728 246.245,241.499 248.441 C 240.290 250.602,238.720 252.680,238.163 252.857 C 237.834 252.961,237.565 253.178,237.565 253.338 C 237.565 253.813,236.037 255.085,235.466 255.085 C 235.175 255.085,234.537 255.423,234.047 255.835 C 231.577 257.913,218.929 258.225,216.481 256.268 C 216.073 255.942,215.067 255.362,214.246 254.980 C 212.873 254.342,210.094 251.687,208.848 249.825 C 208.568 249.405,208.348 248.073,208.242 246.146 C 207.961 241.044,208.462 240.631,214.601 240.902 C 218.638 241.080,219.224 241.426,219.745 243.938 C 220.062 245.464,220.083 245.486,221.614 245.960 C 225.896 247.285,229.814 246.645,229.374 244.692 C 228.992 243.001,228.530 242.472,227.133 242.126 C 225.745 241.783,224.202 240.947,224.202 240.539 C 224.202 240.416,223.367 240.157,222.346 239.963 C 219.623 239.447,218.532 239.049,217.776 238.293 C 217.405 237.922,216.661 237.523,216.123 237.407 C 214.701 237.101,213.512 236.427,213.512 235.928 C 213.512 235.689,212.971 235.152,212.309 234.735 C 211.648 234.318,211.032 233.748,210.939 233.469 C 210.847 233.190,210.304 232.549,209.734 232.044 C 207.777 230.314,207.673 222.197,209.577 219.826 C 210.026 219.267,210.669 218.319,211.005 217.719 C 211.421 216.978,212.087 216.406,213.084 215.932 C 213.891 215.548,214.657 215.048,214.786 214.822 C 215.344 213.846,222.661 212.452,225.390 212.801 C 225.961 212.875,227.632 213.070,229.102 213.237 M67.706 213.793 C 68.114 214.013,68.822 214.504,69.278 214.884 C 69.735 215.264,70.635 215.732,71.278 215.925 C 72.696 216.350,73.087 216.783,73.789 218.708 C 74.087 219.525,74.523 220.307,74.758 220.446 C 76.692 221.592,76.422 229.462,74.377 231.537 C 73.583 232.343,72.305 235.486,72.772 235.486 C 72.899 235.486,73.308 235.987,73.682 236.600 C 74.055 237.212,74.590 237.881,74.871 238.086 C 76.790 239.485,76.689 249.642,74.744 250.839 C 74.532 250.970,74.000 251.696,73.563 252.453 C 72.747 253.867,71.369 254.821,69.571 255.216 C 69.058 255.328,68.479 255.612,68.285 255.846 C 67.333 256.993,65.188 257.261,55.925 257.389 C 46.023 257.526,44.202 257.342,43.024 256.088 L 42.316 255.335 42.316 235.023 L 42.316 214.711 43.058 214.185 C 44.502 213.162,65.907 212.821,67.706 213.793 M89.930 213.539 C 90.631 213.784,90.940 214.132,91.180 214.950 C 91.552 216.218,91.459 255.243,91.082 255.992 C 90.311 257.524,82.809 258.215,81.113 256.910 C 79.978 256.038,79.908 254.741,79.894 234.540 C 79.881 214.624,79.917 214.013,81.139 213.522 C 82.095 213.138,88.816 213.151,89.930 213.539 M191.077 213.635 C 192.809 214.358,192.755 213.623,192.662 235.436 C 192.568 257.385,192.701 255.779,190.879 256.945 C 189.595 257.767,181.816 257.388,180.263 256.428 C 180.138 256.351,179.490 256.552,178.822 256.875 C 176.315 258.086,169.869 257.610,168.389 256.104 C 167.972 255.681,167.164 255.041,166.592 254.683 C 166.021 254.325,165.424 253.741,165.267 253.387 C 165.110 253.032,164.678 252.580,164.308 252.382 C 163.836 252.130,163.441 251.391,162.987 249.916 C 162.631 248.758,162.074 247.513,161.749 247.149 C 160.390 245.630,160.396 235.730,161.757 234.208 C 162.078 233.850,162.638 232.589,163.001 231.406 C 163.389 230.144,163.912 229.081,164.266 228.833 C 164.598 228.601,165.187 227.943,165.576 227.371 C 166.019 226.719,166.700 226.194,167.403 225.965 C 168.019 225.764,168.807 225.295,169.154 224.924 C 170.475 223.514,176.629 223.036,178.855 224.171 C 180.348 224.932,180.375 224.853,180.549 219.386 C 180.716 214.158,180.819 213.891,182.831 213.502 C 184.900 213.102,189.997 213.184,191.077 213.635 M114.702 223.921 C 115.316 224.092,116.024 224.545,116.275 224.929 C 116.542 225.335,117.158 225.706,117.754 225.818 C 119.676 226.178,123.389 230.171,123.983 232.517 C 124.252 233.578,124.762 234.758,125.117 235.139 C 126.100 236.195,126.105 244.568,125.123 245.633 C 124.766 246.020,124.326 247.110,124.124 248.107 C 123.697 250.222,123.448 250.736,122.229 252.021 C 121.722 252.555,120.973 253.346,120.564 253.777 C 119.696 254.693,116.758 256.455,115.107 257.048 C 112.186 258.097,102.153 257.254,102.153 255.959 C 102.153 255.809,101.713 255.504,101.176 255.279 C 98.966 254.356,95.391 249.844,95.030 247.522 C 94.851 246.374,94.510 244.516,94.271 243.393 C 93.760 240.983,93.729 239.605,94.152 238.082 C 94.322 237.467,94.647 235.820,94.874 234.420 C 95.268 231.982,95.904 230.438,96.514 230.438 C 96.671 230.438,96.982 230.004,97.204 229.473 C 97.798 228.054,99.837 226.349,101.415 225.952 C 102.158 225.765,102.949 225.350,103.173 225.030 C 104.082 223.732,111.464 223.022,114.702 223.921 M148.246 223.918 C 148.854 224.087,149.739 224.552,150.214 224.951 C 150.689 225.351,151.593 225.847,152.222 226.054 C 152.934 226.287,153.593 226.785,153.966 227.371 C 154.296 227.889,154.874 228.457,155.251 228.634 C 155.628 228.812,156.203 229.557,156.528 230.292 C 156.852 231.026,157.432 231.941,157.816 232.325 C 159.849 234.358,159.666 247.503,157.588 248.760 C 157.373 248.891,156.960 249.599,156.673 250.334 C 156.107 251.777,155.409 252.709,154.891 252.712 C 154.712 252.713,154.338 253.114,154.060 253.603 C 153.782 254.092,153.180 254.650,152.723 254.844 C 152.267 255.038,151.492 255.550,151.002 255.982 C 148.671 258.039,138.186 258.101,135.948 256.071 C 135.620 255.774,134.798 255.264,134.121 254.937 C 133.444 254.610,132.730 254.015,132.534 253.613 C 132.338 253.212,131.896 252.779,131.553 252.652 C 131.201 252.522,130.660 251.803,130.313 251.006 C 129.975 250.228,129.449 249.317,129.144 248.982 C 127.082 246.718,127.097 233.036,129.162 231.930 C 129.457 231.772,129.917 231.097,130.184 230.431 C 130.460 229.740,131.029 229.011,131.505 228.738 C 131.965 228.474,132.562 227.874,132.832 227.404 C 133.139 226.867,133.876 226.319,134.812 225.930 C 135.632 225.589,136.303 225.199,136.303 225.064 C 136.303 223.869,145.049 223.030,148.246 223.918 M294.442 224.038 C 295.008 224.275,295.471 224.596,295.471 224.752 C 295.471 224.908,296.103 224.834,296.882 224.586 C 297.685 224.331,299.956 224.074,302.153 223.989 C 308.411 223.747,308.578 224.058,308.558 235.985 C 308.544 244.488,308.556 244.568,309.913 244.957 L 310.801 245.212 311.327 243.170 C 311.616 242.047,311.958 241.128,312.088 241.128 C 312.217 241.128,312.823 240.671,313.434 240.111 C 314.612 239.032,315.311 238.688,317.423 238.148 L 318.736 237.812 317.126 236.922 C 316.240 236.433,315.051 235.954,314.483 235.858 C 312.861 235.584,311.541 234.660,311.261 233.602 C 310.938 232.386,311.574 229.551,312.255 229.170 C 312.534 229.014,312.962 228.649,313.208 228.360 C 314.641 226.665,315.123 226.291,316.296 225.956 C 317.010 225.752,317.862 225.358,318.189 225.079 C 319.489 223.971,320.281 223.784,324.201 223.662 C 329.375 223.501,331.270 223.744,332.219 224.694 C 332.624 225.099,333.818 225.696,334.872 226.022 C 336.412 226.497,336.902 226.804,337.357 227.575 C 337.668 228.103,338.321 228.829,338.806 229.188 C 340.220 230.233,340.308 231.095,340.310 243.898 L 340.312 255.725 339.444 256.593 L 338.576 257.461 334.682 257.461 C 330.573 257.461,329.891 257.275,328.678 255.828 C 328.209 255.268,328.169 255.265,327.974 255.766 C 327.067 258.095,316.986 258.217,314.424 255.930 C 313.904 255.465,313.390 255.085,313.281 255.085 C 312.686 255.085,311.688 253.730,311.256 252.336 C 310.123 248.673,308.344 251.220,307.781 257.313 C 307.495 260.394,307.159 261.461,306.332 261.904 C 305.933 262.117,305.444 262.685,305.245 263.166 C 305.046 263.647,304.536 264.250,304.112 264.506 C 303.688 264.763,302.940 265.421,302.450 265.968 C 301.738 266.764,301.170 267.045,299.620 267.369 C 298.554 267.592,296.938 268.127,296.028 268.557 C 294.371 269.341,287.860 269.719,285.749 269.153 C 282.411 268.258,282.999 257.539,286.346 258.286 C 287.553 258.556,292.474 258.546,293.177 258.273 C 294.536 257.745,293.114 256.957,290.464 256.770 C 288.617 256.639,287.709 256.432,287.139 256.010 C 286.707 255.691,285.533 255.268,284.530 255.071 C 283.342 254.837,282.473 254.469,282.036 254.015 C 280.942 252.878,280.436 252.382,279.649 251.681 C 279.164 251.249,278.772 250.426,278.525 249.320 C 278.297 248.301,277.914 247.461,277.567 247.218 C 275.980 246.106,276.031 235.340,277.633 233.556 C 277.926 233.229,278.327 232.294,278.523 231.477 C 278.942 229.739,279.508 228.769,280.245 228.531 C 280.535 228.437,281.001 227.957,281.281 227.463 C 281.581 226.935,282.314 226.337,283.063 226.010 C 283.763 225.705,284.501 225.178,284.703 224.838 C 285.422 223.631,292.146 223.079,294.442 224.038 M364.113 223.929 C 365.082 224.448,365.553 226.034,365.553 228.781 C 365.553 233.679,364.754 235.486,362.590 235.486 C 361.389 235.486,360.084 235.900,357.354 237.147 C 355.446 238.018,355.457 237.957,355.457 248.178 L 355.457 255.738 354.534 256.599 C 353.615 257.459,353.601 257.461,349.760 257.461 L 345.908 257.461 345.032 256.585 L 344.156 255.709 344.239 240.719 C 344.319 226.006,344.332 225.714,344.946 224.892 L 345.572 224.053 349.741 223.971 L 353.910 223.889 354.809 224.788 C 355.823 225.802,356.525 225.936,356.771 225.163 C 357.204 223.797,362.274 222.945,364.113 223.929 M254.101 224.219 C 256.668 225.182,256.867 226.062,256.867 236.447 C 256.867 246.556,256.849 246.474,259.020 246.474 C 262.236 246.474,262.556 245.477,262.785 234.744 C 263.024 223.630,262.963 223.731,269.272 223.956 C 275.227 224.169,275.045 223.604,274.923 241.425 C 274.824 255.919,274.815 255.992,273.049 256.845 C 270.325 258.161,263.103 257.278,263.103 255.630 C 263.103 255.424,262.899 255.474,262.584 255.757 C 259.939 258.132,251.548 258.152,249.187 255.788 C 248.637 255.238,248.046 254.788,247.874 254.788 C 247.201 254.788,246.439 253.721,245.981 252.138 C 245.718 251.227,245.187 250.105,244.800 249.643 L 244.098 248.804 244.098 237.958 C 244.098 225.638,244.105 225.592,246.276 224.518 C 247.674 223.826,252.557 223.639,254.101 224.219 M55.457 224.694 C 53.014 225.707,54.888 230.141,57.759 230.141 C 62.317 230.141,65.618 226.440,62.603 224.709 C 61.436 224.040,57.057 224.031,55.457 224.694 M107.647 234.810 C 106.365 235.125,106.310 235.356,106.310 240.416 L 106.310 245.272 107.094 245.786 C 108.154 246.480,111.749 246.507,112.430 245.826 C 113.828 244.428,113.158 235.283,111.626 234.854 C 110.800 234.623,108.512 234.598,107.647 234.810 M141.500 234.934 C 139.892 235.741,139.211 237.644,139.320 241.023 L 139.421 244.173 140.817 245.401 C 142.462 246.848,144.508 247.015,145.383 245.775 C 147.862 242.258,148.437 239.558,147.105 237.680 C 146.798 237.248,146.339 236.501,146.085 236.020 C 145.336 234.607,143.171 234.094,141.500 234.934 M175.279 234.805 C 174.521 234.951,174.377 235.372,174.079 238.307 C 173.650 242.531,174.240 246.177,175.353 246.177 C 175.740 246.177,176.394 246.305,176.808 246.462 C 177.221 246.619,177.627 246.637,177.711 246.501 C 177.795 246.366,178.385 246.171,179.023 246.069 C 180.485 245.836,180.550 245.605,180.510 240.831 C 180.460 234.805,179.717 233.950,175.279 234.805 M290.204 234.967 C 290.043 235.171,289.825 235.997,289.720 236.803 C 289.615 237.610,289.296 238.745,289.011 239.328 C 288.519 240.333,288.519 240.438,289.009 241.429 C 289.292 242.002,289.611 243.138,289.718 243.953 C 290.021 246.276,291.062 246.697,294.410 245.854 C 297.175 245.158,297.302 235.743,294.557 234.920 C 293.089 234.481,290.565 234.507,290.204 234.967 M322.866 234.882 C 322.000 235.255,322.021 235.654,322.936 236.253 C 324.559 237.317,329.792 236.152,328.627 234.987 C 328.324 234.683,323.528 234.596,322.866 234.882 M55.011 240.150 C 54.379 240.272,54.343 240.418,54.343 242.896 L 54.343 245.512 55.662 245.844 C 59.694 246.860,64.273 245.960,64.589 244.090 C 64.821 242.717,64.563 241.722,63.974 241.722 C 63.740 241.722,63.549 241.614,63.549 241.481 C 63.549 240.155,58.817 239.417,55.011 240.150 M323.014 245.105 C 322.406 245.567,322.296 247.641,322.851 248.196 C 324.529 249.875,329.843 246.995,328.631 245.063 C 328.305 244.543,323.710 244.577,323.014 245.105 M294.878 255.679 C 295.453 256.051,295.768 256.051,295.768 255.679 C 295.768 255.516,295.468 255.384,295.100 255.387 C 294.560 255.391,294.517 255.447,294.878 255.679 " stroke="none" fill="#fbfbfb" fill-rule="evenodd"></path><path id="path2" d="M220.604 214.378 C 219.687 214.507,218.417 214.884,217.783 215.217 C 217.148 215.549,215.789 216.246,214.762 216.766 C 213.204 217.554,212.761 217.958,212.089 219.202 C 211.647 220.023,210.923 221.249,210.480 221.928 C 209.018 224.174,209.117 228.782,210.664 230.423 C 211.057 230.839,211.634 231.648,211.947 232.220 C 212.260 232.791,212.868 233.431,213.298 233.640 C 213.727 233.850,214.361 234.418,214.706 234.902 C 215.051 235.387,215.565 235.783,215.848 235.783 C 216.131 235.783,216.489 235.897,216.644 236.036 C 216.800 236.176,217.559 236.460,218.331 236.667 C 219.104 236.875,219.885 237.224,220.066 237.442 C 220.480 237.942,223.404 239.050,224.307 239.050 C 225.023 239.050,228.865 240.899,230.359 241.963 C 231.043 242.450,231.288 242.900,231.429 243.933 C 231.676 245.731,231.547 245.969,229.465 247.552 L 227.668 248.919 225.201 248.789 C 223.636 248.707,222.541 248.500,222.206 248.223 C 221.915 247.983,221.176 247.560,220.562 247.282 C 219.477 246.792,219.087 246.207,218.015 243.459 C 217.528 242.209,210.760 241.326,209.710 242.376 C 208.774 243.312,209.360 247.867,210.598 249.277 C 212.721 251.694,215.030 253.898,215.441 253.898 C 215.700 253.898,216.770 254.299,217.819 254.789 C 222.068 256.776,228.170 256.858,231.760 254.979 C 232.896 254.384,234.139 253.898,234.524 253.898 C 235.138 253.898,236.971 252.327,236.971 251.800 C 236.971 251.700,237.292 251.471,237.684 251.292 C 238.114 251.096,238.542 250.519,238.764 249.834 C 238.966 249.211,239.447 248.101,239.833 247.367 C 240.875 245.386,240.818 242.721,239.689 240.707 C 239.225 239.877,238.755 238.832,238.645 238.385 C 238.536 237.938,238.081 237.348,237.634 237.074 C 237.188 236.800,236.488 236.221,236.080 235.788 C 235.625 235.305,234.517 234.747,233.215 234.345 C 232.048 233.985,230.935 233.500,230.742 233.268 C 230.320 232.759,228.132 232.040,226.225 231.783 C 225.460 231.679,224.333 231.256,223.722 230.841 C 223.110 230.426,221.910 229.777,221.055 229.399 C 216.069 227.193,219.275 220.676,225.015 221.351 C 226.928 221.576,227.436 221.818,229.025 223.266 C 230.810 224.891,231.008 225.121,231.941 226.652 L 232.801 228.062 235.459 228.062 C 238.396 228.062,238.769 227.882,239.328 226.188 C 239.861 224.574,238.247 219.477,237.197 219.455 C 237.077 219.453,236.641 218.916,236.229 218.263 C 235.816 217.610,235.303 217.075,235.087 217.075 C 234.872 217.075,234.039 216.727,233.235 216.302 C 229.644 214.403,229.787 214.442,225.959 214.290 C 223.931 214.210,221.521 214.249,220.604 214.378 M45.063 214.895 L 43.950 215.357 43.950 234.596 L 43.950 253.835 44.811 254.757 L 45.673 255.679 54.805 255.679 C 63.837 255.679,63.953 255.671,65.450 254.964 C 66.283 254.570,67.498 254.152,68.151 254.033 C 70.411 253.624,72.062 252.262,73.344 249.748 C 73.671 249.108,74.173 248.453,74.460 248.292 C 75.526 247.696,75.204 241.862,74.016 240.246 C 73.486 239.524,73.051 238.701,73.051 238.417 C 73.051 238.134,72.440 237.401,71.692 236.788 C 70.226 235.587,70.066 234.451,71.153 232.962 C 71.391 232.635,71.905 231.930,72.295 231.394 C 73.713 229.447,74.661 225.648,74.141 224.000 C 72.796 219.733,71.312 217.091,70.249 217.068 C 70.075 217.065,69.131 216.656,68.151 216.161 C 64.989 214.561,63.911 214.423,54.640 214.428 C 47.666 214.432,45.981 214.514,45.063 214.895 M81.425 214.759 C 81.041 215.143,80.951 252.865,81.329 254.640 L 81.520 255.531 85.585 255.613 L 89.651 255.696 89.888 254.574 C 90.339 252.447,90.181 215.450,89.719 214.893 C 89.205 214.274,82.026 214.158,81.425 214.759 M183.315 214.767 L 182.369 215.071 182.276 220.257 C 182.184 225.371,182.172 225.452,181.445 226.040 C 180.510 226.796,178.570 226.616,177.832 225.705 C 177.200 224.924,172.422 224.770,172.134 225.521 C 172.044 225.756,170.927 226.275,169.652 226.673 C 167.589 227.319,167.264 227.523,166.688 228.530 C 166.331 229.152,165.769 229.870,165.437 230.124 C 164.648 230.729,164.080 232.181,163.630 234.744 C 163.429 235.887,163.069 237.424,162.829 238.159 C 162.092 240.420,162.066 240.737,162.533 241.766 C 162.782 242.313,163.073 243.363,163.180 244.098 C 163.718 247.808,164.555 250.590,165.274 251.061 C 165.671 251.321,166.188 251.994,166.423 252.557 C 166.720 253.268,167.105 253.640,167.686 253.777 C 168.146 253.885,168.857 254.282,169.265 254.659 C 171.348 256.582,176.541 256.808,178.498 255.061 C 179.697 253.991,180.606 253.964,182.805 254.937 C 184.222 255.564,184.936 255.679,187.387 255.679 L 190.291 255.679 190.617 254.744 C 191.102 253.354,191.073 215.245,190.586 214.759 C 190.146 214.318,184.692 214.325,183.315 214.767 M62.426 222.391 C 62.643 222.701,63.322 223.251,63.935 223.612 C 66.626 225.200,66.384 228.043,63.346 230.529 C 61.321 232.186,55.099 232.409,53.570 230.880 C 52.223 229.533,52.315 224.485,53.715 222.983 C 54.892 221.719,61.634 221.261,62.426 222.391 M105.923 225.670 C 105.628 225.968,104.760 226.376,103.993 226.575 C 103.226 226.775,102.373 226.997,102.098 227.069 C 101.460 227.235,98.293 230.193,98.293 230.622 C 98.293 230.800,97.942 231.323,97.514 231.785 C 95.253 234.225,95.102 246.438,97.299 249.158 C 99.547 251.940,101.240 253.539,102.723 254.280 C 103.634 254.735,104.781 255.328,105.271 255.598 C 107.349 256.744,113.451 256.363,115.315 254.972 C 115.834 254.585,116.758 254.108,117.369 253.912 C 118.407 253.580,120.564 251.817,120.564 251.301 C 120.564 251.174,120.866 250.738,121.235 250.331 C 122.537 248.897,122.870 248.063,123.348 245.045 C 124.184 239.766,123.636 233.994,122.103 231.923 C 120.486 229.738,117.617 227.130,116.489 226.818 C 115.876 226.649,114.713 226.191,113.905 225.802 C 111.952 224.860,106.807 224.775,105.923 225.670 M139.917 225.663 C 139.373 225.942,137.981 226.429,136.824 226.745 C 135.152 227.202,134.614 227.494,134.205 228.166 C 133.922 228.632,133.271 229.267,132.759 229.579 C 132.247 229.890,131.759 230.378,131.675 230.662 C 131.590 230.947,130.960 232.300,130.274 233.667 L 129.027 236.154 129.030 240.497 L 129.033 244.840 130.107 246.771 C 130.698 247.832,131.270 249.112,131.379 249.615 C 131.488 250.118,132.072 251.018,132.678 251.615 C 133.283 252.212,134.013 252.970,134.298 253.299 C 134.584 253.628,135.104 253.898,135.453 253.898 C 135.803 253.898,136.745 254.301,137.547 254.795 C 141.096 256.979,147.532 256.704,150.207 254.254 C 150.439 254.042,151.024 253.789,151.507 253.693 C 152.081 253.578,152.638 253.135,153.116 252.413 C 153.517 251.807,154.143 251.175,154.506 251.009 C 154.977 250.794,155.367 250.084,155.868 248.529 C 156.254 247.330,156.819 246.010,157.124 245.595 C 158.384 243.876,158.298 236.894,156.991 234.912 C 156.607 234.330,156.037 233.061,155.726 232.094 C 155.284 230.720,154.946 230.208,154.184 229.757 C 153.647 229.439,153.020 228.816,152.791 228.374 C 152.451 227.715,151.831 227.389,149.375 226.580 C 147.725 226.036,146.306 225.479,146.221 225.342 C 145.929 224.869,140.975 225.121,139.917 225.663 M287.100 225.638 C 286.824 225.919,286.089 226.327,285.467 226.546 C 283.445 227.256,282.405 227.825,282.405 228.223 C 282.405 228.438,281.961 228.990,281.419 229.451 C 280.876 229.912,280.282 230.690,280.099 231.180 C 279.537 232.683,278.842 235.779,278.843 236.772 C 278.844 237.290,278.618 238.346,278.341 239.120 C 277.867 240.441,277.867 240.589,278.339 241.580 C 278.616 242.159,278.842 243.153,278.842 243.787 C 278.842 249.481,281.967 253.245,287.409 254.107 C 290.741 254.635,290.512 254.634,293.393 254.129 C 297.898 253.339,298.805 255.491,295.221 258.468 L 293.930 259.540 289.663 259.540 C 284.591 259.540,284.781 259.392,284.781 263.335 C 284.781 266.754,284.907 266.877,288.653 267.140 C 290.642 267.280,292.504 267.191,295.026 266.835 C 299.492 266.206,299.365 266.246,300.878 264.982 C 301.572 264.402,302.446 263.812,302.820 263.669 C 303.194 263.527,303.622 263.089,303.772 262.696 C 303.921 262.303,304.432 261.532,304.907 260.983 C 306.562 259.071,306.557 259.127,306.687 242.823 C 306.830 224.873,307.109 226.280,303.408 226.281 C 302.064 226.282,299.793 226.426,298.360 226.602 C 295.748 226.922,293.096 226.298,293.096 225.363 C 293.096 224.828,287.651 225.078,287.100 225.638 M321.604 225.685 C 321.032 225.976,319.452 226.513,318.092 226.879 C 316.156 227.401,315.566 227.687,315.371 228.201 C 315.234 228.562,314.705 229.208,314.196 229.636 C 312.007 231.478,312.144 234.001,314.433 234.001 C 315.012 234.001,316.591 234.161,317.944 234.357 C 320.287 234.696,320.458 234.681,321.588 234.046 C 326.687 231.180,331.895 233.902,329.196 238.022 C 328.760 238.687,328.523 238.753,326.571 238.754 C 320.928 238.756,316.515 239.654,314.900 241.128 C 314.235 241.735,313.523 242.288,313.319 242.356 C 312.196 242.730,311.603 248.133,312.378 250.928 C 313.088 253.491,313.102 253.512,314.165 253.746 C 314.644 253.851,315.475 254.321,316.012 254.790 C 318.375 256.853,324.549 256.846,326.617 254.778 C 327.770 253.624,328.834 253.628,329.918 254.788 L 330.751 255.679 334.754 255.679 C 339.663 255.679,339.174 256.675,339.345 246.325 C 339.515 236.037,339.296 232.484,338.427 231.429 C 335.378 227.726,334.910 227.388,331.474 226.414 C 330.451 226.125,329.466 225.709,329.285 225.490 C 328.760 224.858,322.942 225.006,321.604 225.685 M359.171 225.481 C 358.846 225.676,358.201 226.136,357.738 226.503 C 356.749 227.288,355.893 227.341,354.331 226.716 C 352.276 225.894,345.931 226.219,345.438 227.171 C 345.002 228.014,345.051 253.777,345.491 255.019 C 345.726 255.684,345.800 255.694,349.774 255.613 L 353.818 255.531 354.008 254.640 C 354.113 254.150,354.214 250.152,354.234 245.755 L 354.269 237.760 355.632 236.454 C 357.520 234.645,358.673 234.005,360.059 233.996 C 362.161 233.983,363.771 233.032,363.771 231.803 C 363.771 231.232,363.916 230.091,364.092 229.268 C 364.787 226.029,361.930 223.832,359.171 225.481 M246.905 227.066 L 246.177 227.852 246.177 237.648 C 246.177 243.617,246.300 247.922,246.493 248.666 C 247.409 252.207,247.709 252.982,248.221 253.144 C 248.518 253.238,249.520 253.905,250.448 254.626 C 253.002 256.609,257.324 256.879,259.579 255.196 C 261.992 253.396,263.515 253.274,264.638 254.793 C 265.667 256.185,270.887 256.164,272.289 254.763 L 273.206 253.846 273.129 240.586 L 273.051 227.325 272.012 226.817 C 270.286 225.973,265.391 226.064,264.946 226.949 C 264.726 227.387,264.581 230.576,264.525 236.229 C 264.428 246.005,264.478 245.796,261.768 247.661 C 259.690 249.090,258.275 248.939,256.412 247.087 C 254.491 245.178,254.555 245.561,254.521 235.879 L 254.491 227.512 253.709 226.896 C 252.414 225.877,247.903 225.990,246.905 227.066 M111.062 233.137 C 113.109 233.914,113.398 234.157,114.031 235.635 C 114.313 236.293,114.763 237.012,115.030 237.234 C 115.927 237.979,115.564 244.395,114.625 244.395 C 114.514 244.395,114.244 244.939,114.024 245.604 C 113.367 247.597,110.216 249.399,108.878 248.548 C 108.527 248.325,107.742 247.899,107.132 247.601 C 105.228 246.669,104.974 245.820,104.974 240.373 C 104.974 234.802,105.134 234.368,107.598 233.248 C 109.484 232.390,109.125 232.402,111.062 233.137 M178.887 233.258 C 181.998 234.682,183.260 239.249,181.925 244.260 C 180.836 248.351,177.064 249.913,174.285 247.424 C 169.587 243.216,171.308 234.426,177.200 232.538 C 177.236 232.526,177.995 232.850,178.887 233.258 M295.026 233.490 C 297.360 234.744,297.674 235.556,297.688 240.386 C 297.705 246.074,296.999 247.255,293.393 247.571 C 290.981 247.782,289.526 247.200,288.790 245.730 C 288.463 245.077,288.101 244.472,287.985 244.385 C 286.625 243.362,286.454 237.921,287.757 237.116 C 287.944 237.000,288.335 236.351,288.625 235.672 C 289.286 234.131,291.178 232.811,293.096 232.553 C 293.177 232.542,294.046 232.964,295.026 233.490 M146.166 233.704 C 148.446 235.136,148.627 235.603,148.627 240.076 C 148.627 242.206,148.521 244.329,148.392 244.792 C 147.900 246.557,144.725 248.841,142.756 248.848 C 142.147 248.850,139.639 246.966,138.804 245.880 C 137.924 244.736,137.943 236.170,138.827 235.180 C 140.985 232.765,143.776 232.203,146.166 233.704 M64.026 239.415 C 66.753 240.885,66.366 246.410,63.477 247.274 C 61.990 247.719,55.322 247.793,54.228 247.377 C 51.729 246.427,51.868 239.668,54.401 239.032 C 56.185 238.584,62.988 238.854,64.026 239.415 M329.154 243.673 C 330.260 244.779,330.125 247.590,328.908 248.806 C 327.657 250.058,322.909 250.161,321.795 248.960 C 320.195 247.234,321.155 243.749,323.322 243.419 C 325.543 243.081,328.699 243.218,329.154 243.673 " stroke="none" fill="#31b7ed" fill-rule="evenodd"></path><path id="path3" d="M184.470 27.651 C 182.866 27.918,181.341 28.565,180.625 29.281 C 180.405 29.500,179.695 29.823,179.047 29.997 C 178.026 30.272,176.042 31.703,174.220 33.477 C 172.672 34.985,171.344 36.463,171.344 36.678 C 171.344 36.812,170.759 37.868,170.045 39.025 C 169.331 40.182,168.653 41.663,168.538 42.316 C 168.423 42.970,168.057 44.306,167.725 45.286 C 167.245 46.702,167.094 48.074,166.989 51.967 C 166.851 57.099,166.437 59.157,165.464 59.536 C 165.186 59.644,161.418 59.797,157.090 59.874 C 147.173 60.052,144.645 60.332,143.013 61.436 C 142.344 61.889,141.196 62.495,140.461 62.782 C 139.727 63.070,139.059 63.398,138.976 63.511 C 138.894 63.625,138.159 64.247,137.342 64.895 C 136.526 65.543,135.802 66.205,135.735 66.367 C 135.667 66.529,135.245 67.027,134.798 67.475 C 133.780 68.493,131.298 72.590,131.076 73.619 C 130.984 74.042,130.785 74.722,130.633 75.130 C 129.354 78.564,129.342 78.994,129.241 124.573 C 129.145 167.831,129.146 167.936,129.779 171.195 C 130.765 176.274,131.287 178.102,132.042 179.126 C 132.426 179.645,132.740 180.212,132.741 180.384 C 132.743 180.921,134.307 183.088,135.892 184.749 C 138.705 187.697,139.817 188.601,141.304 189.144 C 142.117 189.441,143.246 190.038,143.812 190.470 C 146.053 192.178,144.135 192.130,210.097 192.125 C 274.646 192.120,274.388 192.126,276.416 190.682 C 276.866 190.361,278.010 189.756,278.958 189.337 C 279.905 188.917,280.948 188.235,281.274 187.820 C 281.601 187.405,282.389 186.800,283.027 186.474 C 283.665 186.149,284.187 185.756,284.187 185.602 C 284.187 185.447,284.774 184.659,285.492 183.851 C 286.210 183.043,286.964 181.870,287.168 181.243 C 287.372 180.617,287.920 179.665,288.387 179.128 C 288.854 178.592,289.243 177.991,289.252 177.792 C 289.260 177.594,289.619 175.961,290.048 174.165 L 290.829 170.898 290.925 124.889 C 290.990 93.765,290.923 78.819,290.717 78.692 C 290.447 78.524,289.951 76.490,289.403 73.289 C 289.299 72.684,288.753 71.639,288.185 70.960 C 287.620 70.283,287.157 69.593,287.157 69.428 C 287.157 69.131,285.419 67.198,283.783 65.676 C 283.315 65.241,282.522 64.503,282.020 64.035 C 281.517 63.568,280.576 62.999,279.927 62.770 C 279.279 62.541,278.097 61.954,277.302 61.464 C 275.395 60.291,273.274 60.006,266.073 59.958 C 262.888 59.936,259.013 59.833,257.461 59.729 L 254.640 59.540 254.046 58.352 C 253.544 57.349,253.424 56.334,253.272 51.819 C 253.089 46.402,253.085 46.376,251.363 40.490 C 251.117 39.649,250.724 38.887,250.490 38.797 C 250.256 38.707,249.778 38.072,249.428 37.386 C 249.078 36.700,247.969 35.367,246.964 34.424 C 245.960 33.481,244.603 32.164,243.950 31.497 C 243.296 30.831,242.620 30.286,242.447 30.287 C 242.274 30.289,241.339 29.810,240.369 29.224 C 237.221 27.323,237.102 27.316,210.145 27.355 C 196.889 27.374,185.335 27.507,184.470 27.651 M236.315 28.561 C 237.079 28.753,237.906 29.156,238.154 29.456 C 238.402 29.756,239.530 30.335,240.662 30.743 C 241.793 31.150,242.736 31.516,242.756 31.555 C 243.310 32.616,244.018 33.366,244.686 33.598 C 245.191 33.774,245.677 34.254,245.903 34.800 C 246.135 35.360,246.658 35.866,247.267 36.121 C 247.811 36.348,248.255 36.738,248.255 36.987 C 248.255 37.653,249.421 39.837,250.191 40.614 C 251.163 41.595,251.551 44.472,251.778 52.367 C 252.036 61.341,251.439 60.867,262.509 60.882 C 271.624 60.894,275.124 61.222,276.151 62.161 C 276.926 62.871,279.209 63.846,280.094 63.846 C 280.363 63.846,280.865 64.242,281.210 64.727 C 281.556 65.211,282.198 65.780,282.639 65.991 C 283.079 66.202,283.609 66.729,283.816 67.161 C 284.023 67.594,284.659 68.223,285.229 68.559 C 285.799 68.896,286.266 69.391,286.266 69.660 C 286.266 70.254,287.470 72.457,287.795 72.457 C 289.213 72.457,289.307 75.344,289.443 123.385 C 289.587 174.170,289.499 176.734,287.563 178.257 C 287.184 178.555,286.730 179.334,286.554 179.988 C 286.378 180.642,285.792 181.670,285.251 182.274 C 284.710 182.877,284.055 183.787,283.795 184.296 C 283.535 184.804,282.882 185.446,282.344 185.721 C 281.806 185.996,280.698 186.752,279.881 187.401 C 279.065 188.049,278.062 188.659,277.654 188.757 C 277.246 188.855,276.363 189.247,275.693 189.629 C 272.756 191.302,275.318 191.239,210.245 191.239 C 144.976 191.240,147.049 191.292,144.605 189.598 C 144.023 189.194,143.420 188.860,143.265 188.854 C 141.443 188.789,134.324 182.170,133.791 180.045 C 133.684 179.619,133.213 178.714,132.746 178.034 C 131.110 175.657,131.160 177.131,131.033 128.137 C 130.896 75.194,130.912 74.710,132.911 72.553 C 133.326 72.105,133.825 71.144,134.019 70.419 C 134.270 69.479,134.645 68.921,135.323 68.477 C 135.846 68.135,136.408 67.561,136.572 67.202 C 136.736 66.843,137.243 66.317,137.700 66.032 C 138.156 65.748,138.890 65.139,139.330 64.680 C 139.770 64.221,140.346 63.846,140.610 63.846 C 141.278 63.846,144.321 62.376,144.321 62.054 C 144.321 61.367,147.331 61.078,156.347 60.901 C 169.403 60.643,168.406 61.372,168.702 51.868 C 168.948 44.005,169.303 41.524,170.294 40.744 C 170.957 40.223,172.235 37.714,172.235 36.933 C 172.235 36.709,172.358 36.526,172.509 36.526 C 173.045 36.526,174.610 34.979,174.610 34.450 C 174.610 34.111,174.962 33.788,175.558 33.581 C 176.080 33.399,176.923 32.796,177.432 32.240 C 178.071 31.542,178.894 31.074,180.096 30.725 C 181.052 30.447,182.163 29.891,182.563 29.490 C 182.964 29.090,183.844 28.653,184.519 28.519 C 186.572 28.112,234.689 28.151,236.315 28.561 M188.419 39.412 C 185.074 39.878,181.407 42.412,180.591 44.821 C 180.401 45.382,180.056 46.050,179.825 46.306 C 178.815 47.423,178.431 49.564,178.376 54.393 L 178.322 59.145 179.126 59.837 C 180.351 60.891,181.286 60.919,211.929 60.819 L 240.190 60.728 240.927 60.035 C 242.507 58.550,242.274 48.543,240.611 46.454 C 240.100 45.812,239.597 44.940,239.494 44.518 C 239.391 44.095,238.507 42.977,237.529 42.033 C 235.728 40.295,235.103 40.004,232.071 39.492 C 230.607 39.245,190.147 39.170,188.419 39.412 M234.360 40.928 C 234.965 41.132,235.740 41.690,236.081 42.168 C 236.422 42.647,237.051 43.210,237.479 43.420 C 238.030 43.690,238.418 44.275,238.806 45.423 C 239.107 46.315,239.698 47.543,240.119 48.151 C 241.090 49.551,241.144 58.020,240.189 58.974 C 239.189 59.972,183.978 60.456,180.995 59.493 C 178.014 58.530,179.857 44.947,183.203 43.217 C 183.694 42.963,184.236 42.493,184.408 42.172 C 184.820 41.402,185.665 40.973,187.341 40.682 C 189.708 40.271,233.080 40.499,234.360 40.928 M198.928 85.170 C 197.818 86.334,197.773 86.801,197.773 97.099 L 197.773 107.229 196.469 108.552 L 195.166 109.874 184.735 109.874 L 174.305 109.874 173.716 110.839 C 173.151 111.766,173.128 112.372,173.127 126.237 L 173.125 140.671 173.854 141.456 L 174.582 142.242 184.816 142.242 L 195.050 142.242 196.189 143.440 C 197.621 144.948,197.686 145.519,197.736 157.193 L 197.773 165.760 198.695 166.622 L 199.617 167.483 210.140 167.483 C 225.115 167.483,223.801 168.681,223.979 154.863 C 224.092 146.081,224.177 144.602,224.633 143.504 L 225.157 142.242 235.541 142.242 L 245.925 142.242 246.802 141.366 L 247.678 140.490 247.595 125.948 L 247.513 111.406 246.793 110.640 L 246.073 109.874 235.572 109.874 L 225.072 109.874 224.531 108.612 C 224.060 107.512,223.962 106.036,223.770 97.105 C 223.532 86.075,223.550 86.195,221.965 85.260 C 220.480 84.384,199.754 84.302,198.928 85.170 M221.247 86.273 L 222.123 86.726 222.129 96.741 C 222.138 112.115,220.876 110.764,235.218 110.764 C 245.141 110.765,245.509 110.785,246.033 111.363 C 246.922 112.346,247.088 139.365,246.212 140.460 L 245.617 141.203 234.984 141.351 C 227.548 141.455,224.165 141.606,223.735 141.853 C 222.654 142.474,222.467 144.101,222.249 154.798 L 222.039 165.127 221.219 165.711 C 219.872 166.671,200.169 166.611,199.269 165.646 C 198.684 165.018,198.663 164.645,198.657 154.732 C 198.650 144.826,198.495 142.549,197.782 141.835 C 197.550 141.603,193.957 141.454,186.153 141.351 C 175.408 141.210,174.838 141.175,174.437 140.626 C 173.728 139.655,173.821 112.251,174.536 111.399 C 175.043 110.796,175.323 110.779,186.109 110.698 L 197.163 110.616 197.839 109.940 C 198.511 109.268,198.516 109.197,198.718 97.968 C 198.862 89.941,199.023 86.548,199.274 86.246 C 199.816 85.593,219.980 85.618,221.247 86.273 " stroke="none" fill="#f4747c" fill-rule="evenodd"></path><path id="path4" d="M195.491 42.098 L 187.418 42.177 187.324 42.989 C 187.244 43.690,187.081 43.813,186.135 43.892 C 185.177 43.972,184.995 44.114,184.697 45.019 C 184.434 45.816,184.151 46.095,183.466 46.232 C 182.977 46.330,182.533 46.558,182.478 46.739 C 182.292 47.360,182.065 51.225,182.239 50.804 C 182.530 50.103,183.840 49.120,185.834 48.107 C 188.372 46.818,191.279 46.653,211.581 46.646 C 232.184 46.640,234.245 46.900,237.555 49.923 C 238.476 50.765,238.519 50.776,238.360 50.128 C 238.268 49.751,238.104 48.765,237.996 47.937 C 237.818 46.570,237.713 46.405,236.866 46.155 C 236.173 45.951,235.858 45.631,235.648 44.915 C 235.400 44.072,235.236 43.950,234.360 43.950 C 233.527 43.950,233.301 43.804,233.033 43.095 L 232.711 42.240 227.194 42.059 C 222.060 41.891,215.946 41.898,195.491 42.098 M202.952 87.966 C 199.657 88.368,199.852 88.186,199.852 90.874 C 199.852 93.359,199.983 93.559,201.124 92.816 C 203.159 91.489,216.531 91.446,219.159 92.757 C 219.696 93.025,220.182 93.244,220.239 93.244 C 220.606 93.244,220.293 88.538,219.916 88.393 C 218.513 87.855,206.367 87.549,202.952 87.966 M224.119 113.100 C 225.771 116.344,226.869 116.705,235.932 116.980 C 241.774 117.157,242.618 117.247,243.913 117.832 C 244.710 118.191,245.411 118.486,245.472 118.486 C 245.533 118.486,245.583 117.301,245.583 115.854 L 245.583 113.223 243.727 113.009 C 242.706 112.891,238.998 112.674,235.486 112.526 C 231.975 112.377,227.832 112.154,226.281 112.030 L 223.460 111.804 224.119 113.100 M191.240 112.224 C 190.995 112.363,187.854 112.552,184.261 112.642 C 180.668 112.733,177.094 112.960,176.318 113.146 L 174.907 113.485 174.907 115.837 C 174.907 117.130,174.957 118.189,175.018 118.189 C 175.079 118.189,175.675 117.996,176.342 117.761 C 178.261 117.084,182.831 116.695,186.445 116.902 C 192.193 117.231,196.228 115.352,196.282 112.324 C 196.289 111.890,191.977 111.805,191.240 112.224 M288.102 182.098 C 287.909 182.292,287.761 182.791,287.775 183.207 C 287.798 183.920,287.825 183.905,288.235 182.965 C 288.709 181.880,288.657 181.544,288.102 182.098 M132.739 184.234 C 132.739 184.600,135.608 189.697,136.013 190.052 C 136.107 190.134,136.479 190.625,136.842 191.144 C 140.030 195.710,146.676 198.257,156.496 198.674 C 168.545 199.185,267.643 198.841,270.527 198.277 C 275.008 197.402,278.713 195.628,281.658 192.949 C 282.151 192.500,282.631 192.133,282.725 192.132 C 283.211 192.128,286.774 186.643,287.457 184.846 L 287.745 184.090 287.013 184.621 C 286.610 184.913,286.200 185.391,286.102 185.682 C 285.802 186.567,284.717 187.379,283.834 187.379 C 283.112 187.379,282.999 187.495,282.999 188.234 C 282.999 189.191,282.665 189.544,281.366 189.961 C 280.797 190.144,280.441 190.479,280.381 190.889 C 280.238 191.857,279.185 192.428,277.540 192.428 C 275.487 192.428,272.903 193.278,272.903 193.953 C 272.903 195.084,272.226 195.097,210.658 195.099 C 146.278 195.100,147.968 195.132,147.544 193.916 C 147.248 193.068,145.424 192.428,143.303 192.428 C 141.739 192.428,140.549 191.874,140.175 190.972 C 139.932 190.383,139.522 190.072,138.737 189.878 C 137.795 189.645,137.600 189.448,137.364 188.493 C 137.148 187.617,136.946 187.379,136.420 187.379 C 135.542 187.379,134.818 186.628,134.818 185.716 C 134.818 185.279,134.609 184.920,134.298 184.824 C 134.013 184.736,133.545 184.538,133.259 184.386 C 132.973 184.233,132.739 184.165,132.739 184.234 M220.341 213.189 C 216.354 213.706,215.236 214.034,214.786 214.822 C 214.657 215.048,213.891 215.548,213.084 215.932 C 212.087 216.406,211.421 216.978,211.005 217.719 C 210.669 218.319,210.026 219.267,209.577 219.826 C 207.673 222.197,207.777 230.314,209.734 232.044 C 210.304 232.549,210.847 233.190,210.939 233.469 C 211.032 233.748,211.648 234.318,212.309 234.735 C 212.971 235.152,213.512 235.689,213.512 235.928 C 213.512 236.427,214.701 237.101,216.123 237.407 C 216.661 237.523,217.405 237.922,217.776 238.293 C 218.532 239.049,219.623 239.447,222.346 239.963 C 223.367 240.157,224.202 240.416,224.202 240.539 C 224.202 240.947,225.745 241.783,227.133 242.126 C 228.530 242.472,228.992 243.001,229.374 244.692 C 229.814 246.645,225.896 247.285,221.614 245.960 C 220.083 245.486,220.062 245.464,219.745 243.938 C 219.224 241.426,218.638 241.080,214.601 240.902 C 208.462 240.631,207.961 241.044,208.242 246.146 C 208.348 248.073,208.568 249.405,208.848 249.825 C 210.094 251.687,212.873 254.342,214.246 254.980 C 215.067 255.362,216.073 255.942,216.481 256.268 C 218.929 258.225,231.577 257.913,234.047 255.835 C 234.537 255.423,235.175 255.085,235.466 255.085 C 236.037 255.085,237.565 253.813,237.565 253.338 C 237.565 253.178,237.834 252.961,238.163 252.857 C 238.720 252.680,240.290 250.602,241.499 248.441 C 242.728 246.245,242.139 240.311,240.532 238.705 C 240.044 238.216,239.644 237.610,239.644 237.358 C 239.644 236.612,237.002 234.305,235.215 233.490 C 234.303 233.074,233.247 232.492,232.870 232.197 C 232.492 231.902,231.423 231.507,230.494 231.319 C 227.786 230.772,226.281 230.326,226.281 230.071 C 226.281 229.767,224.689 229.053,223.163 228.672 C 220.150 227.920,218.821 225.172,221.015 224.231 C 221.752 223.916,222.444 223.512,222.553 223.336 C 222.849 222.858,225.254 222.939,225.671 223.440 C 225.865 223.675,226.383 223.949,226.821 224.049 C 227.775 224.267,228.953 225.188,228.953 225.715 C 228.953 225.923,229.239 226.398,229.588 226.770 C 229.938 227.142,230.375 227.749,230.559 228.120 C 231.499 230.004,240.437 230.206,241.422 228.366 C 242.251 226.816,241.659 222.870,240.409 221.620 C 240.028 221.239,239.634 220.517,239.534 220.016 C 239.434 219.515,238.950 218.752,238.458 218.321 C 237.967 217.889,237.565 217.376,237.565 217.179 C 237.565 216.982,236.833 216.475,235.939 216.052 C 235.045 215.629,234.178 215.029,234.012 214.718 C 233.617 213.981,232.376 213.607,229.102 213.237 C 227.632 213.070,225.961 212.875,225.390 212.801 C 224.818 212.728,222.546 212.903,220.341 213.189 M44.840 213.462 C 44.268 213.571,43.466 213.896,43.058 214.185 L 42.316 214.711 42.316 235.023 L 42.316 255.335 43.024 256.088 C 44.998 258.189,66.511 257.983,68.285 255.846 C 68.479 255.612,69.058 255.328,69.571 255.216 C 71.369 254.821,72.747 253.867,73.563 252.453 C 74.000 251.696,74.532 250.970,74.744 250.839 C 76.689 249.642,76.790 239.485,74.871 238.086 C 74.590 237.881,74.055 237.212,73.682 236.600 C 73.308 235.987,72.899 235.486,72.772 235.486 C 72.305 235.486,73.583 232.343,74.377 231.537 C 76.422 229.462,76.692 221.592,74.758 220.446 C 74.523 220.307,74.087 219.525,73.789 218.708 C 73.087 216.783,72.696 216.350,71.278 215.925 C 70.635 215.732,69.735 215.264,69.278 214.884 C 67.470 213.380,67.604 213.396,56.422 213.328 C 50.624 213.293,45.412 213.353,44.840 213.462 M81.139 213.522 C 79.917 214.013,79.881 214.624,79.894 234.540 C 79.908 254.741,79.978 256.038,81.113 256.910 C 82.809 258.215,90.311 257.524,91.082 255.992 C 91.459 255.243,91.552 216.218,91.180 214.950 C 90.940 214.132,90.631 213.784,89.930 213.539 C 88.816 213.151,82.095 213.138,81.139 213.522 M182.831 213.502 C 180.819 213.891,180.716 214.158,180.549 219.386 C 180.375 224.853,180.348 224.932,178.855 224.171 C 176.629 223.036,170.475 223.514,169.154 224.924 C 168.807 225.295,168.019 225.764,167.403 225.965 C 166.700 226.194,166.019 226.719,165.576 227.371 C 165.187 227.943,164.598 228.601,164.266 228.833 C 163.912 229.081,163.389 230.144,163.001 231.406 C 162.638 232.589,162.078 233.850,161.757 234.208 C 160.396 235.730,160.390 245.630,161.749 247.149 C 162.074 247.513,162.631 248.758,162.987 249.916 C 163.441 251.391,163.836 252.130,164.308 252.382 C 164.678 252.580,165.110 253.032,165.267 253.387 C 165.424 253.741,166.021 254.325,166.592 254.683 C 167.164 255.041,167.972 255.681,168.389 256.104 C 169.869 257.610,176.315 258.086,178.822 256.875 C 179.490 256.552,180.138 256.351,180.263 256.428 C 181.816 257.388,189.595 257.767,190.879 256.945 C 192.701 255.779,192.568 257.385,192.662 235.436 C 192.755 213.623,192.809 214.358,191.077 213.635 C 189.997 213.184,184.900 213.102,182.831 213.502 M230.711 214.983 C 231.296 215.284,232.432 215.877,233.235 216.302 C 234.039 216.727,234.872 217.075,235.087 217.075 C 235.303 217.075,235.816 217.610,236.229 218.263 C 236.641 218.916,237.077 219.453,237.197 219.455 C 238.247 219.477,239.861 224.574,239.328 226.188 C 238.769 227.882,238.396 228.062,235.459 228.062 L 232.801 228.062 231.941 226.652 C 231.008 225.121,230.810 224.891,229.025 223.266 C 227.436 221.818,226.928 221.576,225.015 221.351 C 219.275 220.676,216.069 227.193,221.055 229.399 C 221.910 229.777,223.110 230.426,223.722 230.841 C 224.333 231.256,225.460 231.679,226.225 231.783 C 228.132 232.040,230.320 232.759,230.742 233.268 C 230.935 233.500,232.048 233.985,233.215 234.345 C 234.517 234.747,235.625 235.305,236.080 235.788 C 236.488 236.221,237.188 236.800,237.634 237.074 C 238.081 237.348,238.536 237.938,238.645 238.385 C 238.755 238.832,239.225 239.877,239.689 240.707 C 240.818 242.721,240.875 245.386,239.833 247.367 C 239.447 248.101,238.966 249.211,238.764 249.834 C 238.542 250.519,238.114 251.096,237.684 251.292 C 237.292 251.471,236.971 251.700,236.971 251.800 C 236.971 252.327,235.138 253.898,234.524 253.898 C 234.139 253.898,232.896 254.384,231.760 254.979 C 228.170 256.858,222.068 256.776,217.819 254.789 C 216.770 254.299,215.700 253.898,215.441 253.898 C 215.030 253.898,212.721 251.694,210.598 249.277 C 209.360 247.867,208.774 243.312,209.710 242.376 C 210.760 241.326,217.528 242.209,218.015 243.459 C 219.087 246.207,219.477 246.792,220.562 247.282 C 221.176 247.560,221.915 247.983,222.206 248.223 C 222.541 248.500,223.636 248.707,225.201 248.789 L 227.668 248.919 229.465 247.552 C 231.547 245.969,231.676 245.731,231.429 243.933 C 231.288 242.900,231.043 242.450,230.359 241.963 C 228.865 240.899,225.023 239.050,224.307 239.050 C 223.404 239.050,220.480 237.942,220.066 237.442 C 219.885 237.224,219.104 236.875,218.331 236.667 C 217.559 236.460,216.800 236.176,216.644 236.036 C 216.489 235.897,216.131 235.783,215.848 235.783 C 215.565 235.783,215.051 235.387,214.706 234.902 C 214.361 234.418,213.727 233.850,213.298 233.640 C 212.868 233.431,212.260 232.791,211.947 232.220 C 211.634 231.648,211.057 230.839,210.664 230.423 C 209.117 228.782,209.018 224.174,210.480 221.928 C 210.923 221.249,211.647 220.023,212.089 219.202 C 212.761 217.958,213.204 217.554,214.762 216.766 C 215.789 216.246,217.148 215.549,217.783 215.217 C 220.120 213.992,228.487 213.841,230.711 214.983 M64.736 214.841 C 65.635 215.071,67.171 215.665,68.151 216.161 C 69.131 216.656,70.075 217.065,70.249 217.068 C 71.312 217.091,72.796 219.733,74.141 224.000 C 74.661 225.648,73.713 229.447,72.295 231.394 C 71.905 231.930,71.391 232.635,71.153 232.962 C 70.066 234.451,70.226 235.587,71.692 236.788 C 72.440 237.401,73.051 238.134,73.051 238.417 C 73.051 238.701,73.486 239.524,74.016 240.246 C 75.204 241.862,75.526 247.696,74.460 248.292 C 74.173 248.453,73.671 249.108,73.344 249.748 C 72.062 252.262,70.411 253.624,68.151 254.033 C 67.498 254.152,66.283 254.570,65.450 254.964 C 63.953 255.671,63.837 255.679,54.805 255.679 L 45.673 255.679 44.811 254.757 L 43.950 253.835 43.950 234.596 L 43.950 215.357 45.063 214.895 C 46.614 214.252,62.265 214.209,64.736 214.841 M89.719 214.893 C 90.181 215.450,90.339 252.447,89.888 254.574 L 89.651 255.696 85.585 255.613 L 81.520 255.531 81.329 254.640 C 80.951 252.865,81.041 215.143,81.425 214.759 C 82.026 214.158,89.205 214.274,89.719 214.893 M190.586 214.759 C 191.073 215.245,191.102 253.354,190.617 254.744 L 190.291 255.679 187.387 255.679 C 184.936 255.679,184.222 255.564,182.805 254.937 C 180.606 253.964,179.697 253.991,178.498 255.061 C 176.541 256.808,171.348 256.582,169.265 254.659 C 168.857 254.282,168.146 253.885,167.686 253.777 C 167.105 253.640,166.720 253.268,166.423 252.557 C 166.188 251.994,165.671 251.321,165.274 251.061 C 164.555 250.590,163.718 247.808,163.180 244.098 C 163.073 243.363,162.782 242.313,162.533 241.766 C 162.066 240.737,162.092 240.420,162.829 238.159 C 163.069 237.424,163.429 235.887,163.630 234.744 C 164.080 232.181,164.648 230.729,165.437 230.124 C 165.769 229.870,166.331 229.152,166.688 228.530 C 167.264 227.523,167.589 227.319,169.652 226.673 C 170.927 226.275,172.044 225.756,172.134 225.521 C 172.422 224.770,177.200 224.924,177.832 225.705 C 178.570 226.616,180.510 226.796,181.445 226.040 C 182.172 225.452,182.184 225.371,182.276 220.257 L 182.369 215.071 183.315 214.767 C 184.692 214.325,190.146 214.318,190.586 214.759 M55.122 222.133 C 53.193 222.711,52.338 224.842,52.696 228.180 C 53.049 231.479,54.685 232.276,60.021 231.750 C 65.163 231.244,67.751 225.864,63.935 223.612 C 63.322 223.251,62.643 222.701,62.426 222.391 C 61.991 221.770,56.929 221.592,55.122 222.133 M104.723 224.041 C 104.094 224.265,103.397 224.710,103.173 225.030 C 102.949 225.350,102.158 225.765,101.415 225.952 C 99.837 226.349,97.798 228.054,97.204 229.473 C 96.982 230.004,96.671 230.438,96.514 230.438 C 95.904 230.438,95.268 231.982,94.874 234.420 C 94.647 235.820,94.322 237.467,94.152 238.082 C 93.729 239.605,93.760 240.983,94.271 243.393 C 94.510 244.516,94.851 246.374,95.030 247.522 C 95.391 249.844,98.966 254.356,101.176 255.279 C 101.713 255.504,102.153 255.809,102.153 255.959 C 102.153 257.254,112.186 258.097,115.107 257.048 C 116.758 256.455,119.696 254.693,120.564 253.777 C 120.973 253.346,121.722 252.555,122.229 252.021 C 123.448 250.736,123.697 250.222,124.124 248.107 C 124.326 247.110,124.766 246.020,125.123 245.633 C 126.105 244.568,126.100 236.195,125.117 235.139 C 124.762 234.758,124.252 233.578,123.983 232.517 C 123.389 230.171,119.676 226.178,117.754 225.818 C 117.158 225.706,116.542 225.335,116.275 224.929 C 115.415 223.616,107.599 223.016,104.723 224.041 M138.530 223.884 C 137.409 224.154,136.303 224.740,136.303 225.064 C 136.303 225.199,135.632 225.589,134.812 225.930 C 133.876 226.319,133.139 226.867,132.832 227.404 C 132.562 227.874,131.965 228.474,131.505 228.738 C 131.029 229.011,130.460 229.740,130.184 230.431 C 129.917 231.097,129.457 231.772,129.162 231.930 C 127.097 233.036,127.082 246.718,129.144 248.982 C 129.449 249.317,129.975 250.228,130.313 251.006 C 130.660 251.803,131.201 252.522,131.553 252.652 C 131.896 252.779,132.338 253.212,132.534 253.613 C 132.730 254.015,133.444 254.610,134.121 254.937 C 134.798 255.264,135.620 255.774,135.948 256.071 C 138.186 258.101,148.671 258.039,151.002 255.982 C 151.492 255.550,152.267 255.038,152.723 254.844 C 153.180 254.650,153.782 254.092,154.060 253.603 C 154.338 253.114,154.712 252.713,154.891 252.712 C 155.409 252.709,156.107 251.777,156.673 250.334 C 156.960 249.599,157.373 248.891,157.588 248.760 C 159.666 247.503,159.849 234.358,157.816 232.325 C 157.432 231.941,156.852 231.026,156.528 230.292 C 156.203 229.557,155.628 228.812,155.251 228.634 C 154.874 228.457,154.296 227.889,153.966 227.371 C 153.593 226.785,152.934 226.287,152.222 226.054 C 151.593 225.847,150.689 225.351,150.214 224.951 C 148.734 223.706,141.867 223.079,138.530 223.884 M286.040 223.941 C 285.507 224.095,284.906 224.499,284.703 224.838 C 284.501 225.178,283.763 225.705,283.063 226.010 C 282.314 226.337,281.581 226.935,281.281 227.463 C 281.001 227.957,280.535 228.437,280.245 228.531 C 279.508 228.769,278.942 229.739,278.523 231.477 C 278.327 232.294,277.926 233.229,277.633 233.556 C 276.031 235.340,275.980 246.106,277.567 247.218 C 277.914 247.461,278.297 248.301,278.525 249.320 C 278.772 250.426,279.164 251.249,279.649 251.681 C 280.436 252.382,280.942 252.878,282.036 254.015 C 282.473 254.469,283.342 254.837,284.530 255.071 C 285.533 255.268,286.707 255.691,287.139 256.010 C 287.709 256.432,288.617 256.639,290.464 256.770 C 293.114 256.957,294.536 257.745,293.177 258.273 C 292.474 258.546,287.553 258.556,286.346 258.286 C 282.999 257.539,282.411 268.258,285.749 269.153 C 287.860 269.719,294.371 269.341,296.028 268.557 C 296.938 268.127,298.554 267.592,299.620 267.369 C 301.170 267.045,301.738 266.764,302.450 265.968 C 302.940 265.421,303.688 264.763,304.112 264.506 C 304.536 264.250,305.046 263.647,305.245 263.166 C 305.444 262.685,305.933 262.117,306.332 261.904 C 307.159 261.461,307.495 260.394,307.781 257.313 C 308.344 251.220,310.123 248.673,311.256 252.336 C 311.688 253.730,312.686 255.085,313.281 255.085 C 313.390 255.085,313.904 255.465,314.424 255.930 C 316.986 258.217,327.067 258.095,327.974 255.766 C 328.169 255.265,328.209 255.268,328.678 255.828 C 329.891 257.275,330.573 257.461,334.682 257.461 L 338.576 257.461 339.444 256.593 L 340.312 255.725 340.310 243.898 C 340.308 231.095,340.220 230.233,338.806 229.188 C 338.321 228.829,337.668 228.103,337.357 227.575 C 336.902 226.804,336.412 226.497,334.872 226.022 C 333.818 225.696,332.624 225.099,332.219 224.694 C 331.270 223.744,329.375 223.501,324.201 223.662 C 320.281 223.784,319.489 223.971,318.189 225.079 C 317.862 225.358,317.010 225.752,316.296 225.956 C 315.123 226.291,314.641 226.665,313.208 228.360 C 312.962 228.649,312.534 229.014,312.255 229.170 C 311.574 229.551,310.938 232.386,311.261 233.602 C 311.541 234.660,312.861 235.584,314.483 235.858 C 315.051 235.954,316.240 236.433,317.126 236.922 L 318.736 237.812 317.423 238.148 C 315.311 238.688,314.612 239.032,313.434 240.111 C 312.823 240.671,312.217 241.128,312.088 241.128 C 311.958 241.128,311.616 242.047,311.327 243.170 L 310.801 245.212 309.913 244.957 C 308.556 244.568,308.544 244.488,308.558 235.985 C 308.578 224.058,308.411 223.747,302.153 223.989 C 299.956 224.074,297.685 224.331,296.882 224.586 C 296.103 224.834,295.471 224.908,295.471 224.752 C 295.471 223.755,288.701 223.173,286.040 223.941 M357.756 224.132 C 357.305 224.411,356.862 224.875,356.771 225.163 C 356.525 225.936,355.823 225.802,354.809 224.788 L 353.910 223.889 349.741 223.971 L 345.572 224.053 344.946 224.892 C 344.332 225.714,344.319 226.006,344.239 240.719 L 344.156 255.709 345.032 256.585 L 345.908 257.461 349.760 257.461 C 353.601 257.461,353.615 257.459,354.534 256.599 L 355.457 255.738 355.457 248.178 C 355.457 237.957,355.446 238.018,357.354 237.147 C 360.084 235.900,361.389 235.486,362.590 235.486 C 364.754 235.486,365.553 233.679,365.553 228.781 C 365.553 226.034,365.082 224.448,364.113 223.929 C 363.122 223.399,358.711 223.539,357.756 224.132 M246.276 224.518 C 244.105 225.592,244.098 225.638,244.098 237.958 L 244.098 248.804 244.800 249.643 C 245.187 250.105,245.718 251.227,245.981 252.138 C 246.439 253.721,247.201 254.788,247.874 254.788 C 248.046 254.788,248.637 255.238,249.187 255.788 C 251.548 258.152,259.939 258.132,262.584 255.757 C 262.899 255.474,263.103 255.424,263.103 255.630 C 263.103 257.278,270.325 258.161,273.049 256.845 C 274.815 255.992,274.824 255.919,274.923 241.425 C 275.045 223.604,275.227 224.169,269.272 223.956 C 262.963 223.731,263.024 223.630,262.785 234.744 C 262.556 245.477,262.236 246.474,259.020 246.474 C 256.849 246.474,256.867 246.556,256.867 236.447 C 256.867 226.062,256.668 225.182,254.101 224.219 C 252.557 223.639,247.674 223.826,246.276 224.518 M62.603 224.709 C 65.618 226.440,62.317 230.141,57.759 230.141 C 54.888 230.141,53.014 225.707,55.457 224.694 C 57.057 224.031,61.436 224.040,62.603 224.709 M113.905 225.802 C 114.713 226.191,115.876 226.649,116.489 226.818 C 117.617 227.130,120.486 229.738,122.103 231.923 C 123.636 233.994,124.184 239.766,123.348 245.045 C 122.870 248.063,122.537 248.897,121.235 250.331 C 120.866 250.738,120.564 251.174,120.564 251.301 C 120.564 251.817,118.407 253.580,117.369 253.912 C 116.758 254.108,115.834 254.585,115.315 254.972 C 113.451 256.363,107.349 256.744,105.271 255.598 C 104.781 255.328,103.634 254.735,102.723 254.280 C 101.240 253.539,99.547 251.940,97.299 249.158 C 95.102 246.438,95.253 234.225,97.514 231.785 C 97.942 231.323,98.293 230.800,98.293 230.622 C 98.293 230.193,101.460 227.235,102.098 227.069 C 102.373 226.997,103.226 226.775,103.993 226.575 C 104.760 226.376,105.628 225.968,105.923 225.670 C 106.807 224.775,111.952 224.860,113.905 225.802 M146.221 225.342 C 146.306 225.479,147.725 226.036,149.375 226.580 C 151.831 227.389,152.451 227.715,152.791 228.374 C 153.020 228.816,153.647 229.439,154.184 229.757 C 154.946 230.208,155.284 230.720,155.726 232.094 C 156.037 233.061,156.607 234.330,156.991 234.912 C 158.298 236.894,158.384 243.876,157.124 245.595 C 156.819 246.010,156.254 247.330,155.868 248.529 C 155.367 250.084,154.977 250.794,154.506 251.009 C 154.143 251.175,153.517 251.807,153.116 252.413 C 152.638 253.135,152.081 253.578,151.507 253.693 C 151.024 253.789,150.439 254.042,150.207 254.254 C 147.532 256.704,141.096 256.979,137.547 254.795 C 136.745 254.301,135.803 253.898,135.453 253.898 C 135.104 253.898,134.584 253.628,134.298 253.299 C 134.013 252.970,133.283 252.212,132.678 251.615 C 132.072 251.018,131.488 250.118,131.379 249.615 C 131.270 249.112,130.698 247.832,130.107 246.771 L 129.033 244.840 129.030 240.497 L 129.027 236.154 130.274 233.667 C 130.960 232.300,131.590 230.947,131.675 230.662 C 131.759 230.378,132.247 229.890,132.759 229.579 C 133.271 229.267,133.922 228.632,134.205 228.166 C 134.614 227.494,135.152 227.202,136.824 226.745 C 137.981 226.429,139.373 225.942,139.917 225.663 C 140.975 225.121,145.929 224.869,146.221 225.342 M293.096 225.363 C 293.096 226.298,295.748 226.922,298.360 226.602 C 299.793 226.426,302.064 226.282,303.408 226.281 C 307.109 226.280,306.830 224.873,306.687 242.823 C 306.557 259.127,306.562 259.071,304.907 260.983 C 304.432 261.532,303.921 262.303,303.772 262.696 C 303.622 263.089,303.194 263.527,302.820 263.669 C 302.446 263.812,301.572 264.402,300.878 264.982 C 299.365 266.246,299.492 266.206,295.026 266.835 C 292.504 267.191,290.642 267.280,288.653 267.140 C 284.907 266.877,284.781 266.754,284.781 263.335 C 284.781 259.392,284.591 259.540,289.663 259.540 L 293.930 259.540 295.221 258.468 C 298.805 255.491,297.898 253.339,293.393 254.129 C 284.779 255.639,278.842 251.420,278.842 243.787 C 278.842 243.153,278.616 242.159,278.339 241.580 C 277.867 240.589,277.867 240.441,278.341 239.120 C 278.618 238.346,278.844 237.290,278.843 236.772 C 278.842 235.779,279.537 232.683,280.099 231.180 C 280.282 230.690,280.876 229.912,281.419 229.451 C 281.961 228.990,282.405 228.438,282.405 228.223 C 282.405 227.825,283.445 227.256,285.467 226.546 C 286.089 226.327,286.824 225.919,287.100 225.638 C 287.651 225.078,293.096 224.828,293.096 225.363 M329.285 225.490 C 329.466 225.709,330.451 226.125,331.474 226.414 C 334.910 227.388,335.378 227.726,338.427 231.429 C 339.296 232.484,339.515 236.037,339.345 246.325 C 339.174 256.675,339.663 255.679,334.754 255.679 L 330.751 255.679 329.918 254.788 C 328.834 253.628,327.770 253.624,326.617 254.778 C 324.549 256.846,318.375 256.853,316.012 254.790 C 315.475 254.321,314.644 253.851,314.165 253.746 C 313.102 253.512,313.088 253.491,312.378 250.928 C 311.603 248.133,312.196 242.730,313.319 242.356 C 313.523 242.288,314.235 241.735,314.900 241.128 C 316.515 239.654,320.928 238.756,326.571 238.754 C 328.523 238.753,328.760 238.687,329.196 238.022 C 331.895 233.902,326.687 231.180,321.588 234.046 C 320.458 234.681,320.287 234.696,317.944 234.357 C 316.591 234.161,315.012 234.001,314.433 234.001 C 312.144 234.001,312.007 231.478,314.196 229.636 C 314.705 229.208,315.234 228.562,315.371 228.201 C 315.566 227.687,316.156 227.401,318.092 226.879 C 319.452 226.513,321.032 225.976,321.604 225.685 C 322.942 225.006,328.760 224.858,329.285 225.490 M362.781 225.448 C 364.098 225.924,364.536 227.199,364.092 229.268 C 363.916 230.091,363.771 231.232,363.771 231.803 C 363.771 233.032,362.161 233.983,360.059 233.996 C 358.673 234.005,357.520 234.645,355.632 236.454 L 354.269 237.760 354.234 245.755 C 354.214 250.152,354.113 254.150,354.008 254.640 L 353.818 255.531 349.774 255.613 C 345.800 255.694,345.726 255.684,345.491 255.019 C 345.051 253.777,345.002 228.014,345.438 227.171 C 345.931 226.219,352.276 225.894,354.331 226.716 C 355.893 227.341,356.749 227.288,357.738 226.503 C 359.618 225.011,360.856 224.752,362.781 225.448 M253.709 226.896 L 254.491 227.512 254.521 235.879 C 254.555 245.561,254.491 245.178,256.412 247.087 C 258.275 248.939,259.690 249.090,261.768 247.661 C 264.478 245.796,264.428 246.005,264.525 236.229 C 264.581 230.576,264.726 227.387,264.946 226.949 C 265.391 226.064,270.286 225.973,272.012 226.817 L 273.051 227.325 273.129 240.586 L 273.206 253.846 272.289 254.763 C 270.887 256.164,265.667 256.185,264.638 254.793 C 263.515 253.274,261.992 253.396,259.579 255.196 C 257.324 256.879,253.002 256.609,250.448 254.626 C 249.520 253.905,248.518 253.238,248.221 253.144 C 247.709 252.982,247.409 252.207,246.493 248.666 C 246.300 247.922,246.177 243.617,246.177 237.648 L 246.177 227.852 246.905 227.066 C 247.903 225.990,252.414 225.877,253.709 226.896 M107.598 233.248 C 105.134 234.368,104.974 234.802,104.974 240.373 C 104.974 245.820,105.228 246.669,107.132 247.601 C 107.742 247.899,108.527 248.325,108.878 248.548 C 110.216 249.399,113.367 247.597,114.024 245.604 C 114.244 244.939,114.514 244.395,114.625 244.395 C 115.564 244.395,115.927 237.979,115.030 237.234 C 114.763 237.012,114.313 236.293,114.031 235.635 C 113.398 234.157,113.109 233.914,111.062 233.137 C 109.125 232.402,109.484 232.390,107.598 233.248 M175.802 233.149 C 171.924 234.868,170.514 240.035,172.612 244.840 C 174.929 250.148,180.448 249.805,181.925 244.260 C 182.747 241.173,182.339 236.668,181.069 234.817 C 180.643 234.198,177.606 232.408,177.200 232.538 C 177.164 232.549,176.535 232.824,175.802 233.149 M291.521 233.115 C 289.675 233.817,289.265 234.179,288.625 235.672 C 288.335 236.351,287.944 237.000,287.757 237.116 C 286.454 237.921,286.625 243.362,287.985 244.385 C 288.101 244.472,288.463 245.077,288.790 245.730 C 290.219 248.585,296.020 248.298,297.171 245.316 C 297.855 243.543,297.900 237.432,297.243 235.635 C 296.860 234.590,293.963 232.437,293.096 232.553 C 293.014 232.564,292.306 232.817,291.521 233.115 M140.757 233.670 C 138.223 235.273,138.233 235.245,138.233 240.491 C 138.233 245.753,138.223 245.724,140.802 247.736 C 142.327 248.925,142.692 249.010,144.326 248.556 C 145.622 248.196,148.076 245.924,148.392 244.792 C 148.884 243.026,148.671 236.270,148.096 235.392 C 146.493 232.948,143.142 232.162,140.757 233.670 M111.626 234.854 C 113.158 235.283,113.828 244.428,112.430 245.826 C 111.749 246.507,108.154 246.480,107.094 245.786 L 106.310 245.272 106.310 240.416 C 106.310 235.356,106.365 235.125,107.647 234.810 C 108.512 234.598,110.800 234.623,111.626 234.854 M145.194 234.875 C 145.429 235.024,145.830 235.539,146.085 236.020 C 146.339 236.501,146.798 237.248,147.105 237.680 C 148.437 239.558,147.862 242.258,145.383 245.775 C 144.508 247.015,142.462 246.848,140.817 245.401 L 139.421 244.173 139.320 241.023 C 139.211 237.644,139.892 235.741,141.500 234.934 C 142.252 234.556,144.630 234.518,145.194 234.875 M179.062 234.983 C 180.355 235.425,180.469 235.886,180.510 240.831 C 180.550 245.605,180.485 245.836,179.023 246.069 C 178.385 246.171,177.795 246.366,177.711 246.501 C 177.627 246.637,177.221 246.619,176.808 246.462 C 176.394 246.305,175.740 246.177,175.353 246.177 C 173.995 246.177,173.439 239.655,174.450 235.581 C 174.687 234.629,177.107 234.315,179.062 234.983 M294.557 234.920 C 297.302 235.743,297.175 245.158,294.410 245.854 C 291.062 246.697,290.021 246.276,289.718 243.953 C 289.611 243.138,289.292 242.002,289.009 241.429 C 288.519 240.438,288.519 240.333,289.011 239.328 C 289.296 238.745,289.615 237.610,289.720 236.803 C 290.017 234.530,291.424 233.982,294.557 234.920 M328.627 234.987 C 329.792 236.152,324.559 237.317,322.936 236.253 C 321.295 235.178,322.550 234.547,326.001 234.711 C 327.359 234.776,328.540 234.900,328.627 234.987 M54.401 239.032 C 51.868 239.668,51.729 246.427,54.228 247.377 C 55.322 247.793,61.990 247.719,63.477 247.274 C 66.366 246.410,66.753 240.885,64.026 239.415 C 62.988 238.854,56.185 238.584,54.401 239.032 M62.943 240.591 C 63.276 240.948,63.549 241.349,63.549 241.481 C 63.549 241.614,63.740 241.722,63.974 241.722 C 64.563 241.722,64.821 242.717,64.589 244.090 C 64.273 245.960,59.694 246.860,55.662 245.844 L 54.343 245.512 54.343 242.896 C 54.343 239.812,53.975 240.042,59.008 239.981 C 62.079 239.944,62.385 239.991,62.943 240.591 M323.322 243.419 C 322.033 243.615,321.010 245.077,321.010 246.722 C 321.010 250.991,329.257 251.096,329.829 246.834 C 330.272 243.529,328.547 242.623,323.322 243.419 M328.631 245.063 C 329.843 246.995,324.529 249.875,322.851 248.196 C 322.296 247.641,322.406 245.567,323.014 245.105 C 323.710 244.577,328.305 244.543,328.631 245.063 M295.768 255.679 C 295.768 256.051,295.453 256.051,294.878 255.679 C 294.517 255.447,294.560 255.391,295.100 255.387 C 295.468 255.384,295.768 255.516,295.768 255.679 " stroke="none" fill="#a3dff7" fill-rule="evenodd"></path><path id="path5" d="M187.379 26.402 C 187.379 26.551,186.411 26.823,185.226 27.006 C 184.042 27.190,182.636 27.409,182.102 27.493 C 181.568 27.577,180.699 28.025,180.171 28.488 C 179.644 28.952,178.646 29.500,177.954 29.708 C 177.262 29.915,176.500 30.298,176.261 30.558 C 176.021 30.819,175.566 31.280,175.249 31.583 C 174.932 31.886,174.291 32.499,173.825 32.946 C 172.064 34.631,170.453 36.512,170.452 36.883 C 170.452 37.095,170.051 37.736,169.562 38.307 C 168.668 39.351,167.978 41.059,167.613 43.136 C 167.504 43.750,167.295 44.328,167.148 44.419 C 166.380 44.893,166.032 46.862,165.828 51.876 C 165.523 59.397,166.294 58.810,156.347 59.106 C 146.204 59.409,142.993 59.890,141.663 61.306 C 141.296 61.696,140.384 62.193,139.635 62.411 C 138.709 62.680,138.125 63.065,137.808 63.617 C 137.552 64.062,136.959 64.586,136.490 64.781 C 136.022 64.975,135.421 65.493,135.154 65.932 C 134.887 66.370,134.235 67.094,133.704 67.541 C 133.174 67.987,132.739 68.614,132.739 68.934 C 132.739 69.254,132.425 69.810,132.040 70.170 C 131.097 71.051,130.478 72.331,130.217 73.942 C 130.098 74.677,129.753 75.829,129.450 76.502 C 128.141 79.409,128.174 78.281,128.061 124.722 C 127.950 170.727,127.969 171.544,129.155 173.587 C 129.445 174.087,129.778 175.490,129.897 176.705 C 130.132 179.128,130.819 180.981,131.805 181.857 C 132.156 182.169,132.442 182.640,132.442 182.905 C 132.442 183.662,133.274 184.657,133.993 184.761 C 134.468 184.829,134.704 185.130,134.852 185.859 C 135.074 186.951,135.519 187.368,136.473 187.375 C 136.936 187.378,137.157 187.655,137.364 188.493 C 137.600 189.448,137.795 189.645,138.737 189.878 C 139.522 190.072,139.932 190.383,140.175 190.972 C 140.549 191.874,141.739 192.428,143.303 192.428 C 145.424 192.428,147.248 193.068,147.544 193.916 C 147.968 195.132,146.278 195.100,210.658 195.099 C 272.226 195.097,272.903 195.084,272.903 193.953 C 272.903 193.278,275.487 192.428,277.540 192.428 C 279.185 192.428,280.238 191.857,280.381 190.889 C 280.441 190.479,280.797 190.144,281.366 189.961 C 282.665 189.544,282.999 189.191,282.999 188.234 C 282.999 187.502,283.116 187.378,283.816 187.370 C 284.778 187.359,285.426 186.916,285.967 185.900 C 286.183 185.495,286.673 184.917,287.055 184.617 C 287.499 184.267,287.751 183.758,287.751 183.207 C 287.751 182.627,287.981 182.194,288.457 181.882 C 289.318 181.318,290.020 179.512,290.299 177.145 C 290.414 176.171,290.686 175.196,290.903 174.979 C 292.221 173.661,292.205 174.252,292.198 125.336 C 292.191 75.349,292.250 77.351,290.759 76.326 C 290.634 76.240,290.313 75.033,290.045 73.645 C 289.619 71.431,289.434 71.012,288.542 70.230 C 287.982 69.740,287.440 68.974,287.336 68.528 C 287.227 68.059,286.799 67.536,286.319 67.288 C 285.863 67.053,285.337 66.523,285.149 66.111 C 284.962 65.699,284.434 65.121,283.978 64.826 C 283.521 64.532,282.837 63.926,282.458 63.480 C 282.078 63.034,281.242 62.527,280.598 62.354 C 279.955 62.181,278.976 61.642,278.423 61.156 C 277.001 59.908,273.603 59.406,264.439 59.090 C 253.846 58.724,254.491 59.213,254.491 51.556 C 254.491 46.590,254.263 45.189,253.274 44.091 C 252.976 43.760,252.587 42.758,252.410 41.864 C 252.233 40.969,252.026 39.939,251.949 39.575 C 251.873 39.211,251.378 38.466,250.850 37.921 C 250.321 37.375,249.654 36.491,249.366 35.956 C 249.079 35.422,248.593 34.918,248.286 34.838 C 247.978 34.757,247.484 34.240,247.187 33.689 C 246.890 33.137,246.307 32.544,245.892 32.371 C 245.477 32.197,244.852 31.617,244.504 31.081 C 244.079 30.427,243.472 29.988,242.653 29.743 C 241.983 29.542,241.301 29.127,241.137 28.820 C 240.728 28.057,238.793 27.411,235.796 27.036 C 234.415 26.864,233.152 26.589,232.990 26.427 C 232.607 26.044,187.379 26.019,187.379 26.402 M236.425 27.739 C 237.851 28.014,239.215 28.527,240.369 29.224 C 241.339 29.810,242.274 30.289,242.447 30.287 C 242.620 30.286,243.296 30.831,243.950 31.497 C 244.603 32.164,245.960 33.481,246.964 34.424 C 247.969 35.367,249.078 36.700,249.428 37.386 C 249.778 38.072,250.256 38.707,250.490 38.797 C 250.724 38.887,251.117 39.649,251.363 40.490 C 253.085 46.376,253.089 46.402,253.272 51.819 C 253.424 56.334,253.544 57.349,254.046 58.352 L 254.640 59.540 257.461 59.729 C 259.013 59.833,262.888 59.936,266.073 59.958 C 273.274 60.006,275.395 60.291,277.302 61.464 C 278.097 61.954,279.279 62.541,279.927 62.770 C 280.576 62.999,281.517 63.568,282.020 64.035 C 282.522 64.503,283.315 65.241,283.783 65.676 C 285.419 67.198,287.157 69.131,287.157 69.428 C 287.157 69.593,287.620 70.283,288.185 70.960 C 288.753 71.639,289.299 72.684,289.403 73.289 C 289.951 76.490,290.447 78.524,290.717 78.692 C 290.923 78.819,290.990 93.765,290.925 124.889 L 290.829 170.898 290.048 174.165 C 289.619 175.961,289.260 177.594,289.252 177.792 C 289.243 177.991,288.854 178.592,288.387 179.128 C 287.920 179.665,287.372 180.617,287.168 181.243 C 286.964 181.870,286.210 183.043,285.492 183.851 C 284.774 184.659,284.187 185.447,284.187 185.602 C 284.187 185.756,283.665 186.149,283.027 186.474 C 282.389 186.800,281.601 187.405,281.274 187.820 C 280.948 188.235,279.905 188.917,278.958 189.337 C 278.010 189.756,276.866 190.361,276.416 190.682 C 274.388 192.126,274.646 192.120,210.097 192.125 C 144.135 192.130,146.053 192.178,143.812 190.470 C 143.246 190.038,142.117 189.441,141.304 189.144 C 139.817 188.601,138.705 187.697,135.892 184.749 C 134.307 183.088,132.743 180.921,132.741 180.384 C 132.740 180.212,132.426 179.645,132.042 179.126 C 131.287 178.102,130.765 176.274,129.779 171.195 C 129.146 167.936,129.145 167.831,129.241 124.573 C 129.342 78.994,129.354 78.564,130.633 75.130 C 130.785 74.722,130.984 74.042,131.076 73.619 C 131.298 72.590,133.780 68.493,134.798 67.475 C 135.245 67.027,135.667 66.529,135.735 66.367 C 135.802 66.205,136.526 65.543,137.342 64.895 C 138.159 64.247,138.894 63.625,138.976 63.511 C 139.059 63.398,139.727 63.070,140.461 62.782 C 141.196 62.495,142.344 61.889,143.013 61.436 C 144.645 60.332,147.173 60.052,157.090 59.874 C 161.418 59.797,165.186 59.644,165.464 59.536 C 166.437 59.157,166.851 57.099,166.989 51.967 C 167.094 48.074,167.245 46.702,167.725 45.286 C 168.057 44.306,168.423 42.970,168.538 42.316 C 168.653 41.663,169.331 40.182,170.045 39.025 C 170.759 37.868,171.344 36.812,171.344 36.678 C 171.344 36.463,172.672 34.985,174.220 33.477 C 176.042 31.703,178.026 30.272,179.047 29.997 C 179.695 29.823,180.405 29.500,180.625 29.281 C 181.341 28.565,182.866 27.918,184.470 27.651 C 187.325 27.176,233.908 27.255,236.425 27.739 M187.341 40.682 C 185.665 40.973,184.820 41.402,184.408 42.172 C 184.236 42.493,183.694 42.963,183.203 43.217 C 179.857 44.947,178.014 58.530,180.995 59.493 C 183.978 60.456,239.189 59.972,240.189 58.974 C 241.144 58.020,241.090 49.551,240.119 48.151 C 239.698 47.543,239.107 46.315,238.806 45.423 C 238.418 44.275,238.030 43.690,237.479 43.420 C 237.051 43.210,236.422 42.647,236.081 42.168 C 234.931 40.554,235.080 40.564,210.987 40.501 C 198.738 40.470,188.097 40.551,187.341 40.682 M227.194 42.059 L 232.711 42.240 233.033 43.095 C 233.301 43.804,233.527 43.950,234.360 43.950 C 235.236 43.950,235.400 44.072,235.648 44.915 C 235.858 45.628,236.173 45.951,236.857 46.153 L 237.782 46.425 238.419 50.755 C 239.763 59.879,242.544 59.060,210.245 59.055 C 177.801 59.050,180.421 59.758,181.839 51.373 C 182.101 49.822,182.353 48.092,182.398 47.530 C 182.468 46.658,182.618 46.472,183.423 46.265 C 184.141 46.081,184.446 45.779,184.702 45.003 C 184.995 44.116,185.181 43.971,186.135 43.892 C 187.081 43.813,187.244 43.690,187.324 42.989 L 187.418 42.177 195.491 42.098 C 215.946 41.898,222.060 41.891,227.194 42.059 M199.274 86.246 C 199.023 86.548,198.862 89.941,198.718 97.968 C 198.516 109.197,198.511 109.268,197.839 109.940 L 197.163 110.616 186.109 110.698 C 175.323 110.779,175.043 110.796,174.536 111.399 C 173.821 112.251,173.728 139.655,174.437 140.626 C 174.838 141.175,175.408 141.210,186.153 141.351 C 193.957 141.454,197.550 141.603,197.782 141.835 C 198.495 142.549,198.650 144.826,198.657 154.732 C 198.663 164.645,198.684 165.018,199.269 165.646 C 200.169 166.611,219.872 166.671,221.219 165.711 L 222.039 165.127 222.249 154.798 C 222.467 144.101,222.654 142.474,223.735 141.853 C 224.165 141.606,227.548 141.455,234.984 141.351 L 245.617 141.203 246.212 140.460 C 247.088 139.365,246.922 112.346,246.033 111.363 C 245.509 110.785,245.141 110.765,235.218 110.764 C 220.876 110.764,222.138 112.115,222.129 96.741 L 222.123 86.726 221.247 86.273 C 219.980 85.618,199.816 85.593,199.274 86.246 M217.827 88.041 C 218.812 88.145,219.765 88.322,219.944 88.435 C 220.335 88.682,220.568 92.332,220.823 102.222 L 221.012 109.567 221.971 110.676 C 223.086 111.965,223.557 112.030,235.486 112.528 C 238.998 112.675,242.686 112.890,243.681 113.005 L 245.492 113.215 245.686 118.570 C 246.027 127.987,245.929 139.799,245.509 140.072 C 245.304 140.204,240.393 140.379,234.595 140.462 C 221.409 140.650,221.958 140.471,221.465 144.730 C 221.311 146.057,221.096 151.216,220.986 156.196 L 220.787 165.251 219.896 165.441 C 218.735 165.689,201.755 165.689,200.594 165.441 L 199.703 165.251 199.489 154.415 C 199.266 143.153,199.093 141.609,197.985 140.997 C 197.518 140.739,194.059 140.577,186.043 140.439 C 179.837 140.331,174.725 140.225,174.684 140.203 C 174.523 140.116,174.622 121.302,174.804 117.508 L 174.998 113.467 176.512 113.120 C 177.344 112.929,180.965 112.658,184.558 112.518 C 201.167 111.869,199.413 113.567,199.694 97.869 C 199.784 92.817,199.931 88.611,200.021 88.522 C 200.687 87.855,212.922 87.525,217.827 88.041 " stroke="none" fill="#da9697" fill-rule="evenodd"></path></g></svg>