<svg id="svg" version="1.1" xmlns="http://www.w3.org/2000/svg" xmlns:xlink="http://www.w3.org/1999/xlink" width="400" height="423.76237623762376" viewBox="0, 0, 400,423.76237623762376"><g id="svgg"><path id="path0" d="M247.400 13.164 C 245.117 13.446,244.577 13.647,241.657 15.307 C 240.973 15.695,239.556 16.120,238.507 16.250 C 235.399 16.637,232.468 17.594,231.247 18.622 C 229.918 19.740,227.027 21.046,225.064 21.414 C 224.210 21.575,223.547 21.997,223.300 22.540 C 223.082 23.018,222.386 23.651,221.752 23.947 C 221.118 24.242,220.036 24.752,219.348 25.079 C 218.659 25.407,217.876 26.085,217.607 26.586 C 217.339 27.088,216.392 27.907,215.503 28.407 C 213.514 29.524,208.210 34.760,206.594 37.200 C 205.939 38.190,205.174 39.145,204.895 39.323 C 203.819 40.009,202.829 41.357,202.585 42.469 C 202.445 43.107,201.716 44.226,200.965 44.955 C 200.214 45.684,199.600 46.457,199.600 46.673 C 199.600 47.996,197.789 52.453,196.821 53.513 C 196.187 54.206,195.576 55.274,195.462 55.887 C 195.348 56.499,195.043 58.210,194.784 59.689 C 193.781 65.420,191.053 65.449,185.200 59.788 C 183.770 58.405,181.655 56.533,180.500 55.627 C 179.345 54.722,178.400 53.850,178.400 53.690 C 178.400 53.530,177.545 52.952,176.500 52.405 C 174.333 51.272,173.906 50.919,173.274 49.738 C 173.009 49.244,172.253 48.786,171.451 48.636 C 169.654 48.299,167.597 47.269,166.600 46.207 C 165.643 45.188,163.913 44.400,162.631 44.400 C 161.247 44.400,158.340 43.283,157.382 42.383 C 153.621 38.849,123.261 38.814,117.662 42.337 C 115.697 43.574,114.453 44.010,110.676 44.789 C 108.931 45.149,108.251 45.490,107.946 46.159 C 107.513 47.110,105.714 48.205,103.882 48.634 C 103.268 48.778,101.934 49.669,100.918 50.615 C 99.884 51.579,98.510 52.440,97.795 52.575 C 96.877 52.747,96.311 53.200,95.779 54.187 C 95.372 54.943,94.438 55.884,93.702 56.280 C 92.967 56.676,92.275 57.361,92.164 57.801 C 92.053 58.242,91.080 59.232,90.000 60.001 C 88.921 60.771,88.023 61.580,88.005 61.800 C 87.951 62.485,86.595 63.884,85.716 64.163 C 85.255 64.310,84.562 65.098,84.177 65.915 C 83.514 67.319,81.754 69.198,81.100 69.200 C 80.935 69.200,80.800 69.460,80.800 69.779 C 80.800 70.656,78.893 74.058,77.707 75.296 C 76.413 76.648,76.078 78.715,76.005 85.800 C 75.912 94.992,75.385 96.274,71.537 96.671 L 69.340 96.897 68.870 98.654 C 68.139 101.387,68.223 223.934,68.957 224.900 C 69.549 225.680,314.779 226.023,316.305 225.247 C 316.687 225.052,317.495 224.662,318.100 224.379 L 319.200 223.865 319.200 162.362 L 319.200 100.859 317.252 98.891 C 315.468 97.088,315.107 96.902,312.952 96.681 C 308.984 96.273,308.413 94.857,308.401 85.400 C 308.393 78.479,307.946 76.217,306.264 74.584 C 305.515 73.856,304.574 72.347,304.172 71.230 C 303.771 70.114,303.343 69.200,303.221 69.200 C 302.633 69.198,300.847 67.236,300.217 65.900 C 299.827 65.075,299.267 64.400,298.971 64.400 C 298.371 64.400,296.411 62.435,296.381 61.804 C 296.371 61.582,295.479 60.771,294.400 60.001 C 293.320 59.232,292.341 58.220,292.224 57.752 C 292.106 57.284,291.472 56.679,290.815 56.406 C 289.403 55.821,288.000 54.672,288.000 54.100 C 288.000 53.876,287.041 53.239,285.868 52.684 C 284.696 52.129,283.201 51.139,282.546 50.484 C 281.377 49.316,278.305 47.600,277.381 47.600 C 277.123 47.600,276.577 47.154,276.168 46.610 C 275.712 46.002,274.570 45.367,273.212 44.966 C 267.941 43.409,266.933 43.026,265.762 42.139 C 265.081 41.622,264.377 41.200,264.197 41.200 C 264.016 41.200,263.203 40.906,262.390 40.547 C 259.644 39.336,259.600 39.105,259.600 25.852 L 259.600 14.028 258.700 13.532 C 257.647 12.951,250.901 12.732,247.400 13.164 M245.652 26.470 C 247.408 28.181,247.345 26.054,247.526 89.070 C 247.718 155.673,247.721 155.559,245.850 157.430 L 244.585 158.695 237.060 158.992 C 228.932 159.313,226.401 159.770,224.332 161.288 C 222.904 162.337,220.957 162.980,217.869 163.423 C 216.807 163.575,215.769 163.903,215.562 164.150 C 215.355 164.398,214.874 164.970,214.493 165.422 C 214.112 165.874,212.990 166.622,212.000 167.085 C 211.010 167.549,209.826 168.282,209.369 168.715 C 206.192 171.726,202.938 172.475,201.287 170.575 L 200.374 169.525 200.509 119.262 C 200.644 69.037,200.645 68.998,201.511 66.200 C 201.987 64.660,202.382 63.290,202.388 63.155 C 202.395 63.020,202.921 62.255,203.557 61.454 C 204.193 60.653,205.036 58.923,205.430 57.608 C 205.825 56.288,206.679 54.635,207.337 53.915 C 207.992 53.198,208.937 51.686,209.437 50.556 C 209.936 49.426,210.877 48.073,211.527 47.550 C 212.176 47.028,213.022 45.978,213.406 45.218 C 214.688 42.684,221.574 35.957,223.869 34.997 C 224.567 34.706,225.448 33.993,225.828 33.414 C 226.246 32.775,227.755 31.795,229.659 30.924 C 231.387 30.135,232.800 29.375,232.800 29.235 C 232.800 28.674,235.579 27.597,238.571 26.998 C 240.314 26.649,242.204 26.027,242.769 25.615 C 243.847 24.830,244.025 24.883,245.652 26.470 M148.294 55.463 C 150.825 55.875,152.666 56.389,153.119 56.810 C 154.156 57.776,156.322 58.699,158.261 58.999 C 159.290 59.159,160.509 59.756,161.461 60.567 C 162.308 61.288,163.720 62.210,164.600 62.617 C 165.480 63.025,166.875 64.042,167.700 64.879 C 168.524 65.715,169.390 66.400,169.623 66.400 C 170.424 66.400,181.887 78.190,182.846 80.000 L 183.800 81.800 183.911 135.707 L 184.022 189.614 183.029 190.607 C 181.395 192.242,177.871 191.501,175.600 189.044 C 174.536 187.893,171.989 186.400,171.091 186.400 C 170.793 186.400,170.052 185.880,169.443 185.245 C 168.788 184.562,167.409 183.813,166.068 183.413 C 162.601 182.378,161.839 182.042,160.779 181.081 C 159.287 179.729,158.032 179.307,154.571 178.998 C 150.242 178.612,146.860 177.795,145.538 176.817 C 144.378 175.959,133.111 175.539,132.180 176.318 C 131.183 177.154,128.172 177.808,120.000 178.966 C 116.275 179.494,115.399 179.787,114.200 180.906 C 113.204 181.835,111.428 182.654,109.606 183.023 C 108.083 183.331,106.717 184.119,105.368 185.468 C 104.889 185.947,103.711 186.558,102.749 186.827 C 101.658 187.131,100.474 187.876,99.600 188.808 C 98.830 189.630,97.390 190.609,96.400 190.984 C 95.410 191.360,94.267 191.966,93.860 192.331 C 92.883 193.209,91.337 191.418,90.990 189.007 C 90.316 184.328,90.997 82.206,91.710 80.900 C 92.101 80.185,92.598 79.600,92.814 79.600 C 93.030 79.600,93.760 78.702,94.435 77.605 C 95.110 76.508,96.184 75.238,96.822 74.784 C 97.460 74.330,98.275 73.340,98.634 72.585 C 98.992 71.830,99.854 70.861,100.548 70.432 C 101.243 70.002,102.220 69.100,102.718 68.426 C 103.216 67.751,103.872 67.200,104.174 67.200 C 104.477 67.200,105.659 66.300,106.800 65.200 C 107.941 64.100,109.128 63.200,109.438 63.200 C 109.747 63.200,110.000 63.020,110.000 62.800 C 110.000 62.580,110.256 62.400,110.569 62.400 C 110.882 62.400,111.647 61.980,112.269 61.467 C 113.845 60.167,115.438 59.371,118.000 58.602 C 119.210 58.239,120.855 57.516,121.655 56.996 C 124.936 54.860,139.449 54.025,148.294 55.463 M266.546 58.972 C 267.617 59.227,269.147 59.977,269.946 60.638 C 270.746 61.299,272.260 62.163,273.311 62.557 C 274.362 62.952,275.892 63.911,276.711 64.688 C 277.530 65.466,278.861 66.523,279.669 67.036 C 280.476 67.550,281.446 68.493,281.823 69.131 C 282.200 69.769,282.997 70.580,283.594 70.933 C 284.190 71.285,285.108 72.200,285.632 72.965 C 286.156 73.730,286.993 74.542,287.492 74.769 C 287.991 74.996,289.034 76.176,289.812 77.391 C 290.589 78.606,291.394 79.600,291.602 79.600 C 291.810 79.600,292.299 80.185,292.690 80.900 C 293.403 82.206,294.084 184.328,293.410 189.007 C 293.063 191.419,291.517 193.209,290.540 192.330 C 290.133 191.964,288.810 191.324,287.600 190.909 C 286.031 190.371,285.171 189.795,284.600 188.901 C 284.118 188.145,283.323 187.539,282.600 187.375 C 280.910 186.991,278.793 185.862,277.483 184.644 C 276.869 184.074,275.879 183.503,275.283 183.376 C 272.995 182.887,270.560 181.858,269.600 180.973 C 268.320 179.793,267.172 179.377,264.200 179.016 C 261.716 178.714,257.598 177.799,256.200 177.238 C 255.760 177.062,254.540 176.531,253.489 176.059 C 250.819 174.859,240.279 174.765,238.754 175.927 C 236.851 177.377,230.468 178.795,225.824 178.798 C 224.038 178.800,223.711 178.950,222.424 180.360 C 220.996 181.925,218.956 182.793,216.696 182.798 C 216.058 182.799,215.298 183.159,214.896 183.649 C 213.445 185.420,212.624 185.988,211.077 186.294 C 210.135 186.480,209.301 186.935,209.041 187.405 C 208.397 188.566,208.206 188.641,206.343 188.463 C 204.697 188.306,204.676 188.287,205.624 187.788 C 206.231 187.468,206.858 186.541,207.281 185.337 C 207.921 183.518,208.111 183.341,210.420 182.424 C 212.034 181.784,212.992 181.148,213.211 180.571 C 213.756 179.138,215.721 178.001,217.662 177.995 C 220.149 177.987,221.043 177.662,221.533 176.587 C 222.389 174.709,223.641 174.311,229.916 173.927 C 235.179 173.605,235.876 173.478,236.518 172.717 C 238.023 170.936,238.831 170.800,247.952 170.800 C 255.645 170.800,256.768 170.717,258.006 170.053 L 259.400 169.305 259.642 115.353 C 259.839 71.456,259.984 61.189,260.420 60.269 C 260.998 59.050,263.025 57.928,264.000 58.287 C 264.330 58.408,265.476 58.717,266.546 58.972 M146.935 193.000 C 148.202 193.330,149.698 193.600,150.258 193.600 C 153.057 193.600,157.600 195.678,157.600 196.958 C 157.600 197.408,160.004 199.598,160.500 199.599 C 161.729 199.603,160.399 200.711,158.688 201.109 C 154.662 202.045,117.241 201.772,116.000 200.797 L 115.000 200.012 116.700 198.422 C 117.635 197.548,118.400 196.632,118.400 196.387 C 118.400 194.787,121.119 193.853,128.800 192.815 C 133.056 192.240,144.464 192.356,146.935 193.000 M257.600 193.206 C 262.856 194.104,264.760 194.762,265.486 195.932 C 265.850 196.519,266.880 197.670,267.774 198.490 L 269.400 199.980 268.400 200.781 C 267.135 201.794,229.551 202.026,225.820 201.043 C 224.102 200.591,222.801 199.600,223.926 199.600 C 224.516 199.600,226.800 197.491,226.800 196.946 C 226.800 193.405,245.479 191.137,257.600 193.206 " stroke="none" fill="#fa0e1e" fill-rule="evenodd"></path><path id="path1" d="M0.000 211.800 L 0.000 423.600 200.000 423.600 L 400.000 423.600 400.000 211.800 L 400.000 0.000 200.000 0.000 L 0.000 0.000 0.000 211.800 M260.428 10.510 C 262.276 11.664,262.474 12.986,262.745 25.954 L 263.000 38.200 264.800 38.471 C 267.983 38.950,268.826 39.279,270.197 40.572 C 271.207 41.524,272.315 42.022,274.640 42.570 C 276.693 43.055,278.063 43.627,278.706 44.270 C 279.239 44.803,280.913 45.869,282.425 46.640 C 283.938 47.411,285.543 48.559,285.993 49.190 C 286.443 49.822,287.347 50.457,288.002 50.600 C 288.657 50.744,289.689 51.449,290.296 52.167 C 290.903 52.886,291.945 53.787,292.610 54.170 C 293.276 54.553,294.226 55.571,294.722 56.433 C 295.218 57.295,295.844 58.006,296.112 58.013 C 296.839 58.033,298.121 59.247,298.797 60.555 C 299.125 61.190,299.875 61.877,300.464 62.082 C 301.441 62.423,302.800 64.446,302.800 65.560 C 302.800 65.802,303.042 66.000,303.339 66.000 C 304.277 66.000,305.416 67.336,306.153 69.300 C 306.545 70.345,307.090 71.200,307.363 71.200 C 308.319 71.200,309.562 73.023,309.821 74.804 C 310.182 77.284,311.127 80.508,311.573 80.783 C 311.777 80.909,312.181 83.780,312.472 87.162 L 313.000 93.312 314.800 93.850 C 315.790 94.146,317.175 94.391,317.878 94.394 C 320.355 94.406,321.354 95.828,321.721 99.865 C 322.290 106.112,322.524 223.530,321.972 225.500 C 321.141 228.469,319.456 230.700,317.686 231.177 C 316.829 231.408,315.783 231.984,315.364 232.457 C 314.944 232.930,313.664 233.921,312.519 234.658 L 310.438 236.000 193.670 236.000 L 76.901 236.000 75.082 234.984 C 74.082 234.425,72.845 233.436,72.332 232.787 C 71.798 232.111,70.859 231.503,70.134 231.365 C 68.559 231.065,67.502 229.927,66.639 227.600 C 66.024 225.941,65.980 220.734,66.086 161.329 C 66.216 88.099,65.830 95.474,69.606 93.998 L 71.400 93.297 71.928 87.155 C 72.219 83.776,72.610 80.917,72.797 80.802 C 73.312 80.484,74.385 77.162,74.413 75.800 C 74.448 74.133,75.623 71.878,76.704 71.404 C 77.240 71.168,77.883 70.273,78.284 69.204 C 78.979 67.349,80.135 66.000,81.029 66.000 C 81.308 66.000,81.650 65.484,81.788 64.854 C 82.080 63.526,83.372 62.000,84.205 62.000 C 84.521 62.000,85.076 61.426,85.439 60.724 C 86.161 59.328,87.521 58.034,88.288 58.013 C 88.556 58.006,89.186 57.285,89.688 56.411 C 90.190 55.537,91.147 54.526,91.816 54.165 C 92.485 53.804,93.429 52.903,93.914 52.162 C 94.424 51.384,95.262 50.711,95.898 50.567 C 96.504 50.430,97.630 49.644,98.400 48.821 C 99.261 47.900,100.834 46.900,102.485 46.223 C 104.084 45.568,105.265 44.825,105.404 44.387 C 105.632 43.668,107.805 42.778,110.800 42.175 C 111.569 42.019,112.469 41.597,112.800 41.236 C 114.347 39.543,116.631 38.858,123.000 38.176 C 124.320 38.034,125.490 37.784,125.600 37.619 C 126.270 36.617,132.828 35.200,136.799 35.200 C 142.224 35.200,149.200 36.564,149.200 37.626 C 149.200 37.800,150.235 38.048,151.500 38.178 C 158.057 38.849,161.042 39.687,162.424 41.244 C 162.767 41.630,163.577 42.059,164.224 42.197 C 167.850 42.968,169.791 43.789,170.859 45.006 C 171.483 45.717,172.547 46.409,173.224 46.545 C 173.900 46.680,175.156 47.480,176.015 48.321 C 176.874 49.163,178.444 50.259,179.505 50.755 C 180.565 51.252,181.758 52.143,182.157 52.735 C 182.555 53.328,183.762 54.396,184.840 55.109 C 185.918 55.823,186.800 56.647,186.800 56.941 C 186.800 57.908,188.166 58.689,190.268 58.924 L 192.335 59.155 192.809 56.277 C 193.405 52.662,194.201 50.480,195.392 49.200 C 195.903 48.650,196.613 47.300,196.970 46.200 C 197.930 43.238,198.445 42.404,199.473 42.146 C 200.073 41.995,200.400 41.618,200.400 41.076 C 200.400 39.945,202.797 36.055,203.664 35.780 C 204.046 35.658,204.470 35.208,204.606 34.780 C 204.743 34.351,205.002 34.000,205.184 34.000 C 205.365 34.000,205.623 33.562,205.758 33.027 C 205.892 32.491,206.316 31.952,206.701 31.829 C 207.590 31.544,209.269 30.027,209.838 28.994 C 210.078 28.557,210.888 27.808,211.638 27.329 C 212.387 26.850,213.630 25.820,214.400 25.040 C 215.170 24.260,216.689 23.233,217.776 22.758 C 218.863 22.283,220.325 21.289,221.024 20.547 C 221.723 19.806,222.656 19.200,223.098 19.200 C 224.387 19.200,226.845 18.024,228.480 16.625 C 229.654 15.620,230.643 15.214,232.896 14.814 C 234.751 14.484,236.378 13.903,237.400 13.206 C 239.618 11.691,241.179 11.276,245.800 10.970 C 248.000 10.824,250.880 10.464,252.200 10.170 C 254.862 9.577,259.222 9.757,260.428 10.510 M239.600 30.593 L 239.600 31.586 241.100 30.750 C 243.150 29.607,243.151 29.600,241.267 29.600 C 239.759 29.600,239.600 29.695,239.600 30.593 M231.600 34.214 C 231.600 34.704,231.761 34.742,232.400 34.400 C 232.840 34.165,233.200 33.888,233.200 33.786 C 233.200 33.684,232.840 33.600,232.400 33.600 C 231.947 33.600,231.600 33.867,231.600 34.214 M236.527 38.059 C 234.727 38.215,232.894 38.536,232.453 38.771 C 232.013 39.007,231.289 39.200,230.846 39.200 C 230.402 39.200,229.440 39.817,228.708 40.570 C 227.976 41.324,226.901 42.060,226.320 42.206 C 225.738 42.352,224.753 43.001,224.131 43.649 C 223.509 44.297,222.325 45.184,221.500 45.622 C 220.675 46.059,220.000 46.571,220.000 46.761 C 220.000 47.254,217.532 49.600,217.014 49.600 C 216.775 49.600,216.224 50.365,215.790 51.300 C 215.189 52.593,214.665 53.108,213.602 53.452 C 212.392 53.843,212.167 54.120,211.928 55.521 C 211.554 57.711,210.620 59.413,209.227 60.443 C 208.250 61.166,208.023 61.681,207.787 63.710 C 207.534 65.894,207.334 66.288,205.654 67.921 L 203.800 69.723 203.686 118.928 C 203.578 165.915,203.675 170.812,204.659 168.167 C 205.054 167.107,206.850 165.601,207.720 165.600 C 208.726 165.600,210.779 164.511,212.200 163.224 C 212.860 162.626,214.210 161.907,215.200 161.625 C 217.652 160.929,220.000 159.938,220.000 159.600 C 220.000 158.778,224.631 157.547,229.800 156.996 C 232.169 156.743,233.290 156.430,237.594 154.821 C 238.801 154.369,240.715 154.000,241.848 154.000 C 243.645 154.000,243.937 153.886,244.148 153.100 C 244.475 151.881,244.464 51.671,244.137 44.511 L 243.877 38.821 242.638 38.449 C 240.503 37.806,239.886 37.767,236.527 38.059 M132.600 65.381 C 130.840 65.681,128.230 66.106,126.800 66.326 C 123.156 66.887,121.051 67.473,119.447 68.374 C 118.687 68.800,116.656 69.735,114.933 70.451 C 110.535 72.278,106.303 75.173,101.433 79.683 C 100.315 80.719,98.934 81.979,98.365 82.483 C 97.671 83.099,97.180 84.123,96.872 85.600 C 96.620 86.810,96.199 88.700,95.935 89.800 C 95.441 91.859,94.913 183.187,95.384 185.073 C 95.675 186.240,97.060 186.650,97.960 185.836 C 98.347 185.486,98.906 185.200,99.203 185.200 C 100.202 185.200,102.400 184.243,102.400 183.809 C 102.400 182.792,106.293 180.808,108.314 180.796 C 108.691 180.793,109.606 180.168,110.347 179.405 C 111.210 178.517,112.216 177.935,113.147 177.786 C 116.721 177.215,120.400 176.317,120.400 176.017 C 120.400 173.354,147.525 172.436,152.350 174.935 C 152.928 175.235,153.940 175.764,154.600 176.111 C 155.260 176.458,157.382 177.023,159.315 177.365 C 162.194 177.875,163.063 178.206,164.115 179.193 C 164.822 179.856,165.940 180.557,166.600 180.750 C 167.260 180.943,168.556 181.329,169.480 181.608 C 170.404 181.887,171.653 182.629,172.255 183.258 C 172.857 183.886,173.551 184.400,173.796 184.400 C 174.838 184.400,178.499 186.579,178.886 187.430 C 179.353 188.453,180.251 188.965,180.597 188.404 C 180.947 187.839,180.968 93.818,180.620 89.921 L 180.309 86.442 175.654 81.711 C 167.861 73.791,153.644 66.036,146.833 65.990 C 146.045 65.985,144.705 65.820,143.856 65.623 C 140.892 64.935,135.851 64.827,132.600 65.381 M264.342 71.082 L 263.284 71.245 263.017 78.123 C 262.871 81.905,262.807 105.200,262.875 129.889 L 263.000 174.778 263.860 175.638 C 264.450 176.228,265.895 176.737,268.460 177.259 C 271.765 177.931,272.340 178.178,273.400 179.384 C 274.242 180.342,275.077 180.826,276.200 181.010 C 278.401 181.369,281.093 182.639,281.693 183.600 C 281.968 184.040,283.058 184.687,284.117 185.039 C 285.176 185.391,286.256 186.021,286.517 186.439 C 287.102 187.375,287.464 187.393,288.329 186.528 C 288.949 185.907,289.000 182.347,289.000 139.228 L 289.000 92.600 288.072 88.200 C 287.208 84.107,286.588 82.701,285.276 81.867 C 284.988 81.683,283.908 80.741,282.876 79.773 C 281.844 78.805,280.871 78.011,280.714 78.007 C 280.556 78.003,279.845 77.431,279.133 76.735 C 277.136 74.783,271.789 71.707,269.563 71.229 C 267.576 70.803,266.378 70.770,264.342 71.082 M129.891 302.682 C 130.552 303.691,130.607 305.889,130.709 335.246 L 130.819 366.727 129.709 367.612 C 128.296 368.739,118.375 368.600,116.586 367.428 L 115.600 366.782 115.617 336.691 C 115.634 307.888,115.773 303.667,116.732 302.708 C 118.254 301.186,128.896 301.165,129.891 302.682 M220.861 302.300 C 224.332 306.456,222.704 312.800,218.167 312.800 C 214.980 312.800,213.350 314.447,214.500 316.505 C 215.624 318.516,216.072 318.800,218.124 318.800 C 222.704 318.800,224.900 322.650,223.555 328.323 C 222.904 331.071,221.635 331.996,218.514 331.998 C 216.305 332.000,215.870 332.138,214.614 333.241 L 213.200 334.483 213.194 350.541 C 213.191 359.374,213.042 366.829,212.864 367.109 C 211.969 368.521,201.039 368.908,198.900 367.604 L 197.600 366.812 197.594 350.706 C 197.591 341.848,197.456 334.416,197.294 334.191 C 196.667 333.318,194.772 332.400,193.596 332.400 C 191.448 332.400,190.539 331.032,190.209 327.298 C 189.802 322.703,191.089 318.800,193.011 318.800 C 195.203 318.800,197.189 316.313,197.592 313.062 C 198.040 309.451,199.354 306.659,201.029 305.756 C 201.783 305.350,202.400 304.908,202.400 304.774 C 202.400 302.454,219.118 300.214,220.861 302.300 M154.400 320.200 C 156.444 321.700,156.827 321.811,157.905 321.217 C 165.155 317.224,174.278 318.214,179.639 323.575 C 183.903 327.839,184.400 330.681,184.400 350.811 C 184.400 368.170,184.598 367.049,181.357 368.007 C 178.806 368.761,171.335 368.381,169.718 367.415 L 168.436 366.649 168.318 351.944 C 168.229 340.844,168.077 337.117,167.700 336.740 C 167.425 336.465,167.200 335.887,167.200 335.456 C 167.200 332.700,161.669 331.337,158.938 333.420 C 158.202 333.982,157.600 334.702,157.600 335.020 C 157.600 335.339,157.453 335.600,157.274 335.600 C 155.516 335.600,155.200 338.217,155.200 352.760 L 155.200 366.812 153.900 367.604 C 151.696 368.948,141.280 368.537,139.791 367.048 C 138.835 366.093,138.969 323.092,139.933 321.452 C 141.684 318.472,150.953 317.670,154.400 320.200 M256.157 319.131 C 256.270 319.313,257.495 319.783,258.881 320.176 C 263.066 321.362,263.733 321.687,265.451 323.377 C 266.359 324.269,267.467 325.329,267.913 325.730 C 268.360 326.132,269.777 328.562,271.062 331.130 L 273.400 335.800 273.381 343.400 C 273.360 351.483,272.871 354.288,271.219 355.782 C 270.808 356.154,270.354 356.930,270.209 357.505 C 269.721 359.451,265.039 364.800,263.824 364.800 C 263.560 364.800,262.592 365.443,261.673 366.230 C 258.071 369.313,242.549 369.616,239.120 366.669 C 238.537 366.168,237.371 365.407,236.530 364.979 C 235.688 364.551,234.640 363.759,234.200 363.220 C 233.760 362.681,232.645 361.538,231.723 360.679 C 230.766 359.789,229.928 358.583,229.772 357.872 C 229.621 357.187,229.366 356.350,229.204 356.013 C 229.043 355.676,228.391 354.336,227.755 353.037 C 226.038 349.523,226.009 335.679,227.716 333.928 C 227.999 333.638,228.559 332.500,228.961 331.400 C 229.828 329.025,231.435 326.412,232.489 325.661 C 232.905 325.365,233.910 324.455,234.723 323.638 C 238.125 320.219,242.418 318.895,250.276 318.840 C 253.398 318.818,256.045 318.949,256.157 319.131 M246.467 333.092 C 245.954 333.449,244.829 334.780,243.967 336.049 L 242.400 338.356 242.400 343.318 C 242.400 349.267,242.628 350.015,245.324 352.936 L 247.414 355.200 249.807 355.198 C 257.997 355.190,261.172 337.929,253.799 333.500 C 251.622 332.193,248.044 331.994,246.467 333.092 " stroke="none" fill="#fafafb" fill-rule="evenodd"></path><path id="path2" d="M118.680 301.986 C 115.546 302.593,115.638 301.556,115.617 336.691 L 115.600 366.782 116.586 367.428 C 118.375 368.600,128.296 368.739,129.709 367.612 L 130.819 366.727 130.709 335.246 C 130.579 297.646,131.283 301.578,124.691 301.646 C 122.221 301.671,119.516 301.824,118.680 301.986 M208.200 301.953 C 206.853 302.230,202.400 304.396,202.400 304.774 C 202.400 304.908,201.783 305.350,201.029 305.756 C 199.354 306.659,198.040 309.451,197.592 313.062 C 197.189 316.313,195.203 318.800,193.011 318.800 C 191.089 318.800,189.802 322.703,190.209 327.298 C 190.539 331.032,191.448 332.400,193.596 332.400 C 194.772 332.400,196.667 333.318,197.294 334.191 C 197.456 334.416,197.591 341.848,197.594 350.706 L 197.600 366.812 198.900 367.604 C 201.039 368.908,211.969 368.521,212.864 367.109 C 213.042 366.829,213.191 359.374,213.194 350.541 L 213.200 334.483 214.614 333.241 C 215.870 332.138,216.305 332.000,218.514 331.998 C 221.635 331.996,222.904 331.071,223.555 328.323 C 224.900 322.650,222.704 318.800,218.124 318.800 C 216.072 318.800,215.624 318.516,214.500 316.505 C 213.350 314.447,214.980 312.800,218.167 312.800 C 222.704 312.800,224.332 306.456,220.861 302.300 C 220.257 301.577,211.226 301.329,208.200 301.953 M142.404 319.594 C 139.110 320.897,139.262 319.701,139.229 344.529 C 139.204 363.365,139.283 366.540,139.791 367.048 C 141.280 368.537,151.696 368.948,153.900 367.604 L 155.200 366.812 155.200 352.760 C 155.200 338.217,155.516 335.600,157.274 335.600 C 157.453 335.600,157.600 335.339,157.600 335.020 C 157.600 334.702,158.202 333.982,158.938 333.420 C 161.669 331.337,167.200 332.700,167.200 335.456 C 167.200 335.887,167.425 336.465,167.700 336.740 C 168.077 337.117,168.229 340.844,168.318 351.944 L 168.436 366.649 169.718 367.415 C 172.372 369.001,181.725 368.655,183.700 366.899 C 184.536 366.155,184.769 337.410,183.975 332.973 C 182.345 323.862,176.625 318.800,167.959 318.800 C 164.927 318.800,160.255 319.923,157.905 321.217 C 156.827 321.811,156.444 321.700,154.400 320.200 C 152.094 318.507,145.936 318.196,142.404 319.594 M241.600 319.825 C 237.966 320.970,236.653 321.698,234.723 323.638 C 233.910 324.455,232.905 325.365,232.489 325.661 C 231.435 326.412,229.828 329.025,228.961 331.400 C 228.559 332.500,227.999 333.638,227.716 333.928 C 226.009 335.679,226.038 349.523,227.755 353.037 C 228.391 354.336,229.043 355.676,229.204 356.013 C 229.366 356.350,229.621 357.187,229.772 357.872 C 229.928 358.583,230.766 359.789,231.723 360.679 C 232.645 361.538,233.760 362.681,234.200 363.220 C 234.640 363.759,235.688 364.551,236.530 364.979 C 237.371 365.407,238.537 366.168,239.120 366.669 C 242.549 369.616,258.071 369.313,261.673 366.230 C 262.592 365.443,263.560 364.800,263.824 364.800 C 265.039 364.800,269.721 359.451,270.209 357.505 C 270.354 356.930,270.808 356.154,271.219 355.782 C 272.871 354.288,273.360 351.483,273.381 343.400 L 273.400 335.800 271.062 331.130 C 269.777 328.562,268.360 326.132,267.913 325.730 C 267.467 325.329,266.359 324.269,265.451 323.377 C 263.733 321.687,263.066 321.362,258.881 320.176 C 257.495 319.783,256.270 319.313,256.157 319.131 C 255.660 318.326,244.698 318.848,241.600 319.825 M253.799 333.500 C 261.172 337.929,257.997 355.190,249.807 355.198 L 247.414 355.200 245.324 352.936 C 242.628 350.015,242.400 349.267,242.400 343.318 L 242.400 338.356 243.967 336.049 C 246.687 332.043,249.960 331.194,253.799 333.500 " stroke="none" fill="#31b7ed" fill-rule="evenodd"></path><path id="path3" d="M252.200 10.170 C 250.880 10.464,248.000 10.824,245.800 10.970 C 241.179 11.276,239.618 11.691,237.400 13.206 C 236.378 13.903,234.751 14.484,232.896 14.814 C 230.643 15.214,229.654 15.620,228.480 16.625 C 226.845 18.024,224.387 19.200,223.098 19.200 C 222.656 19.200,221.723 19.806,221.024 20.547 C 220.325 21.289,218.863 22.283,217.776 22.758 C 216.689 23.233,215.170 24.260,214.400 25.040 C 213.630 25.820,212.387 26.850,211.638 27.329 C 210.888 27.808,210.078 28.557,209.838 28.994 C 209.269 30.027,207.590 31.544,206.701 31.829 C 206.316 31.952,205.892 32.491,205.758 33.027 C 205.623 33.562,205.365 34.000,205.184 34.000 C 205.002 34.000,204.743 34.351,204.606 34.780 C 204.470 35.208,204.046 35.658,203.664 35.780 C 202.797 36.055,200.400 39.945,200.400 41.076 C 200.400 41.618,200.073 41.995,199.473 42.146 C 198.445 42.404,197.930 43.238,196.970 46.200 C 196.613 47.300,195.903 48.650,195.392 49.200 C 194.201 50.480,193.405 52.662,192.809 56.277 L 192.335 59.155 190.268 58.924 C 188.166 58.689,186.800 57.908,186.800 56.941 C 186.800 56.647,185.918 55.823,184.840 55.109 C 183.762 54.396,182.555 53.328,182.157 52.735 C 181.758 52.143,180.565 51.252,179.505 50.755 C 178.444 50.259,176.874 49.163,176.015 48.321 C 175.156 47.480,173.900 46.680,173.224 46.545 C 172.547 46.409,171.483 45.717,170.859 45.006 C 169.791 43.789,167.850 42.968,164.224 42.197 C 163.577 42.059,162.767 41.630,162.424 41.244 C 161.042 39.687,158.057 38.849,151.500 38.178 C 150.235 38.048,149.200 37.800,149.200 37.626 C 149.200 36.564,142.224 35.200,136.799 35.200 C 132.828 35.200,126.270 36.617,125.600 37.619 C 125.490 37.784,124.320 38.034,123.000 38.176 C 116.631 38.858,114.347 39.543,112.800 41.236 C 112.469 41.597,111.569 42.019,110.800 42.175 C 107.805 42.778,105.632 43.668,105.404 44.387 C 105.265 44.825,104.084 45.568,102.485 46.223 C 100.834 46.900,99.261 47.900,98.400 48.821 C 97.630 49.644,96.504 50.430,95.898 50.567 C 95.262 50.711,94.424 51.384,93.914 52.162 C 93.429 52.903,92.485 53.804,91.816 54.165 C 91.147 54.526,90.190 55.537,89.688 56.411 C 89.186 57.285,88.556 58.006,88.288 58.013 C 87.521 58.034,86.161 59.328,85.439 60.724 C 85.076 61.426,84.521 62.000,84.205 62.000 C 83.372 62.000,82.080 63.526,81.788 64.854 C 81.650 65.484,81.308 66.000,81.029 66.000 C 80.135 66.000,78.979 67.349,78.284 69.204 C 77.883 70.273,77.240 71.168,76.704 71.404 C 75.623 71.878,74.448 74.133,74.413 75.800 C 74.385 77.162,73.312 80.484,72.797 80.802 C 72.610 80.917,72.219 83.776,71.928 87.155 L 71.400 93.297 69.606 93.998 C 65.830 95.474,66.216 88.099,66.086 161.329 C 65.980 220.734,66.024 225.941,66.639 227.600 C 67.502 229.927,68.559 231.065,70.134 231.365 C 70.859 231.503,71.798 232.111,72.332 232.787 C 72.845 233.436,74.082 234.425,75.082 234.984 L 76.901 236.000 193.670 236.000 L 310.438 236.000 312.519 234.658 C 313.664 233.921,314.944 232.930,315.364 232.457 C 315.783 231.984,316.829 231.408,317.686 231.177 C 319.456 230.700,321.141 228.469,321.972 225.500 C 322.524 223.530,322.290 106.112,321.721 99.865 C 321.354 95.828,320.355 94.406,317.878 94.394 C 317.175 94.391,315.790 94.146,314.800 93.850 L 313.000 93.312 312.472 87.162 C 312.181 83.780,311.777 80.909,311.573 80.783 C 311.127 80.508,310.182 77.284,309.821 74.804 C 309.562 73.023,308.319 71.200,307.363 71.200 C 307.090 71.200,306.545 70.345,306.153 69.300 C 305.416 67.336,304.277 66.000,303.339 66.000 C 303.042 66.000,302.800 65.802,302.800 65.560 C 302.800 64.446,301.441 62.423,300.464 62.082 C 299.875 61.877,299.125 61.190,298.797 60.555 C 298.121 59.247,296.839 58.033,296.112 58.013 C 295.844 58.006,295.218 57.295,294.722 56.433 C 294.226 55.571,293.276 54.553,292.610 54.170 C 291.945 53.787,290.903 52.886,290.296 52.167 C 289.689 51.449,288.657 50.744,288.002 50.600 C 287.347 50.457,286.443 49.822,285.993 49.190 C 285.543 48.559,283.938 47.411,282.425 46.640 C 280.913 45.869,279.239 44.803,278.706 44.270 C 278.063 43.627,276.693 43.055,274.640 42.570 C 272.315 42.022,271.207 41.524,270.197 40.572 C 268.826 39.279,267.983 38.950,264.800 38.471 L 263.000 38.200 262.745 25.954 C 262.422 10.469,262.341 10.237,257.128 9.832 C 255.704 9.721,253.552 9.869,252.200 10.170 M258.394 11.646 C 261.134 12.466,261.200 12.808,261.200 26.133 L 261.200 37.942 262.228 38.751 C 262.794 39.196,264.223 39.841,265.404 40.184 C 266.585 40.527,267.806 41.063,268.117 41.374 C 268.865 42.122,270.907 42.956,273.532 43.584 C 274.704 43.865,276.414 44.667,277.332 45.366 C 278.249 46.064,279.860 47.052,280.912 47.559 C 281.963 48.067,283.570 49.107,284.484 49.870 C 285.397 50.633,286.832 51.608,287.672 52.037 C 288.512 52.466,289.200 52.993,289.200 53.209 C 289.200 53.425,290.055 54.221,291.100 54.979 C 292.145 55.737,293.354 56.895,293.787 57.554 C 294.219 58.212,294.993 58.942,295.505 59.175 C 296.018 59.409,296.734 60.117,297.097 60.749 C 297.460 61.381,298.276 62.236,298.911 62.649 C 299.546 63.062,300.628 64.210,301.315 65.200 C 302.003 66.190,302.948 67.305,303.417 67.677 C 303.885 68.050,304.700 69.265,305.228 70.377 C 305.757 71.490,306.324 72.400,306.489 72.400 C 306.945 72.400,308.572 75.195,309.166 77.000 C 309.485 77.969,309.761 81.361,309.867 85.600 C 310.095 94.771,309.735 94.246,317.000 95.969 C 320.140 96.713,320.077 96.536,320.435 105.673 C 320.917 117.946,320.884 223.327,320.398 224.604 C 319.692 226.461,319.027 226.779,314.930 227.216 C 310.280 227.712,70.170 227.586,69.179 227.087 C 67.088 226.035,67.197 229.698,67.232 162.138 C 67.269 90.180,66.919 96.411,71.000 95.098 C 74.139 94.088,74.163 94.030,74.420 86.800 C 74.711 78.609,75.863 73.641,77.731 72.521 C 78.025 72.345,78.699 71.325,79.226 70.256 C 79.754 69.187,80.557 68.017,81.010 67.656 C 81.464 67.295,82.397 66.190,83.085 65.200 C 83.772 64.210,84.879 63.046,85.543 62.613 C 86.207 62.181,86.933 61.425,87.157 60.935 C 87.381 60.444,88.067 59.721,88.682 59.328 C 89.297 58.935,90.065 58.251,90.388 57.807 C 90.989 56.983,92.057 55.909,93.430 54.750 C 93.854 54.392,94.668 53.582,95.240 52.950 C 95.811 52.317,96.801 51.535,97.440 51.211 C 98.078 50.887,99.264 50.043,100.075 49.334 C 100.886 48.626,102.277 47.829,103.164 47.563 C 104.052 47.298,105.098 46.792,105.489 46.440 C 107.997 44.181,108.903 43.661,110.783 43.402 C 111.892 43.250,112.900 42.962,113.023 42.763 C 113.146 42.563,113.519 42.400,113.850 42.400 C 114.182 42.400,115.026 41.967,115.727 41.438 C 116.615 40.767,118.149 40.275,120.800 39.812 C 122.890 39.447,126.400 38.774,128.600 38.318 C 133.283 37.346,139.758 37.188,143.600 37.951 C 149.461 39.116,154.660 40.004,155.606 40.002 C 156.160 40.001,157.240 40.362,158.006 40.805 C 160.362 42.164,162.696 43.144,164.284 43.440 C 165.773 43.717,168.871 45.391,169.133 46.060 C 169.207 46.247,169.522 46.400,169.833 46.400 C 170.145 46.400,170.400 46.566,170.400 46.768 C 170.400 46.971,170.985 47.259,171.700 47.410 C 172.415 47.560,173.549 48.205,174.220 48.842 C 174.891 49.480,176.357 50.586,177.477 51.301 C 179.932 52.866,182.572 55.049,185.550 57.974 C 187.584 59.973,191.826 62.530,192.474 62.147 C 192.825 61.939,193.846 58.329,194.212 56.000 C 194.524 54.011,195.298 52.291,196.423 51.084 C 196.828 50.648,197.282 49.737,197.431 49.059 C 197.580 48.381,197.833 47.550,197.994 47.213 C 198.939 45.228,199.812 43.750,200.244 43.400 C 200.516 43.180,201.224 42.100,201.817 41.000 C 202.409 39.900,203.329 38.582,203.860 38.072 C 204.391 37.562,205.245 36.479,205.758 35.667 C 207.031 33.651,211.366 29.321,213.800 27.636 C 214.900 26.874,216.111 25.856,216.491 25.374 C 216.871 24.891,218.041 24.095,219.091 23.605 C 220.141 23.115,221.306 22.419,221.681 22.057 C 222.055 21.696,222.616 21.190,222.928 20.934 C 223.570 20.405,226.943 19.200,227.781 19.200 C 228.085 19.200,228.393 19.058,228.467 18.883 C 228.892 17.873,231.759 16.427,234.600 15.788 C 236.360 15.393,238.790 14.570,240.000 13.960 C 243.908 11.989,254.917 10.604,258.394 11.646 M241.800 27.970 C 241.360 28.145,240.100 28.422,239.000 28.584 C 236.700 28.923,235.782 29.342,234.445 30.659 C 233.920 31.177,233.199 31.600,232.842 31.600 C 231.797 31.600,228.293 33.595,227.106 34.865 C 226.505 35.509,225.408 36.288,224.670 36.597 C 223.932 36.905,222.840 37.797,222.243 38.579 C 221.647 39.360,220.926 40.000,220.641 40.000 C 219.980 40.000,218.400 41.357,218.400 41.925 C 218.400 42.162,217.590 43.115,216.600 44.043 C 215.610 44.971,214.800 45.956,214.800 46.231 C 214.800 46.507,213.990 47.602,213.000 48.665 C 212.010 49.729,211.200 50.781,211.200 51.005 C 211.200 51.728,209.528 54.557,208.146 56.172 C 207.406 57.037,206.800 58.021,206.800 58.359 C 206.800 59.291,205.554 62.459,204.695 63.708 C 204.276 64.318,203.544 65.848,203.068 67.108 L 202.203 69.400 202.079 118.855 L 201.955 168.310 202.947 169.381 L 203.939 170.451 205.670 169.329 C 206.621 168.712,207.490 168.098,207.600 167.964 C 207.710 167.829,208.880 167.125,210.200 166.398 C 211.520 165.671,213.285 164.493,214.123 163.780 C 215.130 162.923,216.266 162.391,217.475 162.210 C 219.200 161.951,221.155 161.282,221.600 160.799 C 223.035 159.239,234.492 157.028,241.297 156.998 C 245.872 156.977,245.390 164.459,245.463 92.307 C 245.525 30.379,245.516 29.602,244.734 28.607 C 243.919 27.571,243.194 27.414,241.800 27.970 M242.767 29.757 C 242.675 29.843,241.925 30.290,241.100 30.750 L 239.600 31.586 239.600 30.593 C 239.600 29.695,239.759 29.600,241.267 29.600 C 242.183 29.600,242.858 29.671,242.767 29.757 M233.200 33.786 C 233.200 33.888,232.840 34.165,232.400 34.400 C 231.761 34.742,231.600 34.704,231.600 34.214 C 231.600 33.867,231.947 33.600,232.400 33.600 C 232.840 33.600,233.200 33.684,233.200 33.786 M242.638 38.449 L 243.877 38.821 244.137 44.511 C 244.464 51.671,244.475 151.881,244.148 153.100 C 243.937 153.886,243.645 154.000,241.848 154.000 C 240.715 154.000,238.801 154.369,237.594 154.821 C 233.290 156.430,232.169 156.743,229.800 156.996 C 224.631 157.547,220.000 158.778,220.000 159.600 C 220.000 159.938,217.652 160.929,215.200 161.625 C 214.210 161.907,212.860 162.626,212.200 163.224 C 210.779 164.511,208.726 165.600,207.720 165.600 C 206.850 165.601,205.054 167.107,204.659 168.167 C 203.675 170.812,203.578 165.915,203.686 118.928 L 203.800 69.723 205.654 67.921 C 207.334 66.288,207.534 65.894,207.787 63.710 C 208.023 61.681,208.250 61.166,209.227 60.443 C 210.620 59.413,211.554 57.711,211.928 55.521 C 212.167 54.120,212.392 53.843,213.602 53.452 C 214.665 53.108,215.189 52.593,215.790 51.300 C 216.224 50.365,216.775 49.600,217.014 49.600 C 217.532 49.600,220.000 47.254,220.000 46.761 C 220.000 46.571,220.675 46.059,221.500 45.622 C 222.325 45.184,223.509 44.297,224.131 43.649 C 224.753 43.001,225.738 42.352,226.320 42.206 C 226.901 42.060,227.976 41.324,228.708 40.570 C 229.440 39.817,230.402 39.200,230.846 39.200 C 231.289 39.200,232.013 39.007,232.453 38.771 C 233.327 38.304,239.312 37.682,240.600 37.925 C 241.040 38.008,241.957 38.244,242.638 38.449 M128.968 56.748 C 128.071 56.906,126.361 57.516,125.168 58.104 C 123.976 58.691,121.406 59.623,119.457 60.175 C 117.216 60.809,115.557 61.534,114.942 62.149 C 114.408 62.683,112.966 63.596,111.738 64.177 C 110.510 64.759,108.852 65.925,108.053 66.770 C 107.254 67.615,106.228 68.419,105.772 68.557 C 105.317 68.695,104.535 69.361,104.035 70.038 C 103.535 70.714,102.596 71.452,101.949 71.678 C 101.179 71.946,100.479 72.662,99.928 73.744 C 99.101 75.368,97.799 76.800,97.149 76.800 C 96.968 76.800,96.432 77.655,95.959 78.700 C 95.485 79.745,94.986 80.690,94.849 80.800 C 93.978 81.501,93.081 84.262,92.773 87.192 C 92.142 93.183,92.300 188.619,92.941 189.151 C 94.014 190.041,97.274 189.219,98.551 187.737 C 99.184 187.001,99.877 186.400,100.090 186.400 C 100.765 186.400,103.367 185.057,104.200 184.279 C 105.249 183.300,106.538 182.640,109.291 181.672 C 110.533 181.235,111.917 180.536,112.366 180.117 C 113.226 179.316,116.584 178.225,119.581 177.772 C 120.560 177.624,122.123 177.176,123.053 176.777 C 128.195 174.573,142.838 174.004,148.076 175.805 C 152.513 177.331,153.235 177.528,155.400 177.803 C 156.500 177.943,157.850 178.210,158.400 178.396 C 158.950 178.583,159.854 178.833,160.408 178.952 C 160.962 179.071,161.823 179.548,162.320 180.011 C 162.817 180.474,164.653 181.369,166.400 182.000 C 168.147 182.631,169.987 183.532,170.488 184.003 C 170.990 184.474,172.326 185.285,173.458 185.805 C 174.590 186.325,176.120 187.265,176.858 187.893 C 179.722 190.331,180.189 190.487,181.360 189.402 L 182.400 188.438 182.387 141.119 C 182.381 115.094,182.208 90.954,182.004 87.476 L 181.634 81.152 180.117 79.532 C 174.922 73.985,168.771 68.006,167.678 67.440 C 166.975 67.077,166.400 66.632,166.400 66.451 C 166.400 65.639,164.744 64.341,163.437 64.129 C 162.620 63.996,161.428 63.358,160.672 62.648 C 159.123 61.194,156.767 60.000,155.449 60.000 C 154.282 60.000,150.721 58.783,148.388 57.587 C 146.492 56.615,133.023 56.033,128.968 56.748 M262.709 60.686 C 261.712 61.797,261.593 66.604,261.210 121.200 C 261.017 148.810,260.740 172.516,260.595 173.880 L 260.331 176.360 261.706 176.935 C 262.463 177.251,263.873 177.636,264.841 177.791 C 267.442 178.206,270.018 179.123,271.600 180.196 C 272.370 180.718,273.450 181.318,274.000 181.529 C 276.725 182.574,278.620 183.403,278.800 183.629 C 279.270 184.220,282.438 186.000,283.019 186.000 C 283.369 186.000,284.488 186.810,285.507 187.800 C 287.459 189.697,290.316 190.324,291.520 189.120 C 292.095 188.545,292.196 93.889,291.628 87.600 C 291.326 84.243,290.509 81.572,289.551 80.800 C 289.414 80.690,288.915 79.745,288.441 78.700 C 287.968 77.655,287.411 76.800,287.204 76.800 C 286.583 76.800,284.000 74.359,284.000 73.773 C 284.000 73.473,283.595 73.020,283.100 72.765 C 281.774 72.083,280.000 70.332,280.000 69.705 C 280.000 69.405,279.386 68.903,278.635 68.589 C 277.884 68.275,276.412 67.276,275.363 66.368 C 274.314 65.460,272.993 64.530,272.428 64.302 C 269.612 63.166,268.786 62.718,268.314 62.071 C 268.031 61.683,267.016 61.136,266.058 60.854 C 265.100 60.573,264.099 60.259,263.833 60.157 C 263.567 60.055,263.061 60.293,262.709 60.686 M143.856 65.623 C 144.705 65.820,146.045 65.985,146.833 65.990 C 149.307 66.007,153.321 67.338,159.000 70.024 C 165.951 73.312,170.600 76.575,175.654 81.711 L 180.309 86.442 180.620 89.921 C 180.968 93.818,180.947 187.839,180.597 188.404 C 180.251 188.965,179.353 188.453,178.886 187.430 C 178.499 186.579,174.838 184.400,173.796 184.400 C 173.551 184.400,172.857 183.886,172.255 183.258 C 171.653 182.629,170.404 181.887,169.480 181.608 C 168.556 181.329,167.260 180.943,166.600 180.750 C 165.940 180.557,164.822 179.856,164.115 179.193 C 163.063 178.206,162.194 177.875,159.315 177.365 C 157.382 177.023,155.260 176.458,154.600 176.111 C 153.940 175.764,152.928 175.235,152.350 174.935 C 147.525 172.436,120.400 173.354,120.400 176.017 C 120.400 176.317,116.721 177.215,113.147 177.786 C 112.216 177.935,111.210 178.517,110.347 179.405 C 109.606 180.168,108.691 180.793,108.314 180.796 C 106.293 180.808,102.400 182.792,102.400 183.809 C 102.400 184.243,100.202 185.200,99.203 185.200 C 98.906 185.200,98.347 185.486,97.960 185.836 C 97.060 186.650,95.675 186.240,95.384 185.073 C 94.913 183.187,95.441 91.859,95.935 89.800 C 96.199 88.700,96.620 86.810,96.872 85.600 C 97.180 84.123,97.671 83.099,98.365 82.483 C 98.934 81.979,100.315 80.719,101.433 79.683 C 106.303 75.173,110.535 72.278,114.933 70.451 C 116.656 69.735,118.687 68.800,119.447 68.374 C 121.051 67.473,123.156 66.887,126.800 66.326 C 128.230 66.106,130.840 65.681,132.600 65.381 C 135.851 64.827,140.892 64.935,143.856 65.623 M269.563 71.229 C 271.789 71.707,277.136 74.783,279.133 76.735 C 279.845 77.431,280.556 78.003,280.714 78.007 C 280.871 78.011,281.844 78.805,282.876 79.773 C 283.908 80.741,284.988 81.683,285.276 81.867 C 286.588 82.701,287.208 84.107,288.072 88.200 L 289.000 92.600 289.000 139.228 C 289.000 182.347,288.949 185.907,288.329 186.528 C 287.464 187.393,287.102 187.375,286.517 186.439 C 286.256 186.021,285.176 185.391,284.117 185.039 C 283.058 184.687,281.968 184.040,281.693 183.600 C 281.093 182.639,278.401 181.369,276.200 181.010 C 275.077 180.826,274.242 180.342,273.400 179.384 C 272.340 178.178,271.765 177.931,268.460 177.259 C 265.895 176.737,264.450 176.228,263.860 175.638 L 263.000 174.778 262.875 129.889 C 262.807 105.200,262.871 81.905,263.017 78.123 L 263.284 71.245 264.342 71.082 C 266.378 70.770,267.576 70.803,269.563 71.229 M226.600 176.400 C 226.895 176.878,228.288 176.878,229.400 176.400 C 230.000 176.142,229.719 176.049,228.276 176.028 C 227.090 176.011,226.447 176.153,226.600 176.400 M126.600 194.773 C 125.280 194.945,123.581 195.345,122.825 195.662 L 121.450 196.238 122.825 197.219 L 124.200 198.200 136.200 198.330 C 148.392 198.463,150.588 198.269,151.911 196.946 C 152.617 196.240,152.426 196.017,150.493 195.291 C 148.760 194.641,130.627 194.247,126.600 194.773 M236.200 194.803 C 234.660 194.960,233.085 195.204,232.700 195.344 C 232.315 195.485,231.726 195.686,231.391 195.791 C 230.887 195.949,230.868 196.119,231.278 196.776 C 232.701 199.054,258.840 199.160,261.103 196.897 L 261.971 196.029 260.485 195.593 C 256.887 194.537,243.180 194.091,236.200 194.803 " stroke="none" fill="#e8a0a4" fill-rule="evenodd"></path><path id="path4" d="M249.800 11.669 C 244.394 12.343,242.180 12.860,240.000 13.960 C 238.790 14.570,236.360 15.393,234.600 15.788 C 231.759 16.427,228.892 17.873,228.467 18.883 C 228.393 19.058,228.085 19.200,227.781 19.200 C 226.943 19.200,223.570 20.405,222.928 20.934 C 222.616 21.190,222.055 21.696,221.681 22.057 C 221.306 22.419,220.141 23.115,219.091 23.605 C 218.041 24.095,216.871 24.891,216.491 25.374 C 216.111 25.856,214.900 26.874,213.800 27.636 C 211.366 29.321,207.031 33.651,205.758 35.667 C 205.245 36.479,204.391 37.562,203.860 38.072 C 203.329 38.582,202.409 39.900,201.817 41.000 C 201.224 42.100,200.516 43.180,200.244 43.400 C 199.812 43.750,198.939 45.228,197.994 47.213 C 197.833 47.550,197.580 48.381,197.431 49.059 C 197.282 49.737,196.828 50.648,196.423 51.084 C 195.298 52.291,194.524 54.011,194.212 56.000 C 193.846 58.329,192.825 61.939,192.474 62.147 C 191.826 62.530,187.584 59.973,185.550 57.974 C 182.572 55.049,179.932 52.866,177.477 51.301 C 176.357 50.586,174.891 49.480,174.220 48.842 C 173.549 48.205,172.415 47.560,171.700 47.410 C 170.985 47.259,170.400 46.971,170.400 46.768 C 170.400 46.566,170.145 46.400,169.833 46.400 C 169.522 46.400,169.207 46.247,169.133 46.060 C 168.871 45.391,165.773 43.717,164.284 43.440 C 162.696 43.144,160.362 42.164,158.006 40.805 C 157.240 40.362,156.160 40.001,155.606 40.002 C 154.660 40.004,149.461 39.116,143.600 37.951 C 139.758 37.188,133.283 37.346,128.600 38.318 C 126.400 38.774,122.890 39.447,120.800 39.812 C 118.149 40.275,116.615 40.767,115.727 41.438 C 115.026 41.967,114.182 42.400,113.850 42.400 C 113.519 42.400,113.146 42.563,113.023 42.763 C 112.900 42.962,111.892 43.250,110.783 43.402 C 108.903 43.661,107.997 44.181,105.489 46.440 C 105.098 46.792,104.052 47.298,103.164 47.563 C 102.277 47.829,100.886 48.626,100.075 49.334 C 99.264 50.043,98.078 50.887,97.440 51.211 C 96.801 51.535,95.811 52.317,95.240 52.950 C 94.668 53.582,93.854 54.392,93.430 54.750 C 92.057 55.909,90.989 56.983,90.388 57.807 C 90.065 58.251,89.297 58.935,88.682 59.328 C 88.067 59.721,87.381 60.444,87.157 60.935 C 86.933 61.425,86.207 62.181,85.543 62.613 C 84.879 63.046,83.772 64.210,83.085 65.200 C 82.397 66.190,81.464 67.295,81.010 67.656 C 80.557 68.017,79.754 69.187,79.226 70.256 C 78.699 71.325,78.025 72.345,77.731 72.521 C 75.863 73.641,74.711 78.609,74.420 86.800 C 74.163 94.030,74.139 94.088,71.000 95.098 C 66.919 96.411,67.269 90.180,67.232 162.138 C 67.197 229.698,67.088 226.035,69.179 227.087 C 70.170 227.586,310.280 227.712,314.930 227.216 C 319.027 226.779,319.692 226.461,320.398 224.604 C 320.884 223.327,320.917 117.946,320.435 105.673 C 320.077 96.536,320.140 96.713,317.000 95.969 C 309.735 94.246,310.095 94.771,309.867 85.600 C 309.761 81.361,309.485 77.969,309.166 77.000 C 308.572 75.195,306.945 72.400,306.489 72.400 C 306.324 72.400,305.757 71.490,305.228 70.377 C 304.700 69.265,303.885 68.050,303.417 67.677 C 302.948 67.305,302.003 66.190,301.315 65.200 C 300.628 64.210,299.546 63.062,298.911 62.649 C 298.276 62.236,297.460 61.381,297.097 60.749 C 296.734 60.117,296.018 59.409,295.505 59.175 C 294.993 58.942,294.219 58.212,293.787 57.554 C 293.354 56.895,292.145 55.737,291.100 54.979 C 290.055 54.221,289.200 53.425,289.200 53.209 C 289.200 52.993,288.512 52.466,287.672 52.037 C 286.832 51.608,285.397 50.633,284.484 49.870 C 283.570 49.107,281.963 48.067,280.912 47.559 C 279.860 47.052,278.249 46.064,277.332 45.366 C 276.414 44.667,274.704 43.865,273.532 43.584 C 270.907 42.956,268.865 42.122,268.117 41.374 C 267.806 41.063,266.585 40.527,265.404 40.184 C 264.223 39.841,262.794 39.196,262.228 38.751 L 261.200 37.942 261.200 26.133 C 261.200 10.272,261.184 10.251,249.800 11.669 M258.700 13.532 L 259.600 14.028 259.600 25.852 C 259.600 39.105,259.644 39.336,262.390 40.547 C 263.203 40.906,264.016 41.200,264.197 41.200 C 264.377 41.200,265.081 41.622,265.762 42.139 C 266.933 43.026,267.941 43.409,273.212 44.966 C 274.570 45.367,275.712 46.002,276.168 46.610 C 276.577 47.154,277.123 47.600,277.381 47.600 C 278.305 47.600,281.377 49.316,282.546 50.484 C 283.201 51.139,284.696 52.129,285.868 52.684 C 287.041 53.239,288.000 53.876,288.000 54.100 C 288.000 54.672,289.403 55.821,290.815 56.406 C 291.472 56.679,292.106 57.284,292.224 57.752 C 292.341 58.220,293.320 59.232,294.400 60.001 C 295.479 60.771,296.371 61.582,296.381 61.804 C 296.411 62.435,298.371 64.400,298.971 64.400 C 299.267 64.400,299.827 65.075,300.217 65.900 C 300.847 67.236,302.633 69.198,303.221 69.200 C 303.343 69.200,303.771 70.114,304.172 71.230 C 304.574 72.347,305.515 73.856,306.264 74.584 C 307.946 76.217,308.393 78.479,308.401 85.400 C 308.413 94.857,308.984 96.273,312.952 96.681 C 315.107 96.902,315.468 97.088,317.252 98.891 L 319.200 100.859 319.200 162.362 L 319.200 223.865 318.100 224.379 C 317.495 224.662,316.687 225.052,316.305 225.247 C 314.779 226.023,69.549 225.680,68.957 224.900 C 68.223 223.934,68.139 101.387,68.870 98.654 L 69.340 96.897 71.537 96.671 C 75.385 96.274,75.912 94.992,76.005 85.800 C 76.078 78.715,76.413 76.648,77.707 75.296 C 78.893 74.058,80.800 70.656,80.800 69.779 C 80.800 69.460,80.935 69.200,81.100 69.200 C 81.754 69.198,83.514 67.319,84.177 65.915 C 84.562 65.098,85.255 64.310,85.716 64.163 C 86.595 63.884,87.951 62.485,88.005 61.800 C 88.023 61.580,88.921 60.771,90.000 60.001 C 91.080 59.232,92.053 58.242,92.164 57.801 C 92.275 57.361,92.967 56.676,93.702 56.280 C 94.438 55.884,95.372 54.943,95.779 54.187 C 96.311 53.200,96.877 52.747,97.795 52.575 C 98.510 52.440,99.884 51.579,100.918 50.615 C 101.934 49.669,103.268 48.778,103.882 48.634 C 105.714 48.205,107.513 47.110,107.946 46.159 C 108.251 45.490,108.931 45.149,110.676 44.789 C 114.453 44.010,115.697 43.574,117.662 42.337 C 123.261 38.814,153.621 38.849,157.382 42.383 C 158.340 43.283,161.247 44.400,162.631 44.400 C 163.913 44.400,165.643 45.188,166.600 46.207 C 167.597 47.269,169.654 48.299,171.451 48.636 C 172.253 48.786,173.009 49.244,173.274 49.738 C 173.906 50.919,174.333 51.272,176.500 52.405 C 177.545 52.952,178.400 53.530,178.400 53.690 C 178.400 53.850,179.345 54.722,180.500 55.627 C 181.655 56.533,183.770 58.405,185.200 59.788 C 191.053 65.449,193.781 65.420,194.784 59.689 C 195.043 58.210,195.348 56.499,195.462 55.887 C 195.576 55.274,196.187 54.206,196.821 53.513 C 197.789 52.453,199.600 47.996,199.600 46.673 C 199.600 46.457,200.214 45.684,200.965 44.955 C 201.716 44.226,202.445 43.107,202.585 42.469 C 202.829 41.357,203.819 40.009,204.895 39.323 C 205.174 39.145,205.939 38.190,206.594 37.200 C 208.210 34.760,213.514 29.524,215.503 28.407 C 216.392 27.907,217.339 27.088,217.607 26.586 C 217.876 26.085,218.659 25.407,219.348 25.079 C 220.036 24.752,221.118 24.242,221.752 23.947 C 222.386 23.651,223.082 23.018,223.300 22.540 C 223.547 21.997,224.210 21.575,225.064 21.414 C 227.027 21.046,229.918 19.740,231.247 18.622 C 232.468 17.594,235.399 16.637,238.507 16.250 C 239.556 16.120,240.973 15.695,241.657 15.307 C 244.577 13.647,245.117 13.446,247.400 13.164 C 250.901 12.732,257.647 12.951,258.700 13.532 M242.769 25.615 C 242.204 26.027,240.314 26.649,238.571 26.998 C 235.579 27.597,232.800 28.674,232.800 29.235 C 232.800 29.375,231.387 30.135,229.659 30.924 C 227.755 31.795,226.246 32.775,225.828 33.414 C 225.448 33.993,224.567 34.706,223.869 34.997 C 221.574 35.957,214.688 42.684,213.406 45.218 C 213.022 45.978,212.176 47.028,211.527 47.550 C 210.877 48.073,209.936 49.426,209.437 50.556 C 208.937 51.686,207.992 53.198,207.337 53.915 C 206.679 54.635,205.825 56.288,205.430 57.608 C 205.036 58.923,204.193 60.653,203.557 61.454 C 202.921 62.255,202.395 63.020,202.388 63.155 C 202.382 63.290,201.987 64.660,201.511 66.200 C 200.645 68.998,200.644 69.037,200.509 119.262 L 200.374 169.525 201.287 170.575 C 202.938 172.475,206.192 171.726,209.369 168.715 C 209.826 168.282,211.010 167.549,212.000 167.085 C 212.990 166.622,214.112 165.874,214.493 165.422 C 214.874 164.970,215.355 164.398,215.562 164.150 C 215.769 163.903,216.807 163.575,217.869 163.423 C 220.957 162.980,222.904 162.337,224.332 161.288 C 226.401 159.770,228.932 159.313,237.060 158.992 L 244.585 158.695 245.850 157.430 C 247.721 155.559,247.718 155.673,247.526 89.070 C 247.345 26.054,247.408 28.181,245.652 26.470 C 244.025 24.883,243.847 24.830,242.769 25.615 M244.734 28.607 C 245.516 29.602,245.525 30.379,245.463 92.307 C 245.390 164.459,245.872 156.977,241.297 156.998 C 234.492 157.028,223.035 159.239,221.600 160.799 C 221.155 161.282,219.200 161.951,217.475 162.210 C 216.266 162.391,215.130 162.923,214.123 163.780 C 213.285 164.493,211.520 165.671,210.200 166.398 C 208.880 167.125,207.710 167.829,207.600 167.964 C 207.490 168.098,206.621 168.712,205.670 169.329 L 203.939 170.451 202.947 169.381 L 201.955 168.310 202.079 118.855 L 202.203 69.400 203.068 67.108 C 203.544 65.848,204.276 64.318,204.695 63.708 C 205.554 62.459,206.800 59.291,206.800 58.359 C 206.800 58.021,207.406 57.037,208.146 56.172 C 209.528 54.557,211.200 51.728,211.200 51.005 C 211.200 50.781,212.010 49.729,213.000 48.665 C 213.990 47.602,214.800 46.507,214.800 46.231 C 214.800 45.956,215.610 44.971,216.600 44.043 C 217.590 43.115,218.400 42.162,218.400 41.925 C 218.400 41.357,219.980 40.000,220.641 40.000 C 220.926 40.000,221.647 39.360,222.243 38.579 C 222.840 37.797,223.932 36.905,224.670 36.597 C 225.408 36.288,226.505 35.509,227.106 34.865 C 228.293 33.595,231.797 31.600,232.842 31.600 C 233.199 31.600,233.920 31.177,234.445 30.659 C 235.782 29.342,236.700 28.923,239.000 28.584 C 240.100 28.422,241.360 28.145,241.800 27.970 C 243.194 27.414,243.919 27.571,244.734 28.607 M126.055 55.472 C 124.435 55.789,122.455 56.475,121.655 56.996 C 120.855 57.516,119.210 58.239,118.000 58.602 C 115.438 59.371,113.845 60.167,112.269 61.467 C 111.647 61.980,110.882 62.400,110.569 62.400 C 110.256 62.400,110.000 62.580,110.000 62.800 C 110.000 63.020,109.747 63.200,109.438 63.200 C 109.128 63.200,107.941 64.100,106.800 65.200 C 105.659 66.300,104.477 67.200,104.174 67.200 C 103.872 67.200,103.216 67.751,102.718 68.426 C 102.220 69.100,101.243 70.002,100.548 70.432 C 99.854 70.861,98.992 71.830,98.634 72.585 C 98.275 73.340,97.460 74.330,96.822 74.784 C 96.184 75.238,95.110 76.508,94.435 77.605 C 93.760 78.702,93.030 79.600,92.814 79.600 C 92.598 79.600,92.101 80.185,91.710 80.900 C 90.997 82.206,90.316 184.328,90.990 189.007 C 91.337 191.418,92.883 193.209,93.860 192.331 C 94.267 191.966,95.410 191.360,96.400 190.984 C 97.390 190.609,98.830 189.630,99.600 188.808 C 100.474 187.876,101.658 187.131,102.749 186.827 C 103.711 186.558,104.889 185.947,105.368 185.468 C 106.717 184.119,108.083 183.331,109.606 183.023 C 111.428 182.654,113.204 181.835,114.200 180.906 C 115.399 179.787,116.275 179.494,120.000 178.966 C 128.172 177.808,131.183 177.154,132.180 176.318 C 133.111 175.539,144.378 175.959,145.538 176.817 C 146.860 177.795,150.242 178.612,154.571 178.998 C 158.032 179.307,159.287 179.729,160.779 181.081 C 161.839 182.042,162.601 182.378,166.068 183.413 C 167.409 183.813,168.788 184.562,169.443 185.245 C 170.052 185.880,170.793 186.400,171.091 186.400 C 171.989 186.400,174.536 187.893,175.600 189.044 C 177.871 191.501,181.395 192.242,183.029 190.607 L 184.022 189.614 183.911 135.707 L 183.800 81.800 182.846 80.000 C 181.887 78.190,170.424 66.400,169.623 66.400 C 169.390 66.400,168.524 65.715,167.700 64.879 C 166.875 64.042,165.480 63.025,164.600 62.617 C 163.720 62.210,162.308 61.288,161.461 60.567 C 160.509 59.756,159.290 59.159,158.261 58.999 C 156.322 58.699,154.156 57.776,153.119 56.810 C 151.152 54.978,133.130 54.087,126.055 55.472 M148.388 57.587 C 150.721 58.783,154.282 60.000,155.449 60.000 C 156.767 60.000,159.123 61.194,160.672 62.648 C 161.428 63.358,162.620 63.996,163.437 64.129 C 164.744 64.341,166.400 65.639,166.400 66.451 C 166.400 66.632,166.975 67.077,167.678 67.440 C 168.771 68.006,174.922 73.985,180.117 79.532 L 181.634 81.152 182.004 87.476 C 182.208 90.954,182.381 115.094,182.387 141.119 L 182.400 188.438 181.360 189.402 C 180.189 190.487,179.722 190.331,176.858 187.893 C 176.120 187.265,174.590 186.325,173.458 185.805 C 172.326 185.285,170.990 184.474,170.488 184.003 C 169.987 183.532,168.147 182.631,166.400 182.000 C 164.653 181.369,162.817 180.474,162.320 180.011 C 161.823 179.548,160.962 179.071,160.408 178.952 C 159.854 178.833,158.950 178.583,158.400 178.396 C 157.850 178.210,156.500 177.943,155.400 177.803 C 153.235 177.528,152.513 177.331,148.076 175.805 C 142.838 174.004,128.195 174.573,123.053 176.777 C 122.123 177.176,120.560 177.624,119.581 177.772 C 116.584 178.225,113.226 179.316,112.366 180.117 C 111.917 180.536,110.533 181.235,109.291 181.672 C 106.538 182.640,105.249 183.300,104.200 184.279 C 103.367 185.057,100.765 186.400,100.090 186.400 C 99.877 186.400,99.184 187.001,98.551 187.737 C 97.274 189.219,94.014 190.041,92.941 189.151 C 92.300 188.619,92.142 93.183,92.773 87.192 C 93.081 84.262,93.978 81.501,94.849 80.800 C 94.986 80.690,95.485 79.745,95.959 78.700 C 96.432 77.655,96.968 76.800,97.149 76.800 C 97.799 76.800,99.101 75.368,99.928 73.744 C 100.479 72.662,101.179 71.946,101.949 71.678 C 102.596 71.452,103.535 70.714,104.035 70.038 C 104.535 69.361,105.317 68.695,105.772 68.557 C 106.228 68.419,107.254 67.615,108.053 66.770 C 108.852 65.925,110.510 64.759,111.738 64.177 C 112.966 63.596,114.408 62.683,114.942 62.149 C 115.557 61.534,117.216 60.809,119.457 60.175 C 121.406 59.623,123.976 58.691,125.168 58.104 C 129.270 56.083,144.779 55.738,148.388 57.587 M262.178 58.602 C 259.770 59.660,259.905 56.624,259.642 115.353 L 259.400 169.305 258.006 170.053 C 256.768 170.717,255.645 170.800,247.952 170.800 C 238.831 170.800,238.023 170.936,236.518 172.717 C 235.876 173.478,235.179 173.605,229.916 173.927 C 223.641 174.311,222.389 174.709,221.533 176.587 C 221.043 177.662,220.149 177.987,217.662 177.995 C 215.721 178.001,213.756 179.138,213.211 180.571 C 212.992 181.148,212.034 181.784,210.420 182.424 C 208.111 183.341,207.921 183.518,207.281 185.337 C 206.858 186.541,206.231 187.468,205.624 187.788 C 204.676 188.287,204.697 188.306,206.343 188.463 C 208.206 188.641,208.397 188.566,209.041 187.405 C 209.301 186.935,210.135 186.480,211.077 186.294 C 212.624 185.988,213.445 185.420,214.896 183.649 C 215.298 183.159,216.058 182.799,216.696 182.798 C 218.956 182.793,220.996 181.925,222.424 180.360 C 223.711 178.950,224.038 178.800,225.824 178.798 C 230.468 178.795,236.851 177.377,238.754 175.927 C 240.279 174.765,250.819 174.859,253.489 176.059 C 254.540 176.531,255.760 177.062,256.200 177.238 C 257.598 177.799,261.716 178.714,264.200 179.016 C 267.172 179.377,268.320 179.793,269.600 180.973 C 270.560 181.858,272.995 182.887,275.283 183.376 C 275.879 183.503,276.869 184.074,277.483 184.644 C 278.793 185.862,280.910 186.991,282.600 187.375 C 283.323 187.539,284.118 188.145,284.600 188.901 C 285.171 189.795,286.031 190.371,287.600 190.909 C 288.810 191.324,290.133 191.964,290.540 192.330 C 291.517 193.209,293.063 191.419,293.410 189.007 C 294.084 184.328,293.403 82.206,292.690 80.900 C 292.299 80.185,291.810 79.600,291.602 79.600 C 291.394 79.600,290.589 78.606,289.812 77.391 C 289.034 76.176,287.991 74.996,287.492 74.769 C 286.993 74.542,286.156 73.730,285.632 72.965 C 285.108 72.200,284.190 71.285,283.594 70.933 C 282.997 70.580,282.200 69.769,281.823 69.131 C 281.446 68.493,280.476 67.550,279.669 67.036 C 278.861 66.523,277.530 65.466,276.711 64.688 C 275.892 63.911,274.362 62.952,273.311 62.557 C 272.260 62.163,270.746 61.299,269.946 60.638 C 269.147 59.977,267.617 59.227,266.546 58.972 C 265.476 58.717,264.330 58.408,264.000 58.287 C 263.670 58.165,262.850 58.307,262.178 58.602 M266.058 60.854 C 267.016 61.136,268.031 61.683,268.314 62.071 C 268.786 62.718,269.612 63.166,272.428 64.302 C 272.993 64.530,274.314 65.460,275.363 66.368 C 276.412 67.276,277.884 68.275,278.635 68.589 C 279.386 68.903,280.000 69.405,280.000 69.705 C 280.000 70.332,281.774 72.083,283.100 72.765 C 283.595 73.020,284.000 73.473,284.000 73.773 C 284.000 74.359,286.583 76.800,287.204 76.800 C 287.411 76.800,287.968 77.655,288.441 78.700 C 288.915 79.745,289.414 80.690,289.551 80.800 C 290.509 81.572,291.326 84.243,291.628 87.600 C 292.196 93.889,292.095 188.545,291.520 189.120 C 290.316 190.324,287.459 189.697,285.507 187.800 C 284.488 186.810,283.369 186.000,283.019 186.000 C 282.438 186.000,279.270 184.220,278.800 183.629 C 278.620 183.403,276.725 182.574,274.000 181.529 C 273.450 181.318,272.370 180.718,271.600 180.196 C 270.018 179.123,267.442 178.206,264.841 177.791 C 263.873 177.636,262.463 177.251,261.706 176.935 L 260.331 176.360 260.595 173.880 C 260.740 172.516,261.017 148.810,261.210 121.200 C 261.641 59.734,261.658 59.323,263.833 60.157 C 264.099 60.259,265.100 60.573,266.058 60.854 M229.400 176.400 C 228.288 176.878,226.895 176.878,226.600 176.400 C 226.447 176.153,227.090 176.011,228.276 176.028 C 229.719 176.049,230.000 176.142,229.400 176.400 M128.800 192.815 C 121.119 193.853,118.400 194.787,118.400 196.387 C 118.400 196.632,117.635 197.548,116.700 198.422 L 115.000 200.012 116.000 200.797 C 117.241 201.772,154.662 202.045,158.688 201.109 C 160.399 200.711,161.729 199.603,160.500 199.599 C 160.004 199.598,157.600 197.408,157.600 196.958 C 157.600 195.678,153.057 193.600,150.258 193.600 C 149.698 193.600,148.202 193.330,146.935 193.000 C 144.464 192.356,133.056 192.240,128.800 192.815 M235.800 193.058 C 229.879 194.058,226.800 195.388,226.800 196.946 C 226.800 197.491,224.516 199.600,223.926 199.600 C 222.801 199.600,224.102 200.591,225.820 201.043 C 229.551 202.026,267.135 201.794,268.400 200.781 L 269.400 199.980 267.774 198.490 C 266.880 197.670,265.850 196.519,265.486 195.932 C 263.782 193.185,245.516 191.416,235.800 193.058 M150.493 195.291 C 152.426 196.017,152.617 196.240,151.911 196.946 C 150.588 198.269,148.392 198.463,136.200 198.330 L 124.200 198.200 122.825 197.219 L 121.450 196.238 122.825 195.662 C 126.001 194.331,147.180 194.047,150.493 195.291 M255.200 194.793 C 257.290 194.993,259.668 195.353,260.485 195.593 L 261.971 196.029 261.103 196.897 C 258.840 199.160,232.701 199.054,231.278 196.776 C 230.868 196.119,230.887 195.949,231.391 195.791 C 231.726 195.686,232.315 195.485,232.700 195.344 C 234.996 194.507,248.707 194.170,255.200 194.793 " stroke="none" fill="#e4747c" fill-rule="evenodd"></path></g></svg>