<svg id="svg" version="1.1" xmlns="http://www.w3.org/2000/svg" xmlns:xlink="http://www.w3.org/1999/xlink" width="400" height="486.3636363636364" viewBox="0, 0, 400,486.3636363636364"><g id="svgg"><path id="path0" d="M178.800 20.757 C 178.800 21.301,175.642 22.498,173.400 22.802 C 167.887 23.550,162.770 24.817,162.507 25.500 C 162.401 25.775,162.064 26.000,161.757 26.000 C 161.451 26.000,161.199 26.135,161.197 26.300 C 161.193 26.803,158.795 28.000,157.791 28.000 C 157.272 28.000,156.736 28.180,156.600 28.400 C 156.464 28.620,156.016 28.800,155.605 28.800 C 155.194 28.800,154.504 29.250,154.071 29.800 C 153.639 30.350,153.086 30.800,152.842 30.800 C 152.599 30.800,152.400 30.939,152.400 31.109 C 152.400 31.474,150.225 32.628,148.800 33.020 C 147.665 33.332,146.400 34.331,146.400 34.916 C 146.400 35.373,144.510 37.200,144.038 37.200 C 143.589 37.200,141.600 39.086,141.600 39.511 C 141.600 40.015,139.835 41.600,139.274 41.600 C 139.013 41.600,138.800 41.780,138.800 42.000 C 138.800 42.220,138.575 42.402,138.300 42.405 C 138.025 42.407,137.458 43.124,137.039 43.997 C 136.621 44.870,135.966 45.684,135.584 45.805 C 134.360 46.194,132.899 47.839,132.610 49.156 C 132.453 49.871,131.661 51.051,130.811 51.838 C 129.955 52.630,128.996 54.063,128.614 55.122 C 127.276 58.825,127.099 59.193,126.133 60.289 C 124.750 61.858,124.207 63.051,123.627 65.800 C 123.128 68.160,121.399 72.398,120.767 72.810 C 118.343 74.388,118.283 111.096,120.702 112.764 C 121.363 113.219,122.899 117.014,123.225 118.997 C 123.821 122.622,124.281 124.369,124.844 125.145 C 125.150 125.566,125.865 126.515,126.434 127.255 C 127.003 127.995,127.766 129.410,128.130 130.400 C 128.493 131.390,129.437 132.920,130.226 133.800 C 131.016 134.680,132.018 136.167,132.452 137.105 C 132.887 138.043,133.926 139.483,134.762 140.305 C 135.598 141.127,136.600 142.356,136.989 143.035 C 137.378 143.715,138.394 144.702,139.248 145.230 C 140.102 145.757,140.800 146.328,140.800 146.498 C 140.800 147.102,142.890 149.140,143.966 149.586 C 144.568 149.835,145.631 150.729,146.329 151.572 C 147.149 152.564,148.410 153.436,149.898 154.039 C 151.916 154.858,153.171 155.703,155.000 157.473 C 155.268 157.732,156.547 158.253,157.842 158.629 C 159.137 159.006,160.897 159.783,161.754 160.357 C 164.374 162.111,165.751 162.761,166.894 162.781 C 167.496 162.791,168.756 162.969,169.694 163.175 C 170.632 163.382,172.840 163.842,174.600 164.198 C 176.360 164.554,179.251 165.285,181.024 165.822 C 186.936 167.615,193.903 167.129,204.200 164.207 C 205.300 163.895,207.550 163.432,209.200 163.178 C 213.068 162.584,215.362 161.853,216.404 160.882 C 217.431 159.925,219.249 159.033,221.552 158.354 C 222.516 158.070,224.029 157.289,224.915 156.619 C 227.432 154.715,228.542 154.061,229.309 154.029 C 229.699 154.013,230.876 153.100,231.926 152.000 C 232.975 150.900,233.974 150.000,234.147 150.000 C 234.392 150.000,239.043 145.673,240.481 144.106 C 240.636 143.938,241.599 142.916,242.621 141.836 C 243.643 140.756,244.841 139.179,245.282 138.332 C 245.724 137.484,246.589 136.388,247.205 135.896 C 247.820 135.403,248.863 133.830,249.522 132.400 C 250.180 130.970,251.281 129.170,251.967 128.400 C 253.127 127.099,254.400 123.948,254.400 122.376 C 254.400 121.380,255.459 119.015,256.169 118.426 C 257.336 117.457,258.025 115.417,258.402 111.815 C 258.610 109.827,259.060 105.590,259.401 102.400 C 260.097 95.893,259.920 87.149,258.965 80.904 C 258.654 78.872,258.400 76.469,258.400 75.566 C 258.400 73.290,257.286 69.599,256.237 68.400 C 255.145 67.152,254.607 65.952,253.994 63.400 C 253.730 62.300,253.446 61.130,253.362 60.800 C 253.278 60.470,252.577 59.480,251.805 58.600 C 251.034 57.720,249.923 55.727,249.337 54.170 C 248.582 52.167,247.958 51.161,247.198 50.725 C 246.607 50.386,245.741 49.317,245.273 48.350 C 244.805 47.383,244.021 46.324,243.531 45.996 C 243.041 45.668,242.271 44.967,241.820 44.438 C 241.369 43.908,240.295 42.828,239.433 42.038 C 238.571 41.247,237.401 40.082,236.833 39.449 C 236.265 38.816,235.381 37.916,234.870 37.449 C 234.358 36.982,233.034 35.745,231.926 34.700 C 230.819 33.655,229.667 32.800,229.366 32.800 C 228.531 32.800,226.528 31.470,225.616 30.311 C 225.101 29.657,223.953 29.026,222.500 28.600 C 219.102 27.603,217.286 26.777,216.281 25.772 C 215.305 24.796,212.565 23.925,208.200 23.204 C 205.467 22.753,200.896 21.465,199.505 20.755 C 198.594 20.289,178.800 20.291,178.800 20.757 M194.400 47.000 C 195.672 47.658,199.509 48.790,201.400 49.064 C 204.866 49.568,208.073 50.630,209.179 51.640 C 209.835 52.238,211.553 53.287,212.998 53.969 C 214.442 54.652,216.234 55.838,216.979 56.605 C 217.724 57.372,218.423 58.000,218.533 58.000 C 219.099 58.000,223.200 61.940,223.200 62.485 C 223.200 62.653,223.460 63.108,223.778 63.495 C 224.096 63.883,225.074 65.083,225.952 66.161 C 226.830 67.240,227.942 69.175,228.423 70.461 C 228.904 71.748,229.411 72.800,229.549 72.801 C 230.260 72.803,231.958 76.510,232.389 79.000 C 232.655 80.540,233.047 82.600,233.261 83.577 C 234.063 87.240,234.151 95.991,233.439 101.224 C 232.213 110.232,231.980 111.037,229.909 113.419 C 229.451 113.945,228.761 115.272,228.375 116.367 C 227.960 117.547,227.006 119.014,226.037 119.964 C 225.137 120.846,224.400 121.783,224.400 122.045 C 224.400 123.144,214.475 132.215,212.493 132.928 C 211.425 133.312,209.994 134.217,209.312 134.940 C 208.410 135.897,207.490 136.375,205.936 136.697 C 200.552 137.812,199.244 138.059,196.978 138.393 C 195.646 138.590,193.756 139.054,192.778 139.425 C 189.746 140.575,187.908 140.601,186.150 139.519 C 185.057 138.847,183.243 138.360,180.000 137.869 C 172.548 136.743,171.286 136.387,169.750 134.980 C 168.982 134.276,167.599 133.386,166.677 133.002 C 163.623 131.731,163.341 131.546,162.642 130.364 C 162.261 129.718,161.234 128.826,160.361 128.380 C 159.377 127.878,158.523 127.045,158.115 126.191 C 157.753 125.433,156.755 124.347,155.897 123.780 C 155.039 123.212,154.081 122.134,153.768 121.385 C 153.455 120.636,152.647 119.615,151.973 119.117 C 150.642 118.132,150.063 117.074,148.852 113.407 C 148.417 112.090,147.730 110.650,147.325 110.207 C 143.912 106.468,143.807 79.097,147.197 77.002 C 147.686 76.699,149.137 73.532,149.960 70.966 C 150.249 70.067,151.140 68.637,151.942 67.787 C 152.743 66.938,153.694 65.603,154.056 64.822 C 154.902 62.993,159.157 58.648,160.921 57.810 C 161.671 57.455,162.515 56.733,162.797 56.206 C 163.080 55.677,164.403 54.723,165.754 54.074 C 167.100 53.427,168.688 52.441,169.285 51.882 C 170.306 50.926,173.110 49.883,176.087 49.351 C 178.570 48.907,182.621 47.619,183.410 47.023 C 184.534 46.173,192.768 46.156,194.400 47.000 M185.621 181.592 C 184.862 181.779,181.532 182.045,178.221 182.183 C 168.489 182.590,165.474 183.073,161.800 184.814 C 159.787 185.768,157.487 186.499,155.600 186.785 C 151.946 187.338,148.538 188.351,147.951 189.059 C 146.985 190.222,142.085 192.000,139.843 192.000 C 139.286 192.000,138.104 192.787,136.839 194.000 C 135.661 195.130,134.372 196.006,133.876 196.013 C 133.394 196.020,132.651 196.290,132.224 196.613 C 131.796 196.936,131.136 197.200,130.756 197.200 C 130.376 197.200,129.492 197.807,128.792 198.549 C 128.092 199.291,126.825 200.128,125.976 200.408 C 124.577 200.870,122.000 202.910,122.000 203.557 C 122.000 203.700,121.370 204.157,120.600 204.572 C 119.830 204.987,119.200 205.478,119.200 205.663 C 119.200 205.848,118.975 206.004,118.700 206.009 C 118.425 206.014,117.324 206.818,116.254 207.796 C 115.183 208.773,113.526 209.952,112.572 210.414 C 111.618 210.875,110.733 211.580,110.607 211.979 C 110.262 213.064,109.155 214.202,107.728 214.936 C 107.029 215.297,106.348 215.935,106.214 216.355 C 105.896 217.357,104.035 219.205,102.911 219.633 C 102.423 219.819,101.773 220.568,101.469 221.297 C 101.164 222.025,99.972 223.697,98.819 225.011 C 97.666 226.325,96.374 228.078,95.949 228.908 C 95.524 229.737,94.686 230.852,94.088 231.386 C 93.093 232.275,92.703 232.908,91.212 236.056 C 90.937 236.637,90.307 237.329,89.812 237.593 C 88.807 238.132,88.004 239.639,87.165 242.569 C 86.833 243.725,85.997 245.186,85.141 246.107 C 84.255 247.060,83.496 248.406,83.208 249.538 C 82.947 250.562,82.568 251.813,82.367 252.319 C 82.165 252.824,81.999 253.544,81.998 253.919 C 81.997 254.293,81.368 255.284,80.601 256.119 C 79.833 256.955,79.099 258.125,78.970 258.719 C 78.840 259.314,78.569 260.322,78.367 260.960 C 78.165 261.598,78.000 262.726,78.000 263.468 C 78.000 264.957,76.275 269.570,75.483 270.200 C 74.703 270.821,74.087 274.085,73.595 280.200 C 73.348 283.280,72.974 286.970,72.764 288.400 C 72.554 289.830,72.277 295.500,72.148 301.000 L 71.914 311.000 72.996 313.400 C 73.591 314.720,74.285 315.932,74.539 316.094 C 74.793 316.256,126.421 316.391,189.269 316.394 L 303.539 316.400 304.869 315.302 C 307.276 313.317,307.174 313.973,307.187 300.495 C 307.200 287.926,307.159 287.498,305.757 285.600 C 305.341 285.037,305.102 283.478,303.978 274.000 C 303.553 270.407,302.516 266.400,302.012 266.400 C 301.352 266.400,299.825 262.107,299.410 259.085 C 299.086 256.733,298.205 254.560,296.991 253.116 C 296.153 252.121,295.223 249.772,294.647 247.200 C 294.524 246.650,293.639 245.249,292.680 244.087 C 291.718 242.919,290.642 241.034,290.276 239.875 C 289.864 238.567,289.008 237.145,288.005 236.101 C 287.120 235.180,285.834 233.250,285.147 231.813 C 284.461 230.376,283.729 229.200,283.521 229.200 C 283.008 229.200,282.000 228.158,282.000 227.629 C 282.000 227.393,281.823 227.200,281.608 227.200 C 281.392 227.200,281.098 226.705,280.954 226.100 C 280.661 224.867,279.696 223.600,279.051 223.600 C 278.564 223.600,276.800 221.656,276.800 221.120 C 276.800 220.638,275.143 219.012,274.064 218.434 C 273.582 218.176,272.765 217.294,272.247 216.474 C 271.729 215.654,270.651 214.630,269.850 214.199 C 269.050 213.768,268.304 213.126,268.191 212.773 C 267.879 211.790,265.800 209.602,265.164 209.587 C 264.397 209.570,263.547 208.851,262.458 207.300 C 261.956 206.585,261.234 206.000,260.854 206.000 C 260.076 206.000,258.926 205.209,256.932 203.300 C 256.185 202.585,255.459 202.000,255.318 202.000 C 255.178 202.000,254.779 201.760,254.431 201.466 C 254.084 201.172,253.170 200.692,252.400 200.399 C 251.630 200.106,250.460 199.271,249.800 198.544 C 249.036 197.702,247.597 196.847,245.839 196.191 C 244.321 195.625,242.320 194.493,241.393 193.677 C 240.003 192.454,239.189 192.100,236.754 191.662 C 233.990 191.166,230.800 189.653,230.800 188.839 C 230.800 188.436,227.160 187.483,222.800 186.744 C 220.959 186.432,218.611 185.647,216.723 184.713 C 213.355 183.046,212.645 182.936,198.800 181.946 C 189.324 181.268,187.173 181.210,185.621 181.592 M207.200 209.359 C 209.571 209.846,211.894 210.665,212.400 211.192 C 212.760 211.566,215.373 212.487,216.600 212.672 C 219.764 213.149,223.116 214.161,224.200 214.968 C 226.003 216.308,228.379 217.475,230.471 218.046 C 231.499 218.327,233.097 219.214,234.020 220.017 C 234.943 220.820,236.577 221.793,237.649 222.179 C 238.722 222.565,239.600 223.042,239.600 223.240 C 239.600 223.438,239.858 223.600,240.173 223.600 C 240.488 223.600,240.860 223.959,241.000 224.399 C 241.139 224.838,242.096 225.689,243.127 226.291 C 244.157 226.892,245.848 228.243,246.884 229.292 C 247.921 230.342,249.024 231.200,249.337 231.200 C 250.064 231.200,256.400 237.473,256.400 238.193 C 256.400 238.491,256.994 239.102,257.721 239.551 C 258.448 240.000,259.448 241.180,259.943 242.173 C 260.439 243.165,261.346 244.334,261.959 244.770 C 262.571 245.207,263.633 246.703,264.319 248.096 C 265.005 249.489,266.040 251.072,266.621 251.614 C 267.848 252.761,268.534 253.989,269.443 256.665 C 269.803 257.725,270.436 258.830,270.851 259.121 C 271.934 259.880,272.809 261.759,273.613 265.054 C 273.999 266.637,274.846 268.713,275.494 269.666 C 277.414 272.490,277.972 274.737,278.662 282.439 C 278.938 285.513,278.358 286.783,276.281 287.660 C 274.455 288.430,101.957 288.470,101.700 287.700 C 101.608 287.425,101.323 287.199,101.067 287.197 C 100.305 287.192,99.600 285.184,99.600 283.020 C 99.600 279.871,101.253 273.200,102.033 273.200 C 102.395 273.200,103.441 270.215,103.995 267.600 C 104.643 264.538,105.186 263.161,106.204 262.000 C 107.045 261.042,108.055 259.084,109.335 255.934 C 109.663 255.128,110.486 253.973,111.165 253.368 C 111.844 252.763,112.413 251.983,112.429 251.634 C 112.445 251.285,112.803 250.460,113.223 249.800 C 113.644 249.140,114.152 248.240,114.352 247.800 C 114.552 247.360,115.202 246.550,115.796 246.000 C 116.391 245.450,117.202 244.369,117.597 243.598 C 117.993 242.827,119.145 241.503,120.158 240.657 C 121.171 239.810,122.000 238.937,122.000 238.716 C 122.000 238.056,124.426 235.200,124.988 235.200 C 125.274 235.200,125.823 234.705,126.209 234.100 C 127.031 232.809,128.804 231.235,129.458 231.214 C 129.710 231.206,130.700 230.340,131.658 229.289 C 132.616 228.238,133.930 227.113,134.579 226.789 C 135.227 226.465,136.355 225.606,137.085 224.880 C 138.435 223.538,141.858 221.600,142.877 221.600 C 143.185 221.600,144.117 220.905,144.946 220.055 C 145.802 219.178,147.179 218.291,148.128 218.004 C 151.093 217.108,153.226 216.215,153.921 215.580 C 155.257 214.360,157.051 213.642,160.302 213.027 C 162.117 212.684,164.367 212.064,165.302 211.650 C 169.453 209.812,173.852 208.933,180.400 208.635 C 186.735 208.345,204.623 208.829,207.200 209.359 " stroke="none" fill="#fa0c1b" fill-rule="evenodd"></path><path id="path1" d="M0.000 243.000 L 0.000 486.000 200.000 486.000 L 400.000 486.000 400.000 243.000 L 400.000 0.000 200.000 0.000 L 0.000 0.000 0.000 243.000 M202.436 17.649 C 205.546 18.064,206.338 18.356,210.400 20.587 C 210.950 20.889,212.660 21.357,214.200 21.627 C 217.651 22.232,218.668 22.644,220.200 24.055 C 220.860 24.663,222.723 25.607,224.339 26.154 C 227.493 27.220,228.800 28.115,228.800 29.210 C 228.800 29.689,229.373 30.052,230.700 30.414 C 233.255 31.111,233.421 31.240,239.526 37.270 C 245.245 42.917,247.600 45.579,247.600 46.394 C 247.600 46.938,249.097 48.400,249.653 48.400 C 250.056 48.400,251.600 51.351,251.600 52.120 C 251.600 52.424,252.388 53.507,253.352 54.527 C 254.315 55.547,255.193 56.791,255.303 57.291 C 256.089 60.860,256.887 62.985,257.636 63.510 C 258.781 64.312,260.392 67.870,260.393 69.600 C 260.396 72.661,261.357 77.415,262.213 78.600 C 265.734 83.476,265.656 106.434,262.105 110.264 C 261.358 111.070,261.196 111.710,261.179 113.921 C 261.144 118.335,260.290 122.154,258.963 123.818 C 257.222 126.004,256.789 126.973,256.517 129.292 C 256.226 131.765,255.118 133.467,253.575 133.805 C 252.604 134.019,252.450 134.269,252.275 135.924 C 251.856 139.879,250.817 141.950,248.700 143.049 C 247.917 143.456,247.600 143.928,247.600 144.690 C 247.600 145.457,247.032 146.293,245.591 147.645 C 244.486 148.682,243.389 150.087,243.152 150.766 C 242.915 151.445,242.562 152.000,242.366 152.000 C 242.170 152.000,241.333 152.747,240.505 153.660 C 238.055 156.362,237.460 156.948,236.100 158.000 C 235.389 158.550,234.806 159.159,234.804 159.353 C 234.799 159.783,233.329 161.111,230.400 163.332 C 229.190 164.250,227.897 165.270,227.527 165.600 C 227.157 165.930,226.167 166.535,225.327 166.944 C 224.487 167.353,223.530 167.853,223.200 168.056 C 222.870 168.258,222.285 168.529,221.900 168.658 C 221.515 168.788,221.200 169.031,221.200 169.200 C 221.200 169.369,220.885 169.612,220.500 169.742 C 220.115 169.871,219.530 170.141,219.200 170.342 C 218.613 170.699,217.206 171.316,215.200 172.096 C 214.650 172.309,213.660 172.714,213.000 172.994 C 211.938 173.445,210.894 173.764,207.748 174.598 C 206.877 174.829,206.400 176.175,206.400 178.404 C 206.400 179.643,206.321 179.624,214.600 180.399 C 219.198 180.830,221.725 181.375,221.926 181.979 C 222.003 182.210,222.291 182.400,222.566 182.400 C 222.840 182.400,223.291 182.822,223.566 183.337 C 224.058 184.256,227.311 185.193,230.046 185.204 C 231.317 185.209,234.778 186.847,236.093 188.065 C 236.794 188.715,238.061 189.219,239.874 189.570 C 242.818 190.139,244.546 191.007,246.374 192.836 C 247.014 193.476,247.840 194.000,248.208 194.000 C 249.135 194.000,251.134 195.148,252.800 196.636 C 253.570 197.325,255.319 198.405,256.687 199.037 C 258.450 199.852,259.376 200.560,259.865 201.469 C 260.340 202.351,261.124 202.968,262.377 203.446 C 264.273 204.170,264.707 204.507,265.435 205.817 C 265.674 206.248,266.574 206.964,267.435 207.409 C 268.512 207.966,269.246 208.746,269.790 209.909 C 270.224 210.839,270.815 211.600,271.104 211.600 C 272.058 211.600,273.589 212.871,274.423 214.355 C 274.875 215.160,275.909 216.174,276.720 216.609 C 277.599 217.080,278.467 217.980,278.870 218.836 C 279.242 219.627,280.054 220.605,280.673 221.010 C 282.243 222.037,282.649 222.491,283.001 223.619 C 283.446 225.043,284.215 226.035,285.272 226.551 C 285.782 226.799,286.598 227.812,287.084 228.801 C 287.570 229.791,288.155 230.817,288.384 231.083 C 288.613 231.349,288.800 231.723,288.800 231.916 C 288.800 232.108,289.252 232.507,289.804 232.802 C 290.525 233.188,291.163 234.275,292.072 236.670 C 292.768 238.501,293.537 240.000,293.780 240.000 C 294.870 240.000,297.600 245.626,297.600 247.872 C 297.600 248.147,298.005 248.584,298.500 248.844 C 299.935 249.597,300.967 251.844,301.421 255.200 C 301.768 257.766,302.356 259.498,302.958 259.729 C 303.944 260.107,305.090 263.412,305.757 267.800 C 306.529 272.883,307.095 275.200,307.562 275.200 C 310.037 275.200,312.096 314.127,309.820 317.890 C 309.039 319.180,306.510 320.400,304.615 320.400 C 304.108 320.400,303.497 320.866,303.081 321.570 C 302.347 322.814,300.158 324.640,298.239 325.612 C 297.227 326.125,283.378 326.200,189.839 326.200 C 68.628 326.200,80.797 326.570,76.891 322.765 C 75.153 321.073,74.134 320.445,72.083 319.805 C 67.117 318.255,66.373 313.842,67.599 293.200 C 67.988 286.648,68.220 285.568,70.043 281.785 C 70.570 280.690,71.057 278.044,71.552 273.585 C 72.246 267.329,73.024 264.572,74.370 263.600 C 75.199 263.001,76.000 261.250,76.000 260.035 C 76.000 256.967,76.906 254.117,78.445 252.348 C 79.801 250.789,80.294 249.619,80.976 246.335 C 81.098 245.749,81.913 244.502,82.787 243.565 C 83.902 242.370,84.629 241.046,85.220 239.134 C 85.799 237.266,86.401 236.156,87.132 235.608 C 89.018 234.196,89.187 233.996,89.419 232.889 C 89.545 232.290,89.812 231.530,90.013 231.200 C 90.214 230.870,90.681 229.998,91.052 229.263 C 91.423 228.527,92.135 227.739,92.635 227.511 C 93.134 227.284,94.083 226.086,94.743 224.849 C 95.403 223.612,96.465 222.293,97.103 221.918 C 97.740 221.543,98.597 220.494,99.006 219.587 C 99.569 218.338,100.217 217.701,101.675 216.962 C 102.897 216.343,103.600 215.725,103.600 215.269 C 103.600 214.394,105.018 212.800,105.797 212.800 C 106.529 212.800,108.400 210.932,108.400 210.202 C 108.400 209.676,109.987 208.350,111.800 207.362 C 112.240 207.122,112.825 206.467,113.101 205.907 C 113.376 205.346,114.366 204.520,115.301 204.071 C 116.235 203.622,118.056 202.253,119.346 201.027 C 120.636 199.802,121.943 198.800,122.251 198.800 C 122.559 198.800,123.123 198.633,123.505 198.429 C 123.887 198.225,124.519 197.959,124.909 197.838 C 125.299 197.717,125.739 197.299,125.887 196.909 C 126.335 195.725,127.025 195.249,129.370 194.509 C 130.650 194.105,132.516 193.064,133.708 192.088 C 134.859 191.147,136.250 190.280,136.800 190.161 C 139.852 189.502,141.377 188.894,142.585 187.853 C 144.058 186.584,147.538 185.200,149.254 185.200 C 151.611 185.200,154.320 184.296,154.832 183.339 C 155.109 182.823,155.560 182.400,155.834 182.400 C 156.109 182.400,156.398 182.207,156.477 181.970 C 156.691 181.328,161.213 180.526,166.328 180.222 C 172.222 179.872,172.000 179.992,172.000 177.165 C 172.000 174.928,171.947 174.803,170.900 174.569 C 170.295 174.434,168.810 173.967,167.600 173.533 C 161.191 171.230,159.745 170.649,159.169 170.148 C 158.821 169.847,158.420 169.600,158.276 169.600 C 158.133 169.600,157.031 168.970,155.827 168.200 C 154.623 167.430,153.472 166.800,153.268 166.800 C 153.065 166.800,152.651 166.503,152.350 166.139 C 152.048 165.776,150.451 164.526,148.801 163.362 C 145.802 161.247,140.359 156.202,138.320 153.647 C 137.726 152.902,136.826 152.087,136.320 151.835 C 135.815 151.583,134.997 150.527,134.504 149.488 C 134.011 148.450,133.452 147.600,133.262 147.600 C 132.518 147.600,130.871 145.651,130.360 144.165 C 130.064 143.304,129.367 142.022,128.811 141.315 C 126.512 138.392,126.114 137.709,125.591 135.800 C 125.290 134.700,124.640 133.481,124.146 133.090 C 122.827 132.047,121.338 128.537,121.077 125.859 C 120.952 124.571,120.589 123.221,120.271 122.859 C 118.430 120.760,117.269 117.748,117.011 114.400 C 116.463 107.299,115.971 104.282,115.181 103.173 C 113.688 101.077,114.143 87.353,115.837 83.388 C 116.528 81.770,117.193 77.534,117.197 74.731 C 117.202 71.041,117.947 68.627,119.666 66.727 C 120.510 65.795,121.200 64.719,121.200 64.336 C 121.200 61.900,122.737 58.022,124.140 56.919 C 124.660 56.510,125.327 55.461,125.624 54.588 C 125.921 53.714,126.307 52.829,126.482 52.620 C 126.657 52.411,126.800 51.932,126.800 51.556 C 126.800 51.179,127.385 50.404,128.100 49.833 C 130.304 48.074,130.800 47.490,130.800 46.652 C 130.800 45.678,132.696 43.600,133.585 43.600 C 133.942 43.600,134.567 42.855,135.010 41.900 C 135.552 40.734,136.239 39.997,137.200 39.553 C 138.056 39.158,138.920 38.306,139.422 37.362 C 139.966 36.341,140.812 35.544,141.922 35.010 C 142.845 34.565,143.600 34.010,143.600 33.776 C 143.600 32.980,145.994 30.901,147.186 30.663 C 147.840 30.532,148.696 30.059,149.088 29.612 C 151.230 27.166,153.287 26.020,155.561 26.006 C 156.149 26.002,157.082 25.411,157.961 24.485 C 159.614 22.746,161.092 22.003,162.919 21.994 C 165.135 21.983,168.790 20.934,169.512 20.101 C 171.682 17.599,191.178 16.147,202.436 17.649 M182.400 59.031 C 179.497 59.529,176.889 60.188,176.000 60.650 C 175.450 60.936,174.190 61.432,173.200 61.751 C 169.103 63.074,163.578 66.001,161.796 67.792 C 161.353 68.236,160.048 69.383,158.894 70.339 C 157.740 71.296,156.690 72.498,156.562 73.011 C 156.426 73.550,155.750 74.217,154.959 74.593 C 153.179 75.437,152.634 76.400,152.012 79.800 C 151.730 81.340,151.273 82.870,150.997 83.200 C 150.721 83.530,150.384 84.160,150.248 84.600 C 150.113 85.040,149.462 85.975,148.801 86.678 L 147.600 87.957 147.600 94.924 C 147.600 101.667,147.630 101.922,148.526 102.845 C 149.607 103.959,150.089 105.163,150.989 109.000 C 152.038 113.471,152.383 114.335,153.673 115.706 C 154.342 116.418,155.338 117.956,155.886 119.125 C 156.545 120.533,157.232 121.384,157.917 121.644 C 159.030 122.068,160.068 123.292,160.416 124.592 C 160.535 125.036,161.345 125.734,162.216 126.142 C 164.235 127.087,165.200 127.946,165.200 128.798 C 165.200 129.531,166.750 130.400,168.057 130.400 C 168.508 130.400,169.444 130.696,170.138 131.057 C 170.832 131.419,171.850 131.940,172.400 132.216 C 172.950 132.492,173.567 133.071,173.771 133.502 C 175.288 136.717,201.704 136.434,205.485 133.163 C 206.923 131.918,210.099 130.400,211.264 130.400 C 211.705 130.400,212.359 129.837,212.813 129.068 C 213.245 128.335,214.094 127.489,214.699 127.187 C 216.168 126.455,218.000 124.771,218.000 124.154 C 218.000 123.881,218.495 123.291,219.100 122.842 C 221.521 121.047,221.992 120.572,221.996 119.922 C 221.998 119.549,222.900 118.469,224.000 117.522 C 225.552 116.185,226.000 115.538,226.000 114.628 C 226.000 113.407,226.642 111.034,227.251 110.000 C 227.446 109.670,227.729 109.130,227.880 108.800 C 228.251 107.990,229.059 107.200,229.516 107.200 C 230.177 107.200,230.462 100.481,230.169 91.825 L 229.884 83.400 228.511 82.000 C 227.129 80.591,225.200 77.274,225.200 76.305 C 225.200 76.019,223.535 74.067,221.500 71.968 C 215.344 65.619,209.554 62.497,198.600 59.621 C 196.671 59.115,184.499 58.672,182.400 59.031 M178.200 220.209 C 174.092 220.782,169.672 221.645,167.200 222.356 C 166.430 222.578,164.450 223.132,162.800 223.589 C 161.150 224.045,159.440 224.580,159.000 224.776 C 158.560 224.972,157.840 225.228,157.400 225.344 C 154.323 226.157,144.431 230.694,142.917 231.987 C 142.651 232.214,142.351 232.400,142.250 232.400 C 141.897 232.400,135.794 236.566,135.200 237.213 C 134.870 237.573,133.862 238.398,132.960 239.046 C 129.844 241.288,126.689 244.052,124.532 246.431 C 124.350 246.633,123.255 247.682,122.100 248.763 C 120.945 249.843,120.000 251.014,120.000 251.364 C 120.000 251.718,119.669 252.000,119.253 252.000 C 118.344 252.000,116.489 254.659,115.527 257.340 C 114.672 259.723,114.257 260.241,112.545 261.053 C 111.324 261.632,111.200 261.851,111.200 263.422 C 111.200 264.374,111.020 265.264,110.800 265.400 C 110.580 265.536,110.400 266.003,110.400 266.439 C 110.400 266.874,109.606 268.001,108.636 268.944 L 106.872 270.658 106.467 274.629 C 105.965 279.538,104.400 283.200,102.803 283.200 C 100.836 283.200,103.313 284.286,106.232 284.703 C 110.742 285.348,271.714 285.211,274.000 284.561 L 275.400 284.162 275.256 281.637 C 275.127 279.365,274.966 278.960,273.656 277.603 C 272.021 275.910,271.289 273.923,270.959 270.280 C 270.655 266.930,270.113 265.600,269.051 265.599 C 268.005 265.598,266.000 262.609,266.000 261.049 C 266.000 259.798,264.196 256.898,263.308 256.722 C 262.970 256.655,262.221 255.704,261.642 254.610 C 261.064 253.515,260.189 252.419,259.698 252.174 C 258.722 251.687,257.200 250.080,257.200 249.535 C 257.200 248.956,250.334 242.290,248.000 240.603 C 246.790 239.728,245.440 238.680,245.000 238.275 C 243.628 237.011,235.518 231.766,233.000 230.514 C 231.680 229.857,229.915 228.930,229.077 228.454 C 226.468 226.970,222.120 225.285,217.600 224.006 C 216.610 223.726,215.080 223.253,214.200 222.957 C 206.338 220.304,187.708 218.882,178.200 220.209 M254.086 374.710 C 254.809 375.321,255.910 376.080,256.534 376.396 C 261.241 378.785,260.931 388.931,256.081 391.197 C 252.379 392.926,252.400 392.909,252.400 394.313 C 252.400 396.073,253.910 397.600,255.650 397.600 C 257.098 397.600,258.400 398.565,258.400 399.638 C 258.400 400.031,258.580 400.464,258.800 400.600 C 259.060 400.761,259.200 409.914,259.200 426.754 L 259.200 452.661 258.230 453.572 C 256.760 454.952,244.931 454.722,242.900 453.273 L 241.600 452.346 241.600 427.152 L 241.600 401.958 242.497 400.401 C 243.423 398.792,243.606 398.702,249.860 396.802 C 251.221 396.389,251.564 396.082,251.760 395.099 C 252.180 393.002,252.103 392.905,249.800 392.617 C 248.590 392.466,247.600 392.219,247.600 392.069 C 247.600 391.918,247.015 391.536,246.300 391.220 C 240.080 388.467,239.110 380.322,244.594 376.885 C 245.477 376.331,246.586 375.467,247.058 374.964 C 247.626 374.358,248.503 373.998,249.658 373.895 C 250.616 373.810,251.709 373.708,252.086 373.670 C 252.463 373.631,253.363 374.100,254.086 374.710 M72.400 378.776 C 75.681 380.504,78.925 382.000,79.391 382.000 C 80.198 382.000,85.379 387.270,86.076 388.800 C 86.427 389.570,87.356 391.552,88.140 393.204 C 90.923 399.061,91.144 404.679,88.785 409.550 C 87.201 412.821,86.928 413.500,86.613 414.941 C 86.176 416.942,80.515 422.308,78.501 422.630 C 77.574 422.779,76.610 423.147,76.359 423.450 C 76.107 423.752,75.651 424.000,75.343 424.000 C 75.036 424.000,74.023 424.488,73.092 425.084 C 71.401 426.168,71.396 426.169,61.744 426.384 L 52.088 426.600 51.257 427.600 C 50.458 428.562,50.426 429.052,50.413 440.425 L 50.400 452.250 49.278 453.325 L 48.156 454.400 41.004 454.400 C 34.211 454.400,33.805 454.356,32.926 453.530 L 32.000 452.661 32.002 417.430 C 32.004 382.715,32.095 379.967,33.291 378.500 C 34.042 377.578,70.616 377.836,72.400 378.776 M230.982 378.617 C 232.029 379.408,232.761 382.361,232.782 385.880 C 232.806 389.680,231.623 390.800,227.588 390.800 C 223.475 390.800,222.198 392.707,224.074 396.046 L 224.947 397.600 227.668 397.600 C 232.295 397.600,234.725 400.711,234.276 406.061 C 233.866 410.948,231.896 412.800,227.105 412.800 C 224.852 412.800,224.626 412.889,223.354 414.278 L 222.000 415.756 222.000 434.268 L 222.000 452.779 220.700 453.486 C 219.647 454.059,218.178 454.219,212.970 454.330 L 206.540 454.466 205.270 453.398 L 204.000 452.329 204.000 433.934 L 204.000 415.538 202.897 414.436 C 202.223 413.762,201.159 413.232,200.158 413.072 C 196.733 412.524,195.594 410.386,195.607 404.523 C 195.616 400.066,196.513 398.577,200.004 397.224 C 203.707 395.789,204.398 394.860,204.404 391.305 C 204.413 386.745,205.768 383.939,208.932 381.928 C 210.070 381.206,211.060 380.476,211.133 380.307 C 211.207 380.138,211.691 380.000,212.210 380.000 C 212.728 380.000,213.262 379.823,213.396 379.606 C 214.336 378.085,229.175 377.250,230.982 378.617 M285.594 378.715 C 287.085 379.922,287.165 381.873,287.183 417.684 L 287.200 452.369 286.308 453.200 C 284.658 454.737,273.196 454.943,270.500 453.483 L 269.200 452.779 269.200 417.595 C 269.200 378.508,269.159 379.183,271.569 378.504 C 274.281 377.740,284.581 377.895,285.594 378.715 M52.156 393.506 C 50.015 394.922,49.544 409.614,51.570 411.769 C 53.400 413.715,61.245 413.204,65.400 410.868 C 70.691 407.894,71.454 407.113,71.801 404.312 C 72.212 400.984,69.963 396.898,66.775 395.184 C 64.237 393.820,53.538 392.592,52.156 393.506 M112.845 398.537 C 115.289 400.938,115.363 400.944,120.416 399.193 C 129.465 396.056,133.662 397.955,132.429 404.626 C 132.193 405.903,132.000 407.971,132.000 409.223 C 132.000 413.254,130.692 414.951,127.102 415.577 C 122.720 416.340,119.303 417.551,117.890 418.841 C 117.193 419.479,116.489 420.000,116.328 420.000 C 114.957 420.000,114.400 425.507,114.400 439.068 L 114.400 452.650 113.170 453.559 C 111.532 454.770,99.961 454.716,97.700 453.486 L 96.400 452.779 96.400 427.012 L 96.400 401.245 97.328 400.165 C 99.582 397.546,110.653 396.384,112.845 398.537 M174.200 399.200 C 177.885 400.537,179.339 401.514,183.216 405.259 C 185.291 407.263,186.800 409.681,186.800 411.001 C 186.800 411.615,188.150 414.206,188.986 415.200 C 189.908 416.294,190.192 418.924,190.196 426.400 L 190.200 433.800 188.551 437.200 C 187.643 439.070,186.782 441.108,186.636 441.728 C 186.286 443.214,184.803 445.455,183.800 446.012 C 183.360 446.256,182.538 447.118,181.974 447.928 C 181.401 448.751,180.079 449.839,178.974 450.397 C 177.888 450.945,176.782 451.685,176.516 452.042 C 175.257 453.727,165.531 455.621,161.136 455.036 C 159.961 454.879,157.708 454.593,156.128 454.398 C 153.290 454.049,150.345 452.894,149.721 451.885 C 149.545 451.599,148.820 451.091,148.111 450.757 C 145.705 449.621,140.800 444.442,140.800 443.036 C 140.800 442.720,140.153 441.614,139.363 440.579 C 136.955 437.424,136.665 435.810,136.630 425.361 C 136.598 415.586,136.620 415.446,138.632 412.600 C 139.485 411.394,140.810 408.733,141.564 406.715 C 141.787 406.118,142.651 405.191,143.484 404.655 C 144.318 404.119,145.583 403.049,146.296 402.278 C 147.164 401.340,148.288 400.678,149.696 400.276 C 152.053 399.602,154.138 398.983,156.800 398.165 C 160.340 397.078,169.921 397.647,174.200 399.200 M327.894 398.046 C 328.942 398.292,330.391 398.742,331.114 399.046 C 331.836 399.351,332.783 399.600,333.219 399.600 C 334.250 399.600,335.428 400.275,337.405 402.000 C 338.287 402.770,339.591 403.850,340.301 404.400 C 341.011 404.950,341.594 405.600,341.596 405.844 C 341.598 406.088,342.236 406.898,343.013 407.644 C 344.508 409.078,345.237 410.388,345.996 413.000 C 346.404 414.406,347.004 415.899,348.013 418.022 C 349.682 421.531,349.987 428.414,348.540 429.914 C 347.262 431.239,346.159 431.343,330.941 431.574 C 311.461 431.870,311.038 432.101,318.686 438.260 C 320.036 439.347,320.604 439.531,322.825 439.606 C 327.569 439.765,329.939 439.604,330.471 439.087 C 333.198 436.440,338.599 435.757,340.200 437.858 C 340.640 438.435,341.858 439.746,342.907 440.771 C 344.711 442.533,344.828 442.779,345.061 445.276 L 345.308 447.917 343.594 449.158 C 342.651 449.841,341.706 450.400,341.494 450.400 C 341.281 450.400,340.273 450.990,339.254 451.711 C 336.702 453.516,335.124 454.062,331.400 454.430 C 329.640 454.603,327.057 454.874,325.659 455.032 C 320.193 455.648,312.877 454.155,309.546 451.742 C 308.527 451.004,307.428 450.400,307.105 450.400 C 305.923 450.400,300.924 445.259,299.990 443.084 C 299.498 441.938,298.569 440.232,297.924 439.294 C 294.492 434.295,294.545 417.538,298.009 412.309 C 298.844 411.049,299.841 409.197,300.224 408.193 C 300.607 407.189,301.368 405.970,301.915 405.484 C 302.461 404.998,303.862 403.700,305.028 402.600 C 306.835 400.894,307.696 400.429,310.873 399.441 C 312.923 398.804,314.771 398.129,314.980 397.941 C 315.536 397.442,325.666 397.524,327.894 398.046 M159.761 413.746 C 158.381 414.514,156.408 416.174,156.404 416.569 C 156.402 416.771,156.085 417.285,155.700 417.711 C 155.084 418.393,155.000 419.418,155.000 426.272 L 155.000 434.058 156.608 435.529 C 160.930 439.482,161.140 439.600,163.835 439.600 L 166.342 439.600 167.871 437.630 C 168.712 436.546,169.796 435.441,170.279 435.173 C 172.593 433.894,172.718 418.000,170.414 418.000 C 170.234 418.000,169.976 417.557,169.840 417.016 C 169.048 413.862,163.048 411.915,159.761 413.746 M318.585 413.739 C 315.843 415.289,315.592 415.674,315.859 417.900 L 316.111 420.000 320.909 420.000 C 326.110 420.000,327.174 419.525,327.853 416.901 C 328.593 414.045,322.014 411.800,318.585 413.739 " stroke="none" fill="#fafafa" fill-rule="evenodd"></path><path id="path2" d="M249.658 373.895 C 248.503 373.998,247.626 374.358,247.058 374.964 C 246.586 375.467,245.477 376.331,244.594 376.885 C 239.110 380.322,240.080 388.467,246.300 391.220 C 247.015 391.536,247.600 391.918,247.600 392.069 C 247.600 392.219,248.590 392.466,249.800 392.617 C 252.103 392.905,252.180 393.002,251.760 395.099 C 251.564 396.082,251.221 396.389,249.860 396.802 C 243.606 398.702,243.423 398.792,242.497 400.401 L 241.600 401.958 241.600 427.152 L 241.600 452.346 242.900 453.273 C 244.931 454.722,256.760 454.952,258.230 453.572 L 259.200 452.661 259.200 426.754 C 259.200 409.914,259.060 400.761,258.800 400.600 C 258.580 400.464,258.400 400.031,258.400 399.638 C 258.400 398.565,257.098 397.600,255.650 397.600 C 253.910 397.600,252.400 396.073,252.400 394.313 C 252.400 392.909,252.379 392.926,256.081 391.197 C 260.931 388.931,261.241 378.785,256.534 376.396 C 255.910 376.080,254.809 375.321,254.086 374.710 C 253.363 374.100,252.463 373.631,252.086 373.670 C 251.709 373.708,250.616 373.810,249.658 373.895 M33.291 378.500 C 32.095 379.967,32.004 382.715,32.002 417.430 L 32.000 452.661 32.926 453.530 C 33.805 454.356,34.211 454.400,41.004 454.400 L 48.156 454.400 49.278 453.325 L 50.400 452.250 50.413 440.425 C 50.426 429.052,50.458 428.562,51.257 427.600 L 52.088 426.600 61.744 426.384 C 71.396 426.169,71.401 426.168,73.092 425.084 C 74.023 424.488,75.036 424.000,75.343 424.000 C 75.651 424.000,76.107 423.752,76.359 423.450 C 76.610 423.147,77.574 422.779,78.501 422.630 C 80.515 422.308,86.176 416.942,86.613 414.941 C 86.928 413.500,87.201 412.821,88.785 409.550 C 91.144 404.679,90.923 399.061,88.140 393.204 C 87.356 391.552,86.427 389.570,86.076 388.800 C 85.379 387.270,80.198 382.000,79.391 382.000 C 78.925 382.000,75.681 380.504,72.400 378.776 C 70.616 377.836,34.042 377.578,33.291 378.500 M215.520 378.634 C 214.485 378.952,213.530 379.390,213.396 379.606 C 213.262 379.823,212.728 380.000,212.210 380.000 C 211.691 380.000,211.207 380.138,211.133 380.307 C 211.060 380.476,210.070 381.206,208.932 381.928 C 205.768 383.939,204.413 386.745,204.404 391.305 C 204.398 394.860,203.707 395.789,200.004 397.224 C 193.587 399.711,193.706 412.040,200.158 413.072 C 201.159 413.232,202.223 413.762,202.897 414.436 L 204.000 415.538 204.000 433.934 L 204.000 452.329 205.270 453.398 L 206.540 454.466 212.970 454.330 C 218.178 454.219,219.647 454.059,220.700 453.486 L 222.000 452.779 222.000 434.268 L 222.000 415.756 223.354 414.278 C 224.626 412.889,224.852 412.800,227.105 412.800 C 231.896 412.800,233.866 410.948,234.276 406.061 C 234.725 400.711,232.295 397.600,227.668 397.600 L 224.947 397.600 224.074 396.046 C 222.198 392.707,223.475 390.800,227.588 390.800 C 231.623 390.800,232.806 389.680,232.782 385.880 C 232.761 382.361,232.029 379.408,230.982 378.617 C 229.888 377.789,218.224 377.802,215.520 378.634 M271.569 378.504 C 269.159 379.183,269.200 378.508,269.200 417.595 L 269.200 452.779 270.500 453.483 C 273.196 454.943,284.658 454.737,286.308 453.200 L 287.200 452.369 287.183 417.684 C 287.165 381.873,287.085 379.922,285.594 378.715 C 284.581 377.895,274.281 377.740,271.569 378.504 M60.000 393.593 C 64.999 394.269,66.964 394.916,68.390 396.354 C 73.150 401.155,73.154 406.179,68.400 409.107 C 63.016 412.423,61.868 412.787,56.770 412.794 C 50.573 412.803,50.638 412.898,50.475 403.597 C 50.287 392.833,50.754 392.342,60.000 393.593 M100.028 398.385 C 99.054 398.770,97.839 399.572,97.328 400.165 L 96.400 401.245 96.400 427.012 L 96.400 452.779 97.700 453.486 C 99.961 454.716,111.532 454.770,113.170 453.559 L 114.400 452.650 114.400 439.068 C 114.400 425.507,114.957 420.000,116.328 420.000 C 116.489 420.000,117.193 419.479,117.890 418.841 C 119.303 417.551,122.720 416.340,127.102 415.577 C 130.692 414.951,132.000 413.254,132.000 409.223 C 132.000 407.971,132.193 405.903,132.429 404.626 C 133.662 397.955,129.465 396.056,120.416 399.193 C 115.363 400.944,115.289 400.938,112.845 398.537 C 111.585 397.300,103.026 397.198,100.028 398.385 M156.800 398.165 C 154.138 398.983,152.053 399.602,149.696 400.276 C 148.288 400.678,147.164 401.340,146.296 402.278 C 145.583 403.049,144.318 404.119,143.484 404.655 C 142.651 405.191,141.787 406.118,141.564 406.715 C 140.810 408.733,139.485 411.394,138.632 412.600 C 136.620 415.446,136.598 415.586,136.630 425.361 C 136.665 435.810,136.955 437.424,139.363 440.579 C 140.153 441.614,140.800 442.720,140.800 443.036 C 140.800 444.442,145.705 449.621,148.111 450.757 C 148.820 451.091,149.545 451.599,149.721 451.885 C 150.345 452.894,153.290 454.049,156.128 454.398 C 157.708 454.593,159.961 454.879,161.136 455.036 C 165.531 455.621,175.257 453.727,176.516 452.042 C 176.782 451.685,177.888 450.945,178.974 450.397 C 180.079 449.839,181.401 448.751,181.974 447.928 C 182.538 447.118,183.360 446.256,183.800 446.012 C 184.803 445.455,186.286 443.214,186.636 441.728 C 186.782 441.108,187.643 439.070,188.551 437.200 L 190.200 433.800 190.196 426.400 C 190.192 418.924,189.908 416.294,188.986 415.200 C 188.150 414.206,186.800 411.615,186.800 411.001 C 186.800 409.037,184.016 405.580,179.400 401.812 C 175.249 398.423,162.603 396.383,156.800 398.165 M314.980 397.941 C 314.771 398.129,312.923 398.804,310.873 399.441 C 307.696 400.429,306.835 400.894,305.028 402.600 C 303.862 403.700,302.461 404.998,301.915 405.484 C 301.368 405.970,300.607 407.189,300.224 408.193 C 299.841 409.197,298.844 411.049,298.009 412.309 C 294.545 417.538,294.492 434.295,297.924 439.294 C 298.569 440.232,299.498 441.938,299.990 443.084 C 300.924 445.259,305.923 450.400,307.105 450.400 C 307.428 450.400,308.527 451.004,309.546 451.742 C 312.877 454.155,320.193 455.648,325.659 455.032 C 327.057 454.874,329.640 454.603,331.400 454.430 C 335.124 454.062,336.702 453.516,339.254 451.711 C 340.273 450.990,341.281 450.400,341.494 450.400 C 341.706 450.400,342.651 449.841,343.594 449.158 L 345.308 447.917 345.061 445.276 C 344.828 442.779,344.711 442.533,342.907 440.771 C 341.858 439.746,340.640 438.435,340.200 437.858 C 338.599 435.757,333.198 436.440,330.471 439.087 C 329.939 439.604,327.569 439.765,322.825 439.606 C 318.262 439.453,313.015 434.579,315.241 432.562 C 316.027 431.851,317.069 431.785,330.941 431.574 C 346.159 431.343,347.262 431.239,348.540 429.914 C 349.987 428.414,349.682 421.531,348.013 418.022 C 347.004 415.899,346.404 414.406,345.996 413.000 C 345.237 410.388,344.508 409.078,343.013 407.644 C 342.236 406.898,341.598 406.088,341.596 405.844 C 341.594 405.600,341.011 404.950,340.301 404.400 C 339.591 403.850,338.287 402.770,337.405 402.000 C 335.428 400.275,334.250 399.600,333.219 399.600 C 332.783 399.600,331.836 399.351,331.114 399.046 C 327.941 397.709,316.139 396.900,314.980 397.941 M168.135 414.616 C 168.937 415.394,169.704 416.474,169.840 417.016 C 169.976 417.557,170.234 418.000,170.414 418.000 C 172.718 418.000,172.593 433.894,170.279 435.173 C 169.796 435.441,168.712 436.546,167.871 437.630 L 166.342 439.600 163.835 439.600 C 161.140 439.600,160.930 439.482,156.608 435.529 L 155.000 434.058 155.000 426.272 C 155.000 419.418,155.084 418.393,155.700 417.711 C 156.085 417.285,156.402 416.771,156.404 416.569 C 156.406 416.366,156.973 415.753,157.664 415.207 C 160.985 412.582,165.764 412.313,168.135 414.616 M326.313 414.004 C 328.408 415.281,328.515 416.772,326.664 418.900 C 325.719 419.986,325.644 420.000,320.909 420.000 L 316.111 420.000 315.859 417.900 C 315.592 415.674,315.843 415.289,318.585 413.739 C 320.021 412.927,324.817 413.091,326.313 414.004 " stroke="none" fill="#2fb7ed" fill-rule="evenodd"></path><path id="path3" d="M177.400 19.169 C 176.740 19.349,175.390 19.804,174.400 20.180 C 173.410 20.557,172.150 20.954,171.600 21.063 C 171.050 21.171,170.240 21.407,169.800 21.586 C 168.358 22.174,165.727 22.800,164.702 22.800 C 163.644 22.800,160.741 23.876,160.400 24.394 C 159.974 25.042,157.054 26.800,156.404 26.800 C 155.521 26.800,152.275 28.525,151.274 29.526 C 150.849 29.951,149.422 30.875,148.103 31.577 C 146.785 32.280,145.482 33.273,145.209 33.784 C 144.936 34.294,144.266 34.951,143.721 35.242 C 143.175 35.534,141.827 36.814,140.725 38.087 C 139.623 39.359,138.469 40.400,138.160 40.400 C 137.852 40.400,137.600 40.559,137.600 40.753 C 137.600 40.947,136.365 42.346,134.856 43.861 C 133.347 45.376,131.994 46.988,131.850 47.443 C 131.705 47.898,130.825 49.067,129.894 50.040 C 128.962 51.014,127.861 52.618,127.446 53.605 C 125.807 57.503,125.530 58.034,124.622 59.015 C 124.104 59.573,123.277 61.329,122.784 62.915 C 121.833 65.976,120.840 68.469,120.440 68.800 C 120.032 69.138,119.260 70.918,118.793 72.600 C 118.366 74.137,118.197 75.568,117.183 86.200 C 116.483 93.541,117.136 106.998,118.445 112.200 C 118.666 113.080,118.950 114.250,119.075 114.800 C 119.200 115.350,119.702 116.340,120.191 117.000 C 120.680 117.660,121.300 119.190,121.568 120.400 C 122.570 124.917,123.395 127.006,124.695 128.313 C 125.413 129.036,126.000 129.970,126.000 130.390 C 126.000 130.809,126.180 131.264,126.400 131.400 C 126.620 131.536,126.800 131.899,126.800 132.207 C 126.800 133.024,128.918 136.400,129.431 136.400 C 129.671 136.400,130.392 137.404,131.033 138.631 C 132.257 140.971,133.380 142.400,133.997 142.400 C 134.198 142.400,134.672 143.053,135.051 143.851 C 135.429 144.649,136.608 145.925,137.670 146.688 C 138.731 147.451,139.600 148.254,139.600 148.473 C 139.600 149.062,141.168 150.308,143.100 151.255 C 144.035 151.713,144.800 152.310,144.800 152.582 C 144.800 153.414,146.714 154.905,149.200 156.010 C 149.750 156.255,150.682 156.947,151.270 157.548 C 152.475 158.779,154.200 159.695,156.687 160.425 C 157.615 160.697,158.989 161.482,159.740 162.170 C 161.133 163.446,163.370 164.168,169.300 165.253 C 170.785 165.524,172.000 165.889,172.000 166.063 C 172.000 169.641,203.703 169.781,206.578 166.216 C 207.042 165.641,208.219 165.320,211.703 164.818 C 215.459 164.277,217.626 163.483,218.645 162.273 C 219.289 161.508,220.413 160.911,222.140 160.417 C 225.355 159.498,226.331 158.981,227.688 157.484 C 228.287 156.823,229.547 155.938,230.488 155.516 C 232.362 154.678,234.000 153.320,234.000 152.605 C 234.000 152.354,234.620 151.906,235.378 151.609 C 237.574 150.747,245.627 142.460,246.655 140.003 C 246.977 139.235,247.951 137.924,248.820 137.089 C 249.689 136.254,250.400 135.239,250.400 134.834 C 250.400 134.429,250.670 133.874,251.000 133.600 C 251.330 133.326,251.600 132.889,251.600 132.629 C 251.600 132.370,252.205 131.571,252.944 130.854 C 253.683 130.138,254.514 128.798,254.791 127.876 C 256.063 123.637,256.684 122.047,257.865 120.000 C 258.832 118.324,259.291 116.801,259.792 113.600 C 260.812 107.079,261.222 105.112,261.871 103.610 C 262.696 101.705,262.682 83.794,261.855 82.825 C 261.200 82.058,260.638 79.823,259.787 74.600 C 259.012 69.850,258.434 67.617,257.769 66.800 C 256.772 65.577,255.310 62.540,254.785 60.600 C 254.487 59.500,253.379 57.324,252.322 55.764 C 251.265 54.205,250.400 52.644,250.400 52.295 C 250.400 51.947,249.501 50.703,248.403 49.531 C 247.305 48.359,246.405 47.215,246.403 46.988 C 246.399 46.478,243.640 43.600,243.154 43.600 C 242.959 43.600,242.800 43.385,242.800 43.122 C 242.800 42.669,237.543 37.394,233.408 33.697 C 232.361 32.761,230.760 31.660,229.852 31.252 C 228.943 30.843,227.755 30.025,227.211 29.434 C 226.210 28.346,224.369 27.405,221.342 26.432 C 220.430 26.139,219.260 25.515,218.742 25.044 C 217.273 23.710,214.928 22.859,209.200 21.582 C 207.990 21.313,206.100 20.626,205.000 20.057 L 203.000 19.022 190.800 18.933 C 184.090 18.884,178.060 18.990,177.400 19.169 M199.505 20.755 C 200.896 21.465,205.467 22.753,208.200 23.204 C 212.565 23.925,215.305 24.796,216.281 25.772 C 217.286 26.777,219.102 27.603,222.500 28.600 C 223.953 29.026,225.101 29.657,225.616 30.311 C 226.528 31.470,228.531 32.800,229.366 32.800 C 229.667 32.800,230.819 33.655,231.926 34.700 C 233.034 35.745,234.358 36.982,234.870 37.449 C 235.381 37.916,236.265 38.816,236.833 39.449 C 237.401 40.082,238.571 41.247,239.433 42.038 C 240.295 42.828,241.369 43.908,241.820 44.438 C 242.271 44.967,243.041 45.668,243.531 45.996 C 244.021 46.324,244.805 47.383,245.273 48.350 C 245.741 49.317,246.607 50.386,247.198 50.725 C 247.958 51.161,248.582 52.167,249.337 54.170 C 249.923 55.727,251.034 57.720,251.805 58.600 C 252.577 59.480,253.278 60.470,253.362 60.800 C 253.446 61.130,253.730 62.300,253.994 63.400 C 254.607 65.952,255.145 67.152,256.237 68.400 C 257.286 69.599,258.400 73.290,258.400 75.566 C 258.400 76.469,258.654 78.872,258.965 80.904 C 259.920 87.149,260.097 95.893,259.401 102.400 C 259.060 105.590,258.610 109.827,258.402 111.815 C 258.025 115.417,257.336 117.457,256.169 118.426 C 255.459 119.015,254.400 121.380,254.400 122.376 C 254.400 123.948,253.127 127.099,251.967 128.400 C 251.281 129.170,250.180 130.970,249.522 132.400 C 248.863 133.830,247.820 135.403,247.205 135.896 C 246.589 136.388,245.724 137.484,245.282 138.332 C 244.841 139.179,243.643 140.756,242.621 141.836 C 241.599 142.916,240.636 143.938,240.481 144.106 C 239.043 145.673,234.392 150.000,234.147 150.000 C 233.974 150.000,232.975 150.900,231.926 152.000 C 230.876 153.100,229.699 154.013,229.309 154.029 C 228.542 154.061,227.432 154.715,224.915 156.619 C 224.029 157.289,222.516 158.070,221.552 158.354 C 219.249 159.033,217.431 159.925,216.404 160.882 C 215.362 161.853,213.068 162.584,209.200 163.178 C 207.550 163.432,205.300 163.895,204.200 164.207 C 193.903 167.129,186.936 167.615,181.024 165.822 C 179.251 165.285,176.360 164.554,174.600 164.198 C 172.840 163.842,170.632 163.382,169.694 163.175 C 168.756 162.969,167.496 162.791,166.894 162.781 C 165.751 162.761,164.374 162.111,161.754 160.357 C 160.897 159.783,159.137 159.006,157.842 158.629 C 156.547 158.253,155.268 157.732,155.000 157.473 C 153.171 155.703,151.916 154.858,149.898 154.039 C 148.410 153.436,147.149 152.564,146.329 151.572 C 145.631 150.729,144.568 149.835,143.966 149.586 C 142.890 149.140,140.800 147.102,140.800 146.498 C 140.800 146.328,140.102 145.757,139.248 145.230 C 138.394 144.702,137.378 143.715,136.989 143.035 C 136.600 142.356,135.598 141.127,134.762 140.305 C 133.926 139.483,132.887 138.043,132.452 137.105 C 132.018 136.167,131.016 134.680,130.226 133.800 C 129.437 132.920,128.493 131.390,128.130 130.400 C 127.766 129.410,127.003 127.995,126.434 127.255 C 125.865 126.515,125.150 125.566,124.844 125.145 C 124.281 124.369,123.821 122.622,123.225 118.997 C 122.899 117.014,121.363 113.219,120.702 112.764 C 118.283 111.096,118.343 74.388,120.767 72.810 C 121.399 72.398,123.128 68.160,123.627 65.800 C 124.207 63.051,124.750 61.858,126.133 60.289 C 127.099 59.193,127.276 58.825,128.614 55.122 C 128.996 54.063,129.955 52.630,130.811 51.838 C 131.661 51.051,132.453 49.871,132.610 49.156 C 132.899 47.839,134.360 46.194,135.584 45.805 C 135.966 45.684,136.621 44.870,137.039 43.997 C 137.458 43.124,138.025 42.407,138.300 42.405 C 138.575 42.402,138.800 42.220,138.800 42.000 C 138.800 41.780,139.013 41.600,139.274 41.600 C 139.835 41.600,141.600 40.015,141.600 39.511 C 141.600 39.086,143.589 37.200,144.038 37.200 C 144.510 37.200,146.400 35.373,146.400 34.916 C 146.400 34.331,147.665 33.332,148.800 33.020 C 150.225 32.628,152.400 31.474,152.400 31.109 C 152.400 30.939,152.599 30.800,152.842 30.800 C 153.086 30.800,153.639 30.350,154.071 29.800 C 154.504 29.250,155.194 28.800,155.605 28.800 C 156.016 28.800,156.464 28.620,156.600 28.400 C 156.736 28.180,157.272 28.000,157.791 28.000 C 158.795 28.000,161.193 26.803,161.197 26.300 C 161.199 26.135,161.451 26.000,161.757 26.000 C 162.064 26.000,162.401 25.775,162.507 25.500 C 162.770 24.817,167.887 23.550,173.400 22.802 C 175.642 22.498,178.800 21.301,178.800 20.757 C 178.800 20.291,198.594 20.289,199.505 20.755 M183.410 47.023 C 182.621 47.619,178.570 48.907,176.087 49.351 C 173.110 49.883,170.306 50.926,169.285 51.882 C 168.688 52.441,167.100 53.427,165.754 54.074 C 164.403 54.723,163.080 55.677,162.797 56.206 C 162.515 56.733,161.671 57.455,160.921 57.810 C 159.157 58.648,154.902 62.993,154.056 64.822 C 153.694 65.603,152.743 66.938,151.942 67.787 C 151.140 68.637,150.249 70.067,149.960 70.966 C 149.137 73.532,147.686 76.699,147.197 77.002 C 143.807 79.097,143.912 106.468,147.325 110.207 C 147.730 110.650,148.417 112.090,148.852 113.407 C 150.063 117.074,150.642 118.132,151.973 119.117 C 152.647 119.615,153.455 120.636,153.768 121.385 C 154.081 122.134,155.039 123.212,155.897 123.780 C 156.755 124.347,157.753 125.433,158.115 126.191 C 158.523 127.045,159.377 127.878,160.361 128.380 C 161.234 128.826,162.261 129.718,162.642 130.364 C 163.341 131.546,163.623 131.731,166.677 133.002 C 167.599 133.386,168.982 134.276,169.750 134.980 C 171.286 136.387,172.548 136.743,180.000 137.869 C 183.243 138.360,185.057 138.847,186.150 139.519 C 187.908 140.601,189.746 140.575,192.778 139.425 C 193.756 139.054,195.646 138.590,196.978 138.393 C 199.244 138.059,200.552 137.812,205.936 136.697 C 207.490 136.375,208.410 135.897,209.312 134.940 C 209.994 134.217,211.425 133.312,212.493 132.928 C 214.475 132.215,224.400 123.144,224.400 122.045 C 224.400 121.783,225.137 120.846,226.037 119.964 C 227.006 119.014,227.960 117.547,228.375 116.367 C 228.761 115.272,229.451 113.945,229.909 113.419 C 231.980 111.037,232.213 110.232,233.439 101.224 C 234.151 95.991,234.063 87.240,233.261 83.577 C 233.047 82.600,232.655 80.540,232.389 79.000 C 231.958 76.510,230.260 72.803,229.549 72.801 C 229.411 72.800,228.904 71.748,228.423 70.461 C 227.942 69.175,226.830 67.240,225.952 66.161 C 225.074 65.083,224.096 63.883,223.778 63.495 C 223.460 63.108,223.200 62.653,223.200 62.485 C 223.200 61.940,219.099 58.000,218.533 58.000 C 218.423 58.000,217.724 57.372,216.979 56.605 C 216.234 55.838,214.442 54.652,212.998 53.969 C 211.553 53.287,209.835 52.238,209.179 51.640 C 208.073 50.630,204.866 49.568,201.400 49.064 C 199.509 48.790,195.672 47.658,194.400 47.000 C 192.768 46.156,184.534 46.173,183.410 47.023 M200.200 50.935 C 203.972 51.509,205.796 52.144,206.800 53.232 C 207.601 54.099,209.781 55.200,210.699 55.200 C 211.481 55.200,212.640 55.960,214.355 57.600 C 214.930 58.150,216.210 59.230,217.199 60.000 C 220.255 62.379,220.669 62.802,222.236 65.136 C 223.072 66.381,224.246 67.850,224.846 68.400 C 225.445 68.950,226.252 70.390,226.638 71.600 C 227.347 73.816,229.050 76.800,229.607 76.800 C 230.590 76.800,231.638 84.099,231.876 92.600 C 232.145 102.225,231.336 107.674,229.193 110.665 C 228.537 111.581,228.000 112.506,228.000 112.720 C 228.000 112.934,227.731 113.624,227.402 114.254 C 227.074 114.884,226.804 115.679,226.802 116.021 C 226.801 116.362,225.984 117.532,224.987 118.621 C 222.400 121.444,222.000 121.950,222.000 122.400 C 222.000 122.620,221.835 122.800,221.634 122.800 C 221.432 122.800,220.577 123.548,219.734 124.462 C 218.261 126.057,217.533 126.758,214.602 129.400 C 212.559 131.242,212.070 131.600,211.597 131.600 C 210.995 131.600,208.759 132.784,208.082 133.461 C 206.410 135.133,202.547 136.147,195.256 136.828 C 192.757 137.062,190.267 137.422,189.723 137.629 C 189.178 137.836,188.553 137.895,188.334 137.759 C 187.434 137.203,183.244 136.427,181.000 136.400 C 178.098 136.366,173.476 135.427,173.277 134.831 C 173.198 134.594,172.878 134.400,172.567 134.400 C 172.255 134.400,172.000 134.249,172.000 134.065 C 172.000 133.729,168.918 132.123,166.498 131.199 C 165.782 130.925,164.687 130.121,164.065 129.413 C 163.442 128.704,162.400 127.809,161.748 127.424 C 161.097 127.039,160.139 126.104,159.619 125.346 C 159.100 124.588,157.976 123.415,157.122 122.739 C 156.268 122.062,155.234 120.854,154.824 120.054 C 154.414 119.254,153.595 118.150,153.004 117.600 C 151.790 116.470,151.048 114.919,149.989 111.302 C 149.587 109.929,148.923 108.309,148.515 107.702 C 146.355 104.498,145.398 86.920,147.170 83.000 C 148.042 81.071,148.950 79.212,149.681 77.860 C 150.055 77.167,150.370 76.291,150.381 75.914 C 150.391 75.536,150.655 74.636,150.967 73.914 C 151.279 73.191,151.750 72.015,152.015 71.300 C 152.280 70.585,152.715 70.000,152.981 70.000 C 153.247 70.000,153.706 69.550,154.000 69.000 C 154.294 68.450,154.685 68.000,154.868 68.000 C 155.050 68.000,155.200 67.630,155.200 67.177 C 155.200 66.713,156.070 65.521,157.200 64.437 C 158.300 63.383,159.203 62.358,159.207 62.160 C 159.217 61.624,160.827 60.207,162.268 59.465 C 162.966 59.106,163.913 58.285,164.372 57.640 C 164.943 56.837,166.119 56.119,168.103 55.361 C 169.696 54.752,171.540 53.743,172.200 53.120 C 173.586 51.810,174.831 51.428,179.800 50.783 C 181.780 50.527,183.580 50.246,183.800 50.160 C 184.628 49.837,196.745 50.409,200.200 50.935 M187.361 178.150 C 186.679 178.398,185.859 178.819,185.537 179.086 C 185.207 179.360,182.524 179.758,179.376 180.000 C 176.309 180.235,173.278 180.602,172.640 180.814 C 172.002 181.026,170.366 181.200,169.004 181.200 C 166.069 181.200,161.305 182.348,158.255 183.791 C 156.048 184.836,152.744 185.853,149.800 186.396 C 147.637 186.794,146.151 187.428,145.114 188.394 C 144.638 188.837,144.011 189.200,143.719 189.200 C 143.428 189.200,142.877 189.364,142.495 189.565 C 142.113 189.765,140.900 190.229,139.800 190.596 C 136.995 191.530,135.878 192.095,135.295 192.874 C 134.822 193.506,133.625 194.151,129.823 195.819 C 128.955 196.199,127.785 196.944,127.223 197.474 C 126.660 198.004,125.300 198.891,124.200 199.445 C 123.100 199.998,121.817 200.845,121.349 201.326 C 120.259 202.444,119.375 203.145,117.395 204.457 C 116.518 205.039,115.100 206.166,114.245 206.962 C 113.389 207.758,112.226 208.632,111.660 208.905 C 111.094 209.177,110.084 210.137,109.416 211.037 C 108.747 211.937,107.610 213.067,106.888 213.548 C 106.166 214.029,105.086 215.131,104.488 215.996 C 103.890 216.862,103.267 217.576,103.105 217.585 C 102.496 217.616,101.085 219.072,99.529 221.272 C 98.646 222.521,97.685 223.635,97.393 223.747 C 97.101 223.859,96.366 224.817,95.759 225.875 C 95.153 226.934,94.374 228.093,94.028 228.451 C 92.075 230.475,90.800 232.435,90.800 233.413 C 90.800 233.701,89.908 234.912,88.817 236.105 C 87.455 237.596,86.610 238.985,86.117 240.545 C 85.710 241.835,84.666 243.718,83.700 244.905 C 82.765 246.054,82.001 247.266,82.002 247.597 C 82.006 248.851,80.584 252.270,79.317 254.054 C 78.593 255.073,78.000 256.129,78.000 256.400 C 78.000 256.671,77.741 257.727,77.424 258.746 C 77.107 259.766,76.629 261.590,76.363 262.800 C 76.097 264.010,75.488 265.630,75.010 266.400 C 73.463 268.893,72.752 271.983,72.019 279.400 C 71.801 281.600,71.337 284.390,70.986 285.600 C 69.572 290.486,68.641 308.232,69.577 312.474 C 69.835 313.643,70.121 314.974,70.213 315.431 C 70.314 315.931,71.222 316.729,72.490 317.431 L 74.600 318.600 189.600 318.600 C 303.800 318.600,304.611 318.594,306.200 317.800 C 308.940 316.430,308.985 316.183,309.119 301.800 C 309.245 288.382,309.276 288.738,307.302 281.200 C 306.316 277.431,305.346 272.965,304.783 269.600 C 304.238 266.339,303.666 264.605,302.510 262.708 C 302.009 261.887,301.594 260.897,301.586 260.508 C 301.578 260.119,301.314 259.350,301.000 258.800 C 300.686 258.250,300.422 257.468,300.414 257.062 C 300.388 255.689,299.186 252.136,298.487 251.365 C 297.408 250.175,296.400 248.485,296.400 247.867 C 296.400 246.931,294.675 243.022,294.108 242.674 C 293.384 242.229,291.893 239.726,291.265 237.902 C 290.981 237.078,290.115 235.731,289.340 234.909 C 288.564 234.086,287.435 232.416,286.829 231.196 C 286.224 229.976,284.890 228.127,283.865 227.087 C 282.839 226.046,282.000 224.956,282.000 224.664 C 282.000 224.372,281.445 223.608,280.768 222.967 C 280.090 222.325,279.235 221.456,278.868 221.036 C 276.929 218.817,270.839 212.800,270.530 212.800 C 270.333 212.800,269.858 212.267,269.473 211.616 C 269.088 210.965,267.925 209.754,266.887 208.924 C 265.849 208.095,264.460 206.864,263.800 206.190 C 263.140 205.515,262.080 204.702,261.444 204.384 C 260.808 204.065,259.548 203.128,258.644 202.301 C 257.740 201.474,256.423 200.523,255.717 200.188 C 255.011 199.853,254.326 199.403,254.193 199.189 C 254.061 198.975,253.694 198.800,253.377 198.800 C 253.061 198.800,252.155 198.190,251.365 197.445 C 250.575 196.699,248.774 195.599,247.364 195.000 C 245.954 194.400,244.800 193.750,244.800 193.555 C 244.800 193.360,244.530 193.200,244.200 193.200 C 243.870 193.200,243.600 193.028,243.600 192.819 C 243.600 192.355,241.751 191.490,238.800 190.572 C 237.590 190.195,236.287 189.733,235.905 189.544 C 235.523 189.355,234.938 189.200,234.605 189.200 C 234.272 189.200,234.000 189.020,234.000 188.800 C 234.000 188.580,233.749 188.400,233.443 188.400 C 233.136 188.400,232.782 188.130,232.655 187.800 C 232.529 187.470,232.070 187.200,231.636 187.200 C 231.202 187.200,230.736 187.020,230.600 186.800 C 230.464 186.580,229.958 186.398,229.476 186.395 C 227.780 186.386,222.577 184.903,220.587 183.861 C 217.871 182.439,213.125 181.223,210.200 181.200 C 208.880 181.189,207.074 181.013,206.186 180.808 C 205.299 180.603,202.385 180.258,199.712 180.041 C 197.039 179.825,194.345 179.391,193.726 179.077 C 193.107 178.764,191.912 178.382,191.072 178.230 C 190.231 178.078,189.331 177.896,189.072 177.826 C 188.812 177.755,188.042 177.901,187.361 178.150 M198.800 181.946 C 212.645 182.936,213.355 183.046,216.723 184.713 C 218.611 185.647,220.959 186.432,222.800 186.744 C 227.160 187.483,230.800 188.436,230.800 188.839 C 230.800 189.653,233.990 191.166,236.754 191.662 C 239.189 192.100,240.003 192.454,241.393 193.677 C 242.320 194.493,244.321 195.625,245.839 196.191 C 247.597 196.847,249.036 197.702,249.800 198.544 C 250.460 199.271,251.630 200.106,252.400 200.399 C 253.170 200.692,254.084 201.172,254.431 201.466 C 254.779 201.760,255.178 202.000,255.318 202.000 C 255.459 202.000,256.185 202.585,256.932 203.300 C 258.926 205.209,260.076 206.000,260.854 206.000 C 261.234 206.000,261.956 206.585,262.458 207.300 C 263.547 208.851,264.397 209.570,265.164 209.587 C 265.800 209.602,267.879 211.790,268.191 212.773 C 268.304 213.126,269.050 213.768,269.850 214.199 C 270.651 214.630,271.729 215.654,272.247 216.474 C 272.765 217.294,273.582 218.176,274.064 218.434 C 275.143 219.012,276.800 220.638,276.800 221.120 C 276.800 221.656,278.564 223.600,279.051 223.600 C 279.696 223.600,280.661 224.867,280.954 226.100 C 281.098 226.705,281.392 227.200,281.608 227.200 C 281.823 227.200,282.000 227.393,282.000 227.629 C 282.000 228.158,283.008 229.200,283.521 229.200 C 283.729 229.200,284.461 230.376,285.147 231.813 C 285.834 233.250,287.120 235.180,288.005 236.101 C 289.008 237.145,289.864 238.567,290.276 239.875 C 290.642 241.034,291.718 242.919,292.680 244.087 C 293.639 245.249,294.524 246.650,294.647 247.200 C 295.223 249.772,296.153 252.121,296.991 253.116 C 298.205 254.560,299.086 256.733,299.410 259.085 C 299.825 262.107,301.352 266.400,302.012 266.400 C 302.516 266.400,303.553 270.407,303.978 274.000 C 305.102 283.478,305.341 285.037,305.757 285.600 C 307.159 287.498,307.200 287.926,307.187 300.495 C 307.174 313.973,307.276 313.317,304.869 315.302 L 303.539 316.400 189.269 316.394 C 126.421 316.391,74.793 316.256,74.539 316.094 C 74.285 315.932,73.591 314.720,72.996 313.400 L 71.914 311.000 72.148 301.000 C 72.277 295.500,72.554 289.830,72.764 288.400 C 72.974 286.970,73.348 283.280,73.595 280.200 C 74.087 274.085,74.703 270.821,75.483 270.200 C 76.275 269.570,78.000 264.957,78.000 263.468 C 78.000 262.726,78.165 261.598,78.367 260.960 C 78.569 260.322,78.840 259.314,78.970 258.719 C 79.099 258.125,79.833 256.955,80.601 256.119 C 81.368 255.284,81.997 254.293,81.998 253.919 C 81.999 253.544,82.165 252.824,82.367 252.319 C 82.568 251.813,82.947 250.562,83.208 249.538 C 83.496 248.406,84.255 247.060,85.141 246.107 C 85.997 245.186,86.833 243.725,87.165 242.569 C 88.004 239.639,88.807 238.132,89.812 237.593 C 90.307 237.329,90.937 236.637,91.212 236.056 C 92.703 232.908,93.093 232.275,94.088 231.386 C 94.686 230.852,95.524 229.737,95.949 228.908 C 96.374 228.078,97.666 226.325,98.819 225.011 C 99.972 223.697,101.164 222.025,101.469 221.297 C 101.773 220.568,102.423 219.819,102.911 219.633 C 104.035 219.205,105.896 217.357,106.214 216.355 C 106.348 215.935,107.029 215.297,107.728 214.936 C 109.155 214.202,110.262 213.064,110.607 211.979 C 110.733 211.580,111.618 210.875,112.572 210.414 C 113.526 209.952,115.183 208.773,116.254 207.796 C 117.324 206.818,118.425 206.014,118.700 206.009 C 118.975 206.004,119.200 205.848,119.200 205.663 C 119.200 205.478,119.830 204.987,120.600 204.572 C 121.370 204.157,122.000 203.700,122.000 203.557 C 122.000 202.910,124.577 200.870,125.976 200.408 C 126.825 200.128,128.092 199.291,128.792 198.549 C 129.492 197.807,130.376 197.200,130.756 197.200 C 131.136 197.200,131.796 196.936,132.224 196.613 C 132.651 196.290,133.394 196.020,133.876 196.013 C 134.372 196.006,135.661 195.130,136.839 194.000 C 138.104 192.787,139.286 192.000,139.843 192.000 C 142.085 192.000,146.985 190.222,147.951 189.059 C 148.538 188.351,151.946 187.338,155.600 186.785 C 157.487 186.499,159.787 185.768,161.800 184.814 C 165.474 183.073,168.489 182.590,178.221 182.183 C 181.532 182.045,184.862 181.779,185.621 181.592 C 187.173 181.210,189.324 181.268,198.800 181.946 M180.400 208.635 C 173.852 208.933,169.453 209.812,165.302 211.650 C 164.367 212.064,162.117 212.684,160.302 213.027 C 157.051 213.642,155.257 214.360,153.921 215.580 C 153.226 216.215,151.093 217.108,148.128 218.004 C 147.179 218.291,145.802 219.178,144.946 220.055 C 144.117 220.905,143.185 221.600,142.877 221.600 C 141.858 221.600,138.435 223.538,137.085 224.880 C 136.355 225.606,135.227 226.465,134.579 226.789 C 133.930 227.113,132.616 228.238,131.658 229.289 C 130.700 230.340,129.710 231.206,129.458 231.214 C 128.804 231.235,127.031 232.809,126.209 234.100 C 125.823 234.705,125.274 235.200,124.988 235.200 C 124.426 235.200,122.000 238.056,122.000 238.716 C 122.000 238.937,121.171 239.810,120.158 240.657 C 119.145 241.503,117.993 242.827,117.597 243.598 C 117.202 244.369,116.391 245.450,115.796 246.000 C 115.202 246.550,114.552 247.360,114.352 247.800 C 114.152 248.240,113.644 249.140,113.223 249.800 C 112.803 250.460,112.445 251.285,112.429 251.634 C 112.413 251.983,111.844 252.763,111.165 253.368 C 110.486 253.973,109.663 255.128,109.335 255.934 C 108.055 259.084,107.045 261.042,106.204 262.000 C 105.186 263.161,104.643 264.538,103.995 267.600 C 103.441 270.215,102.395 273.200,102.033 273.200 C 101.253 273.200,99.600 279.871,99.600 283.020 C 99.600 285.184,100.305 287.192,101.067 287.197 C 101.323 287.199,101.608 287.425,101.700 287.700 C 101.957 288.470,274.455 288.430,276.281 287.660 C 278.358 286.783,278.938 285.513,278.662 282.439 C 277.972 274.737,277.414 272.490,275.494 269.666 C 274.846 268.713,273.999 266.637,273.613 265.054 C 272.809 261.759,271.934 259.880,270.851 259.121 C 270.436 258.830,269.803 257.725,269.443 256.665 C 268.534 253.989,267.848 252.761,266.621 251.614 C 266.040 251.072,265.005 249.489,264.319 248.096 C 263.633 246.703,262.571 245.207,261.959 244.770 C 261.346 244.334,260.439 243.165,259.943 242.173 C 259.448 241.180,258.448 240.000,257.721 239.551 C 256.994 239.102,256.400 238.491,256.400 238.193 C 256.400 237.473,250.064 231.200,249.337 231.200 C 249.024 231.200,247.921 230.342,246.884 229.292 C 245.848 228.243,244.157 226.892,243.127 226.291 C 242.096 225.689,241.139 224.838,241.000 224.399 C 240.860 223.959,240.488 223.600,240.173 223.600 C 239.858 223.600,239.600 223.438,239.600 223.240 C 239.600 223.042,238.722 222.565,237.649 222.179 C 236.577 221.793,234.943 220.820,234.020 220.017 C 233.097 219.214,231.499 218.327,230.471 218.046 C 228.379 217.475,226.003 216.308,224.200 214.968 C 223.116 214.161,219.764 213.149,216.600 212.672 C 215.373 212.487,212.760 211.566,212.400 211.192 C 210.510 209.225,194.860 207.974,180.400 208.635 M199.376 210.434 C 205.621 211.551,206.497 211.753,206.933 212.174 C 207.699 212.913,211.459 213.874,218.600 215.156 C 220.236 215.450,221.255 215.880,221.800 216.506 C 222.240 217.012,223.050 217.628,223.600 217.876 C 225.816 218.873,228.066 219.600,228.933 219.600 C 229.438 219.600,230.378 220.156,231.025 220.837 C 232.262 222.140,234.784 223.562,237.307 224.379 C 238.227 224.677,239.031 225.282,239.371 225.933 C 239.677 226.520,240.529 227.290,241.264 227.644 C 241.999 227.998,243.095 228.523,243.700 228.812 C 244.305 229.100,244.800 229.565,244.800 229.847 C 244.800 230.587,246.583 232.400,247.311 232.400 C 247.652 232.400,249.027 233.480,250.368 234.800 C 251.708 236.120,252.956 237.200,253.140 237.200 C 253.324 237.200,253.890 238.008,254.398 238.997 C 254.913 239.997,255.909 241.139,256.647 241.574 C 257.416 242.028,258.235 242.987,258.600 243.862 C 259.229 245.366,260.456 246.800,261.116 246.800 C 261.467 246.800,261.731 247.269,263.021 250.190 C 263.407 251.065,263.920 251.985,264.162 252.234 C 266.523 254.680,268.000 257.177,268.000 258.723 C 268.000 259.067,268.680 260.170,269.511 261.174 C 271.153 263.159,272.000 264.803,272.000 266.005 C 272.000 267.535,274.199 273.200,274.793 273.200 C 276.294 273.200,277.494 283.884,276.144 285.233 C 274.776 286.602,266.293 286.727,185.000 286.578 C 100.982 286.423,102.460 286.453,101.536 284.929 C 100.762 283.655,101.623 279.336,102.996 277.600 C 103.479 276.990,104.582 273.584,105.005 271.400 C 105.691 267.854,106.676 265.259,107.878 263.828 C 108.605 262.963,109.200 262.033,109.200 261.760 C 109.200 261.488,109.463 260.755,109.784 260.132 C 110.105 259.510,110.468 258.508,110.590 257.908 C 110.712 257.307,111.446 256.181,112.221 255.406 C 112.996 254.631,113.990 253.157,114.430 252.131 C 114.870 251.104,115.628 249.887,116.115 249.426 C 117.560 248.058,119.046 245.898,119.600 244.358 C 119.925 243.454,120.660 242.581,121.568 242.020 C 122.924 241.182,124.000 239.653,124.000 238.566 C 124.000 238.305,124.585 237.813,125.300 237.472 C 126.900 236.710,128.261 235.469,128.572 234.489 C 128.700 234.083,129.541 233.427,130.439 233.031 C 131.382 232.615,132.520 231.660,133.136 230.768 C 133.816 229.782,134.813 228.985,135.900 228.559 C 136.835 228.192,137.600 227.736,137.600 227.546 C 137.600 227.356,137.785 227.200,138.011 227.200 C 138.237 227.200,139.062 226.615,139.846 225.900 C 141.413 224.469,142.740 223.636,143.484 223.614 C 144.307 223.590,147.600 221.434,147.600 220.918 C 147.600 220.650,148.455 220.166,149.500 219.843 C 154.546 218.282,156.012 217.631,156.874 216.570 C 157.564 215.720,159.032 215.302,165.200 214.200 C 170.962 213.171,172.976 212.687,173.600 212.185 C 175.825 210.392,192.726 209.244,199.376 210.434 " stroke="none" fill="#e8848c" fill-rule="evenodd"></path><path id="path4" d="M176.400 17.663 C 173.133 18.194,170.295 19.199,169.512 20.101 C 168.790 20.934,165.135 21.983,162.919 21.994 C 161.092 22.003,159.614 22.746,157.961 24.485 C 157.082 25.411,156.149 26.002,155.561 26.006 C 153.287 26.020,151.230 27.166,149.088 29.612 C 148.696 30.059,147.840 30.532,147.186 30.663 C 145.994 30.901,143.600 32.980,143.600 33.776 C 143.600 34.010,142.845 34.565,141.922 35.010 C 140.812 35.544,139.966 36.341,139.422 37.362 C 138.920 38.306,138.056 39.158,137.200 39.553 C 136.239 39.997,135.552 40.734,135.010 41.900 C 134.567 42.855,133.942 43.600,133.585 43.600 C 132.696 43.600,130.800 45.678,130.800 46.652 C 130.800 47.490,130.304 48.074,128.100 49.833 C 127.385 50.404,126.800 51.179,126.800 51.556 C 126.800 51.932,126.657 52.411,126.482 52.620 C 126.307 52.829,125.921 53.714,125.624 54.588 C 125.327 55.461,124.660 56.510,124.140 56.919 C 122.737 58.022,121.200 61.900,121.200 64.336 C 121.200 64.719,120.510 65.795,119.666 66.727 C 117.947 68.627,117.202 71.041,117.197 74.731 C 117.193 77.534,116.528 81.770,115.837 83.388 C 114.143 87.353,113.688 101.077,115.181 103.173 C 115.971 104.282,116.463 107.299,117.011 114.400 C 117.269 117.748,118.430 120.760,120.271 122.859 C 120.589 123.221,120.952 124.571,121.077 125.859 C 121.338 128.537,122.827 132.047,124.146 133.090 C 124.640 133.481,125.290 134.700,125.591 135.800 C 126.114 137.709,126.512 138.392,128.811 141.315 C 129.367 142.022,130.064 143.304,130.360 144.165 C 130.871 145.651,132.518 147.600,133.262 147.600 C 133.452 147.600,134.011 148.450,134.504 149.488 C 134.997 150.527,135.815 151.583,136.320 151.835 C 136.826 152.087,137.726 152.902,138.320 153.647 C 140.359 156.202,145.802 161.247,148.801 163.362 C 150.451 164.526,152.048 165.776,152.350 166.139 C 152.651 166.503,153.065 166.800,153.268 166.800 C 153.472 166.800,154.623 167.430,155.827 168.200 C 157.031 168.970,158.133 169.600,158.276 169.600 C 158.420 169.600,158.821 169.847,159.169 170.148 C 159.745 170.649,161.191 171.230,167.600 173.533 C 168.810 173.967,170.295 174.434,170.900 174.569 C 171.947 174.803,172.000 174.928,172.000 177.165 C 172.000 179.992,172.222 179.872,166.328 180.222 C 161.213 180.526,156.691 181.328,156.477 181.970 C 156.398 182.207,156.109 182.400,155.834 182.400 C 155.560 182.400,155.109 182.823,154.832 183.339 C 154.320 184.296,151.611 185.200,149.254 185.200 C 147.538 185.200,144.058 186.584,142.585 187.853 C 141.377 188.894,139.852 189.502,136.800 190.161 C 136.250 190.280,134.859 191.147,133.708 192.088 C 132.516 193.064,130.650 194.105,129.370 194.509 C 127.025 195.249,126.335 195.725,125.887 196.909 C 125.739 197.299,125.299 197.717,124.909 197.838 C 124.519 197.959,123.887 198.225,123.505 198.429 C 123.123 198.633,122.559 198.800,122.251 198.800 C 121.943 198.800,120.636 199.802,119.346 201.027 C 118.056 202.253,116.235 203.622,115.301 204.071 C 114.366 204.520,113.376 205.346,113.101 205.907 C 112.825 206.467,112.240 207.122,111.800 207.362 C 109.987 208.350,108.400 209.676,108.400 210.202 C 108.400 210.932,106.529 212.800,105.797 212.800 C 105.018 212.800,103.600 214.394,103.600 215.269 C 103.600 215.725,102.897 216.343,101.675 216.962 C 100.217 217.701,99.569 218.338,99.006 219.587 C 98.597 220.494,97.740 221.543,97.103 221.918 C 96.465 222.293,95.403 223.612,94.743 224.849 C 94.083 226.086,93.134 227.284,92.635 227.511 C 92.135 227.739,91.423 228.527,91.052 229.263 C 90.681 229.998,90.214 230.870,90.013 231.200 C 89.812 231.530,89.545 232.290,89.419 232.889 C 89.187 233.996,89.018 234.196,87.132 235.608 C 86.401 236.156,85.799 237.266,85.220 239.134 C 84.629 241.046,83.902 242.370,82.787 243.565 C 81.913 244.502,81.098 245.749,80.976 246.335 C 80.294 249.619,79.801 250.789,78.445 252.348 C 76.906 254.117,76.000 256.967,76.000 260.035 C 76.000 261.250,75.199 263.001,74.370 263.600 C 73.024 264.572,72.246 267.329,71.552 273.585 C 71.057 278.044,70.570 280.690,70.043 281.785 C 68.220 285.568,67.988 286.648,67.599 293.200 C 66.373 313.842,67.117 318.255,72.083 319.805 C 74.134 320.445,75.153 321.073,76.891 322.765 C 80.797 326.570,68.628 326.200,189.839 326.200 C 283.378 326.200,297.227 326.125,298.239 325.612 C 300.158 324.640,302.347 322.814,303.081 321.570 C 303.497 320.866,304.108 320.400,304.615 320.400 C 306.510 320.400,309.039 319.180,309.820 317.890 C 312.096 314.127,310.037 275.200,307.562 275.200 C 307.095 275.200,306.529 272.883,305.757 267.800 C 305.090 263.412,303.944 260.107,302.958 259.729 C 302.356 259.498,301.768 257.766,301.421 255.200 C 300.967 251.844,299.935 249.597,298.500 248.844 C 298.005 248.584,297.600 248.147,297.600 247.872 C 297.600 245.626,294.870 240.000,293.780 240.000 C 293.537 240.000,292.768 238.501,292.072 236.670 C 291.163 234.275,290.525 233.188,289.804 232.802 C 289.252 232.507,288.800 232.108,288.800 231.916 C 288.800 231.723,288.613 231.349,288.384 231.083 C 288.155 230.817,287.570 229.791,287.084 228.801 C 286.598 227.812,285.782 226.799,285.272 226.551 C 284.215 226.035,283.446 225.043,283.001 223.619 C 282.649 222.491,282.243 222.037,280.673 221.010 C 280.054 220.605,279.242 219.627,278.870 218.836 C 278.467 217.980,277.599 217.080,276.720 216.609 C 275.909 216.174,274.875 215.160,274.423 214.355 C 273.589 212.871,272.058 211.600,271.104 211.600 C 270.815 211.600,270.224 210.839,269.790 209.909 C 269.246 208.746,268.512 207.966,267.435 207.409 C 266.574 206.964,265.674 206.248,265.435 205.817 C 264.707 204.507,264.273 204.170,262.377 203.446 C 261.124 202.968,260.340 202.351,259.865 201.469 C 259.376 200.560,258.450 199.852,256.687 199.037 C 255.319 198.405,253.570 197.325,252.800 196.636 C 251.134 195.148,249.135 194.000,248.208 194.000 C 247.840 194.000,247.014 193.476,246.374 192.836 C 244.546 191.007,242.818 190.139,239.874 189.570 C 238.061 189.219,236.794 188.715,236.093 188.065 C 234.778 186.847,231.317 185.209,230.046 185.204 C 227.311 185.193,224.058 184.256,223.566 183.337 C 223.291 182.822,222.840 182.400,222.566 182.400 C 222.291 182.400,222.003 182.210,221.926 181.979 C 221.725 181.375,219.198 180.830,214.600 180.399 C 206.321 179.624,206.400 179.643,206.400 178.404 C 206.400 176.175,206.877 174.829,207.748 174.598 C 210.894 173.764,211.938 173.445,213.000 172.994 C 213.660 172.714,214.650 172.309,215.200 172.096 C 217.206 171.316,218.613 170.699,219.200 170.342 C 219.530 170.141,220.115 169.871,220.500 169.742 C 220.885 169.612,221.200 169.369,221.200 169.200 C 221.200 169.031,221.515 168.788,221.900 168.658 C 222.285 168.529,222.870 168.258,223.200 168.056 C 223.530 167.853,224.487 167.353,225.327 166.944 C 226.167 166.535,227.157 165.930,227.527 165.600 C 227.897 165.270,229.190 164.250,230.400 163.332 C 233.329 161.111,234.799 159.783,234.804 159.353 C 234.806 159.159,235.389 158.550,236.100 158.000 C 237.460 156.948,238.055 156.362,240.505 153.660 C 241.333 152.747,242.170 152.000,242.366 152.000 C 242.562 152.000,242.915 151.445,243.152 150.766 C 243.389 150.087,244.486 148.682,245.591 147.645 C 247.032 146.293,247.600 145.457,247.600 144.690 C 247.600 143.928,247.917 143.456,248.700 143.049 C 250.817 141.950,251.856 139.879,252.275 135.924 C 252.450 134.269,252.604 134.019,253.575 133.805 C 255.118 133.467,256.226 131.765,256.517 129.292 C 256.789 126.973,257.222 126.004,258.963 123.818 C 260.290 122.154,261.144 118.335,261.179 113.921 C 261.196 111.710,261.358 111.070,262.105 110.264 C 264.308 107.888,264.594 105.956,264.500 94.125 C 264.408 82.522,264.245 81.414,262.213 78.600 C 261.357 77.415,260.396 72.661,260.393 69.600 C 260.392 67.870,258.781 64.312,257.636 63.510 C 256.887 62.985,256.089 60.860,255.303 57.291 C 255.193 56.791,254.315 55.547,253.352 54.527 C 252.388 53.507,251.600 52.424,251.600 52.120 C 251.600 51.351,250.056 48.400,249.653 48.400 C 249.097 48.400,247.600 46.938,247.600 46.394 C 247.600 45.579,245.245 42.917,239.526 37.270 C 233.421 31.240,233.255 31.111,230.700 30.414 C 229.373 30.052,228.800 29.689,228.800 29.210 C 228.800 28.115,227.493 27.220,224.339 26.154 C 222.723 25.607,220.860 24.663,220.200 24.055 C 218.668 22.644,217.651 22.232,214.200 21.627 C 212.660 21.357,210.950 20.889,210.400 20.587 C 206.338 18.356,205.546 18.064,202.436 17.649 C 198.526 17.127,179.633 17.137,176.400 17.663 M205.000 20.057 C 206.100 20.626,207.990 21.313,209.200 21.582 C 214.928 22.859,217.273 23.710,218.742 25.044 C 219.260 25.515,220.430 26.139,221.342 26.432 C 224.369 27.405,226.210 28.346,227.211 29.434 C 227.755 30.025,228.943 30.843,229.852 31.252 C 230.760 31.660,232.361 32.761,233.408 33.697 C 237.543 37.394,242.800 42.669,242.800 43.122 C 242.800 43.385,242.959 43.600,243.154 43.600 C 243.640 43.600,246.399 46.478,246.403 46.988 C 246.405 47.215,247.305 48.359,248.403 49.531 C 249.501 50.703,250.400 51.947,250.400 52.295 C 250.400 52.644,251.265 54.205,252.322 55.764 C 253.379 57.324,254.487 59.500,254.785 60.600 C 255.310 62.540,256.772 65.577,257.769 66.800 C 258.434 67.617,259.012 69.850,259.787 74.600 C 260.638 79.823,261.200 82.058,261.855 82.825 C 262.682 83.794,262.696 101.705,261.871 103.610 C 261.222 105.112,260.812 107.079,259.792 113.600 C 259.291 116.801,258.832 118.324,257.865 120.000 C 256.684 122.047,256.063 123.637,254.791 127.876 C 254.514 128.798,253.683 130.138,252.944 130.854 C 252.205 131.571,251.600 132.370,251.600 132.629 C 251.600 132.889,251.330 133.326,251.000 133.600 C 250.670 133.874,250.400 134.429,250.400 134.834 C 250.400 135.239,249.689 136.254,248.820 137.089 C 247.951 137.924,246.977 139.235,246.655 140.003 C 245.627 142.460,237.574 150.747,235.378 151.609 C 234.620 151.906,234.000 152.354,234.000 152.605 C 234.000 153.320,232.362 154.678,230.488 155.516 C 229.547 155.938,228.287 156.823,227.688 157.484 C 226.331 158.981,225.355 159.498,222.140 160.417 C 220.413 160.911,219.289 161.508,218.645 162.273 C 217.626 163.483,215.459 164.277,211.703 164.818 C 208.219 165.320,207.042 165.641,206.578 166.216 C 203.703 169.781,172.000 169.641,172.000 166.063 C 172.000 165.889,170.785 165.524,169.300 165.253 C 163.370 164.168,161.133 163.446,159.740 162.170 C 158.989 161.482,157.615 160.697,156.687 160.425 C 154.200 159.695,152.475 158.779,151.270 157.548 C 150.682 156.947,149.750 156.255,149.200 156.010 C 146.714 154.905,144.800 153.414,144.800 152.582 C 144.800 152.310,144.035 151.713,143.100 151.255 C 141.168 150.308,139.600 149.062,139.600 148.473 C 139.600 148.254,138.731 147.451,137.670 146.688 C 136.608 145.925,135.429 144.649,135.051 143.851 C 134.672 143.053,134.198 142.400,133.997 142.400 C 133.380 142.400,132.257 140.971,131.033 138.631 C 130.392 137.404,129.671 136.400,129.431 136.400 C 128.918 136.400,126.800 133.024,126.800 132.207 C 126.800 131.899,126.620 131.536,126.400 131.400 C 126.180 131.264,126.000 130.809,126.000 130.390 C 126.000 129.970,125.413 129.036,124.695 128.313 C 123.395 127.006,122.570 124.917,121.568 120.400 C 121.300 119.190,120.680 117.660,120.191 117.000 C 119.702 116.340,119.200 115.350,119.075 114.800 C 118.950 114.250,118.666 113.080,118.445 112.200 C 117.136 106.998,116.483 93.541,117.183 86.200 C 118.197 75.568,118.366 74.137,118.793 72.600 C 119.260 70.918,120.032 69.138,120.440 68.800 C 120.840 68.469,121.833 65.976,122.784 62.915 C 123.277 61.329,124.104 59.573,124.622 59.015 C 125.530 58.034,125.807 57.503,127.446 53.605 C 127.861 52.618,128.962 51.014,129.894 50.040 C 130.825 49.067,131.705 47.898,131.850 47.443 C 131.994 46.988,133.347 45.376,134.856 43.861 C 136.365 42.346,137.600 40.947,137.600 40.753 C 137.600 40.559,137.852 40.400,138.160 40.400 C 138.469 40.400,139.623 39.359,140.725 38.087 C 141.827 36.814,143.175 35.534,143.721 35.242 C 144.266 34.951,144.936 34.294,145.209 33.784 C 145.482 33.273,146.785 32.280,148.103 31.577 C 149.422 30.875,150.849 29.951,151.274 29.526 C 152.275 28.525,155.521 26.800,156.404 26.800 C 157.054 26.800,159.974 25.042,160.400 24.394 C 160.741 23.876,163.644 22.800,164.702 22.800 C 165.727 22.800,168.358 22.174,169.800 21.586 C 170.240 21.407,171.050 21.171,171.600 21.063 C 172.150 20.954,173.410 20.557,174.400 20.180 C 177.746 18.907,178.580 18.843,190.800 18.933 L 203.000 19.022 205.000 20.057 M183.800 50.160 C 183.580 50.246,181.780 50.527,179.800 50.783 C 174.831 51.428,173.586 51.810,172.200 53.120 C 171.540 53.743,169.696 54.752,168.103 55.361 C 166.119 56.119,164.943 56.837,164.372 57.640 C 163.913 58.285,162.966 59.106,162.268 59.465 C 160.827 60.207,159.217 61.624,159.207 62.160 C 159.203 62.358,158.300 63.383,157.200 64.437 C 156.070 65.521,155.200 66.713,155.200 67.177 C 155.200 67.630,155.050 68.000,154.868 68.000 C 154.685 68.000,154.294 68.450,154.000 69.000 C 153.706 69.550,153.247 70.000,152.981 70.000 C 152.715 70.000,152.280 70.585,152.015 71.300 C 151.750 72.015,151.279 73.191,150.967 73.914 C 150.655 74.636,150.391 75.536,150.381 75.914 C 150.370 76.291,150.055 77.167,149.681 77.860 C 148.950 79.212,148.042 81.071,147.170 83.000 C 145.398 86.920,146.355 104.498,148.515 107.702 C 148.923 108.309,149.587 109.929,149.989 111.302 C 151.048 114.919,151.790 116.470,153.004 117.600 C 153.595 118.150,154.414 119.254,154.824 120.054 C 155.234 120.854,156.268 122.062,157.122 122.739 C 157.976 123.415,159.100 124.588,159.619 125.346 C 160.139 126.104,161.097 127.039,161.748 127.424 C 162.400 127.809,163.442 128.704,164.065 129.413 C 164.687 130.121,165.782 130.925,166.498 131.199 C 168.918 132.123,172.000 133.729,172.000 134.065 C 172.000 134.249,172.255 134.400,172.567 134.400 C 172.878 134.400,173.198 134.594,173.277 134.831 C 173.476 135.427,178.098 136.366,181.000 136.400 C 183.244 136.427,187.434 137.203,188.334 137.759 C 188.553 137.895,189.178 137.836,189.723 137.629 C 190.267 137.422,192.757 137.062,195.256 136.828 C 202.547 136.147,206.410 135.133,208.082 133.461 C 208.759 132.784,210.995 131.600,211.597 131.600 C 212.070 131.600,212.559 131.242,214.602 129.400 C 217.533 126.758,218.261 126.057,219.734 124.462 C 220.577 123.548,221.432 122.800,221.634 122.800 C 221.835 122.800,222.000 122.620,222.000 122.400 C 222.000 121.950,222.400 121.444,224.987 118.621 C 225.984 117.532,226.801 116.362,226.802 116.021 C 226.804 115.679,227.074 114.884,227.402 114.254 C 227.731 113.624,228.000 112.934,228.000 112.720 C 228.000 112.506,228.537 111.581,229.193 110.665 C 231.336 107.674,232.145 102.225,231.876 92.600 C 231.638 84.099,230.590 76.800,229.607 76.800 C 229.050 76.800,227.347 73.816,226.638 71.600 C 226.252 70.390,225.445 68.950,224.846 68.400 C 224.246 67.850,223.072 66.381,222.236 65.136 C 220.669 62.802,220.255 62.379,217.199 60.000 C 216.210 59.230,214.930 58.150,214.355 57.600 C 212.640 55.960,211.481 55.200,210.699 55.200 C 209.781 55.200,207.601 54.099,206.800 53.232 C 205.025 51.308,187.016 48.903,183.800 50.160 M198.600 59.621 C 209.554 62.497,215.344 65.619,221.500 71.968 C 223.535 74.067,225.200 76.019,225.200 76.305 C 225.200 77.274,227.129 80.591,228.511 82.000 L 229.884 83.400 230.169 91.825 C 230.462 100.481,230.177 107.200,229.516 107.200 C 229.059 107.200,228.251 107.990,227.880 108.800 C 227.729 109.130,227.446 109.670,227.251 110.000 C 226.642 111.034,226.000 113.407,226.000 114.628 C 226.000 115.538,225.552 116.185,224.000 117.522 C 222.900 118.469,221.998 119.549,221.996 119.922 C 221.992 120.572,221.521 121.047,219.100 122.842 C 218.495 123.291,218.000 123.881,218.000 124.154 C 218.000 124.771,216.168 126.455,214.699 127.187 C 214.094 127.489,213.245 128.335,212.813 129.068 C 212.359 129.837,211.705 130.400,211.264 130.400 C 210.099 130.400,206.923 131.918,205.485 133.163 C 201.704 136.434,175.288 136.717,173.771 133.502 C 173.567 133.071,172.950 132.492,172.400 132.216 C 171.850 131.940,170.832 131.419,170.138 131.057 C 169.444 130.696,168.508 130.400,168.057 130.400 C 166.750 130.400,165.200 129.531,165.200 128.798 C 165.200 127.946,164.235 127.087,162.216 126.142 C 161.345 125.734,160.535 125.036,160.416 124.592 C 160.068 123.292,159.030 122.068,157.917 121.644 C 157.232 121.384,156.545 120.533,155.886 119.125 C 155.338 117.956,154.342 116.418,153.673 115.706 C 152.383 114.335,152.038 113.471,150.989 109.000 C 150.089 105.163,149.607 103.959,148.526 102.845 C 147.630 101.922,147.600 101.667,147.600 94.924 L 147.600 87.957 148.801 86.678 C 149.462 85.975,150.113 85.040,150.248 84.600 C 150.384 84.160,150.721 83.530,150.997 83.200 C 151.273 82.870,151.730 81.340,152.012 79.800 C 152.634 76.400,153.179 75.437,154.959 74.593 C 155.750 74.217,156.426 73.550,156.562 73.011 C 156.690 72.498,157.740 71.296,158.894 70.339 C 160.048 69.383,161.353 68.236,161.796 67.792 C 163.578 66.001,169.103 63.074,173.200 61.751 C 174.190 61.432,175.450 60.936,176.000 60.650 C 176.889 60.188,179.497 59.529,182.400 59.031 C 184.499 58.672,196.671 59.115,198.600 59.621 M191.072 178.230 C 191.912 178.382,193.107 178.764,193.726 179.077 C 194.345 179.391,197.039 179.825,199.712 180.041 C 202.385 180.258,205.299 180.603,206.186 180.808 C 207.074 181.013,208.880 181.189,210.200 181.200 C 213.125 181.223,217.871 182.439,220.587 183.861 C 222.577 184.903,227.780 186.386,229.476 186.395 C 229.958 186.398,230.464 186.580,230.600 186.800 C 230.736 187.020,231.202 187.200,231.636 187.200 C 232.070 187.200,232.529 187.470,232.655 187.800 C 232.782 188.130,233.136 188.400,233.443 188.400 C 233.749 188.400,234.000 188.580,234.000 188.800 C 234.000 189.020,234.272 189.200,234.605 189.200 C 234.938 189.200,235.523 189.355,235.905 189.544 C 236.287 189.733,237.590 190.195,238.800 190.572 C 241.751 191.490,243.600 192.355,243.600 192.819 C 243.600 193.028,243.870 193.200,244.200 193.200 C 244.530 193.200,244.800 193.360,244.800 193.555 C 244.800 193.750,245.954 194.400,247.364 195.000 C 248.774 195.599,250.575 196.699,251.365 197.445 C 252.155 198.190,253.061 198.800,253.377 198.800 C 253.694 198.800,254.061 198.975,254.193 199.189 C 254.326 199.403,255.011 199.853,255.717 200.188 C 256.423 200.523,257.740 201.474,258.644 202.301 C 259.548 203.128,260.808 204.065,261.444 204.384 C 262.080 204.702,263.140 205.515,263.800 206.190 C 264.460 206.864,265.849 208.095,266.887 208.924 C 267.925 209.754,269.088 210.965,269.473 211.616 C 269.858 212.267,270.333 212.800,270.530 212.800 C 270.839 212.800,276.929 218.817,278.868 221.036 C 279.235 221.456,280.090 222.325,280.768 222.967 C 281.445 223.608,282.000 224.372,282.000 224.664 C 282.000 224.956,282.839 226.046,283.865 227.087 C 284.890 228.127,286.224 229.976,286.829 231.196 C 287.435 232.416,288.564 234.086,289.340 234.909 C 290.115 235.731,290.981 237.078,291.265 237.902 C 291.893 239.726,293.384 242.229,294.108 242.674 C 294.675 243.022,296.400 246.931,296.400 247.867 C 296.400 248.485,297.408 250.175,298.487 251.365 C 299.186 252.136,300.388 255.689,300.414 257.062 C 300.422 257.468,300.686 258.250,301.000 258.800 C 301.314 259.350,301.578 260.119,301.586 260.508 C 301.594 260.897,302.009 261.887,302.510 262.708 C 303.666 264.605,304.238 266.339,304.783 269.600 C 305.346 272.965,306.316 277.431,307.302 281.200 C 309.276 288.738,309.245 288.382,309.119 301.800 C 308.985 316.183,308.940 316.430,306.200 317.800 C 304.611 318.594,303.800 318.600,189.600 318.600 L 74.600 318.600 72.490 317.431 C 71.222 316.729,70.314 315.931,70.213 315.431 C 70.121 314.974,69.835 313.643,69.577 312.474 C 68.641 308.232,69.572 290.486,70.986 285.600 C 71.337 284.390,71.801 281.600,72.019 279.400 C 72.752 271.983,73.463 268.893,75.010 266.400 C 75.488 265.630,76.097 264.010,76.363 262.800 C 76.629 261.590,77.107 259.766,77.424 258.746 C 77.741 257.727,78.000 256.671,78.000 256.400 C 78.000 256.129,78.593 255.073,79.317 254.054 C 80.584 252.270,82.006 248.851,82.002 247.597 C 82.001 247.266,82.765 246.054,83.700 244.905 C 84.666 243.718,85.710 241.835,86.117 240.545 C 86.610 238.985,87.455 237.596,88.817 236.105 C 89.908 234.912,90.800 233.701,90.800 233.413 C 90.800 232.435,92.075 230.475,94.028 228.451 C 94.374 228.093,95.153 226.934,95.759 225.875 C 96.366 224.817,97.101 223.859,97.393 223.747 C 97.685 223.635,98.646 222.521,99.529 221.272 C 101.085 219.072,102.496 217.616,103.105 217.585 C 103.267 217.576,103.890 216.862,104.488 215.996 C 105.086 215.131,106.166 214.029,106.888 213.548 C 107.610 213.067,108.747 211.937,109.416 211.037 C 110.084 210.137,111.094 209.177,111.660 208.905 C 112.226 208.632,113.389 207.758,114.245 206.962 C 115.100 206.166,116.518 205.039,117.395 204.457 C 119.375 203.145,120.259 202.444,121.349 201.326 C 121.817 200.845,123.100 199.998,124.200 199.445 C 125.300 198.891,126.660 198.004,127.223 197.474 C 127.785 196.944,128.955 196.199,129.823 195.819 C 133.625 194.151,134.822 193.506,135.295 192.874 C 135.878 192.095,136.995 191.530,139.800 190.596 C 140.900 190.229,142.113 189.765,142.495 189.565 C 142.877 189.364,143.428 189.200,143.719 189.200 C 144.011 189.200,144.638 188.837,145.114 188.394 C 146.151 187.428,147.637 186.794,149.800 186.396 C 152.744 185.853,156.048 184.836,158.255 183.791 C 161.305 182.348,166.069 181.200,169.004 181.200 C 170.366 181.200,172.002 181.026,172.640 180.814 C 173.278 180.602,176.309 180.235,179.376 180.000 C 182.524 179.758,185.207 179.360,185.537 179.086 C 186.317 178.439,188.483 177.666,189.072 177.826 C 189.331 177.896,190.231 178.078,191.072 178.230 M180.609 210.453 C 176.858 210.813,174.614 211.367,173.600 212.185 C 172.976 212.687,170.962 213.171,165.200 214.200 C 159.032 215.302,157.564 215.720,156.874 216.570 C 156.012 217.631,154.546 218.282,149.500 219.843 C 148.455 220.166,147.600 220.650,147.600 220.918 C 147.600 221.434,144.307 223.590,143.484 223.614 C 142.740 223.636,141.413 224.469,139.846 225.900 C 139.062 226.615,138.237 227.200,138.011 227.200 C 137.785 227.200,137.600 227.356,137.600 227.546 C 137.600 227.736,136.835 228.192,135.900 228.559 C 134.813 228.985,133.816 229.782,133.136 230.768 C 132.520 231.660,131.382 232.615,130.439 233.031 C 129.541 233.427,128.700 234.083,128.572 234.489 C 128.261 235.469,126.900 236.710,125.300 237.472 C 124.585 237.813,124.000 238.305,124.000 238.566 C 124.000 239.653,122.924 241.182,121.568 242.020 C 120.660 242.581,119.925 243.454,119.600 244.358 C 119.046 245.898,117.560 248.058,116.115 249.426 C 115.628 249.887,114.870 251.104,114.430 252.131 C 113.990 253.157,112.996 254.631,112.221 255.406 C 111.446 256.181,110.712 257.307,110.590 257.908 C 110.468 258.508,110.105 259.510,109.784 260.132 C 109.463 260.755,109.200 261.488,109.200 261.760 C 109.200 262.033,108.605 262.963,107.878 263.828 C 106.676 265.259,105.691 267.854,105.005 271.400 C 104.582 273.584,103.479 276.990,102.996 277.600 C 101.623 279.336,100.762 283.655,101.536 284.929 C 102.460 286.453,100.982 286.423,185.000 286.578 C 266.293 286.727,274.776 286.602,276.144 285.233 C 277.494 283.884,276.294 273.200,274.793 273.200 C 274.199 273.200,272.000 267.535,272.000 266.005 C 272.000 264.803,271.153 263.159,269.511 261.174 C 268.680 260.170,268.000 259.067,268.000 258.723 C 268.000 257.177,266.523 254.680,264.162 252.234 C 263.920 251.985,263.407 251.065,263.021 250.190 C 261.731 247.269,261.467 246.800,261.116 246.800 C 260.456 246.800,259.229 245.366,258.600 243.862 C 258.235 242.987,257.416 242.028,256.647 241.574 C 255.909 241.139,254.913 239.997,254.398 238.997 C 253.890 238.008,253.324 237.200,253.140 237.200 C 252.956 237.200,251.708 236.120,250.368 234.800 C 249.027 233.480,247.652 232.400,247.311 232.400 C 246.583 232.400,244.800 230.587,244.800 229.847 C 244.800 229.565,244.305 229.100,243.700 228.812 C 243.095 228.523,241.999 227.998,241.264 227.644 C 240.529 227.290,239.677 226.520,239.371 225.933 C 239.031 225.282,238.227 224.677,237.307 224.379 C 234.784 223.562,232.262 222.140,231.025 220.837 C 230.378 220.156,229.438 219.600,228.933 219.600 C 228.066 219.600,225.816 218.873,223.600 217.876 C 223.050 217.628,222.240 217.012,221.800 216.506 C 221.255 215.880,220.236 215.450,218.600 215.156 C 211.459 213.874,207.699 212.913,206.933 212.174 C 206.497 211.753,205.621 211.551,199.376 210.434 C 196.588 209.935,185.890 209.946,180.609 210.453 M201.400 220.351 C 204.829 220.758,212.028 222.224,214.200 222.957 C 215.080 223.253,216.610 223.726,217.600 224.006 C 222.120 225.285,226.468 226.970,229.077 228.454 C 229.915 228.930,231.680 229.857,233.000 230.514 C 235.518 231.766,243.628 237.011,245.000 238.275 C 245.440 238.680,246.790 239.728,248.000 240.603 C 250.334 242.290,257.200 248.956,257.200 249.535 C 257.200 250.080,258.722 251.687,259.698 252.174 C 260.189 252.419,261.064 253.515,261.642 254.610 C 262.221 255.704,262.970 256.655,263.308 256.722 C 264.196 256.898,266.000 259.798,266.000 261.049 C 266.000 262.609,268.005 265.598,269.051 265.599 C 270.113 265.600,270.655 266.930,270.959 270.280 C 271.289 273.923,272.021 275.910,273.656 277.603 C 274.966 278.960,275.127 279.365,275.256 281.637 L 275.400 284.162 274.000 284.561 C 271.714 285.211,110.742 285.348,106.232 284.703 C 103.313 284.286,100.836 283.200,102.803 283.200 C 104.400 283.200,105.965 279.538,106.467 274.629 L 106.872 270.658 108.636 268.944 C 109.606 268.001,110.400 266.874,110.400 266.439 C 110.400 266.003,110.580 265.536,110.800 265.400 C 111.020 265.264,111.200 264.374,111.200 263.422 C 111.200 261.851,111.324 261.632,112.545 261.053 C 114.257 260.241,114.672 259.723,115.527 257.340 C 116.489 254.659,118.344 252.000,119.253 252.000 C 119.669 252.000,120.000 251.718,120.000 251.364 C 120.000 251.014,120.945 249.843,122.100 248.763 C 123.255 247.682,124.350 246.633,124.532 246.431 C 126.689 244.052,129.844 241.288,132.960 239.046 C 133.862 238.398,134.870 237.573,135.200 237.213 C 135.794 236.566,141.897 232.400,142.250 232.400 C 142.351 232.400,142.651 232.214,142.917 231.987 C 144.431 230.694,154.323 226.157,157.400 225.344 C 157.840 225.228,158.560 224.972,159.000 224.776 C 159.440 224.580,161.150 224.045,162.800 223.589 C 164.450 223.132,166.430 222.578,167.200 222.356 C 175.818 219.877,190.273 219.030,201.400 220.351 " stroke="none" fill="#e49da2" fill-rule="evenodd"></path></g></svg>